<svg width="261" height="262" viewBox="0 0 261 262" fill="none" xmlns="http://www.w3.org/2000/svg">
<rect x="203.595" y="27.639" width="10.0188" height="98.2721" fill="#2B0307"/>
<rect x="156.927" y="0.921301" width="102.729" height="40.5372" fill="#00B8C4"/>
<path d="M180.633 31.4419C179.442 31.4419 178.35 31.2219 177.358 30.7821C176.375 30.3422 175.523 29.7224 174.803 28.9227C174.083 28.1229 173.527 27.1872 173.136 26.1156C172.752 25.0359 172.56 23.8603 172.56 22.5887V22.3128C172.56 21.0492 172.752 19.8816 173.136 18.81C173.527 17.7383 174.079 16.8026 174.791 16.0029C175.511 15.2031 176.363 14.5833 177.346 14.1435C178.338 13.6956 179.43 13.4717 180.621 13.4717C181.805 13.4717 182.892 13.6956 183.884 14.1435C184.876 14.5833 185.739 15.2031 186.475 16.0029C187.211 16.8026 187.779 17.7383 188.179 18.81C188.579 19.8816 188.778 21.0492 188.778 22.3128V22.5887C188.778 23.8603 188.579 25.0359 188.179 26.1156C187.779 27.1872 187.211 28.1229 186.475 28.9227C185.747 29.7224 184.888 30.3422 183.896 30.7821C182.904 31.2219 181.817 31.4419 180.633 31.4419ZM180.633 28.5028C181.569 28.5028 182.357 28.2549 182.996 27.7591C183.644 27.2632 184.132 26.5754 184.46 25.6957C184.788 24.808 184.952 23.7723 184.952 22.5887V22.2888C184.952 21.1292 184.784 20.1095 184.448 19.2298C184.12 18.3501 183.632 17.6623 182.984 17.1665C182.345 16.6707 181.557 16.4227 180.621 16.4227C179.661 16.4227 178.87 16.6707 178.246 17.1665C177.622 17.6543 177.158 18.3381 176.854 19.2178C176.55 20.0895 176.398 21.1132 176.398 22.2888V22.5887C176.398 23.7723 176.55 24.808 176.854 25.6957C177.166 26.5834 177.634 27.2752 178.258 27.7711C178.89 28.2589 179.681 28.5028 180.633 28.5028ZM198.459 31.4419C197.268 31.4419 196.176 31.2219 195.184 30.7821C194.201 30.3422 193.349 29.7224 192.629 28.9227C191.909 28.1229 191.354 27.1872 190.962 26.1156C190.578 25.0359 190.386 23.8603 190.386 22.5887V22.3128C190.386 21.0492 190.578 19.8816 190.962 18.81C191.354 17.7383 191.905 16.8026 192.617 16.0029C193.337 15.2031 194.189 14.5833 195.172 14.1435C196.164 13.6956 197.256 13.4717 198.447 13.4717C199.631 13.4717 200.719 13.6956 201.71 14.1435C202.702 14.5833 203.566 15.2031 204.301 16.0029C205.037 16.8026 205.605 17.7383 206.005 18.81C206.405 19.8816 206.605 21.0492 206.605 22.3128V22.5887C206.605 23.8603 206.405 25.0359 206.005 26.1156C205.605 27.1872 205.037 28.1229 204.301 28.9227C203.574 29.7224 202.714 30.3422 201.722 30.7821C200.731 31.2219 199.643 31.4419 198.459 31.4419ZM198.459 28.5028C199.395 28.5028 200.183 28.2549 200.823 27.7591C201.47 27.2632 201.958 26.5754 202.286 25.6957C202.614 24.808 202.778 23.7723 202.778 22.5887V22.2888C202.778 21.1292 202.61 20.1095 202.274 19.2298C201.946 18.3501 201.458 17.6623 200.811 17.1665C200.171 16.6707 199.383 16.4227 198.447 16.4227C197.488 16.4227 196.696 16.6707 196.072 17.1665C195.448 17.6543 194.984 18.3381 194.681 19.2178C194.377 20.0895 194.225 21.1132 194.225 22.2888V22.5887C194.225 23.7723 194.377 24.808 194.681 25.6957C194.992 26.5834 195.46 27.2752 196.084 27.7711C196.716 28.2589 197.508 28.5028 198.459 28.5028ZM207.876 31.1899V28.9227L209.724 28.5508V16.3748L207.876 16.0029V13.7236H209.724H216.274C217.641 13.7236 218.821 13.9635 219.812 14.4434C220.812 14.9152 221.58 15.579 222.116 16.4347C222.651 17.2825 222.919 18.2741 222.919 19.4098C222.919 20.5374 222.651 21.5251 222.116 22.3728C221.58 23.2205 220.812 23.8803 219.812 24.3522C218.821 24.824 217.641 25.0599 216.274 25.0599H213.562V28.5508L215.398 28.9227V31.1899H207.876ZM213.562 22.1089H216.274C217.201 22.1089 217.901 21.857 218.373 21.3531C218.845 20.8493 219.081 20.2095 219.081 19.4338C219.081 18.626 218.845 17.9622 218.373 17.4424C217.901 16.9226 217.201 16.6627 216.274 16.6627H213.562V22.1089ZM231.257 31.4419C229.905 31.4419 228.69 31.3019 227.61 31.022C226.53 30.7421 225.463 30.2383 224.407 29.5105V25.1319H227.37L227.742 27.5431C228.046 27.839 228.518 28.083 229.157 28.2749C229.797 28.4668 230.497 28.5628 231.257 28.5628C231.84 28.5628 232.332 28.4868 232.732 28.3349C233.132 28.1749 233.436 27.951 233.644 27.6631C233.852 27.3672 233.956 27.0193 233.956 26.6194C233.956 26.2355 233.86 25.8957 233.668 25.5998C233.484 25.2959 233.176 25.0159 232.744 24.76C232.312 24.5041 231.729 24.2522 230.993 24.0043C229.553 23.5644 228.366 23.1006 227.43 22.6127C226.502 22.1169 225.806 21.5331 225.343 20.8613C224.887 20.1815 224.659 19.3498 224.659 18.3661C224.659 17.4144 224.927 16.5787 225.463 15.8589C226.006 15.1312 226.75 14.5593 227.694 14.1435C228.638 13.7276 229.725 13.5117 230.957 13.4957C232.34 13.4637 233.564 13.6116 234.628 13.9395C235.691 14.2674 236.619 14.7393 237.411 15.3551V19.4218H234.556L234.076 17.0585C233.788 16.8906 233.388 16.7426 232.876 16.6147C232.372 16.4867 231.813 16.4227 231.197 16.4227C230.669 16.4227 230.201 16.4987 229.793 16.6507C229.393 16.7946 229.073 17.0145 228.833 17.3104C228.602 17.5984 228.486 17.9542 228.486 18.3781C228.486 18.722 228.586 19.0299 228.785 19.3018C228.985 19.5737 229.329 19.8376 229.817 20.0935C230.305 20.3415 230.981 20.6174 231.844 20.9213C233.796 21.4811 235.275 22.2009 236.283 23.0806C237.299 23.9603 237.807 25.1319 237.807 26.5954C237.807 27.6111 237.531 28.4828 236.979 29.2106C236.435 29.9304 235.671 30.4822 234.688 30.866C233.704 31.2499 232.56 31.4419 231.257 31.4419ZM239.762 25.0839V13.7236H243.601V25.0839H239.762ZM239.762 31.1899V27.939H243.601V31.1899H239.762Z" fill="#1B283D"/>
<path d="M177.358 30.7821L177.107 31.3428L177.109 31.3435L177.358 30.7821ZM173.136 26.1156L172.557 26.3214L172.559 26.3265L173.136 26.1156ZM173.136 18.81L172.559 18.599L172.557 18.6028L173.136 18.81ZM174.791 16.0029L174.334 15.592L174.332 15.5945L174.791 16.0029ZM177.346 14.1435L177.597 14.7042L177.599 14.7032L177.346 14.1435ZM183.884 14.1435L183.631 14.7033L183.635 14.7049L183.884 14.1435ZM188.179 26.1156L188.754 26.3303L188.755 26.3289L188.179 26.1156ZM186.475 28.9227L186.023 28.5068L186.021 28.5093L186.475 28.9227ZM183.896 30.7821L183.647 30.2206L183.896 30.7821ZM182.996 27.7591L182.623 27.2713L182.62 27.2736L182.996 27.7591ZM184.46 25.6957L185.035 25.9102L185.036 25.9085L184.46 25.6957ZM184.448 19.2298L183.872 19.4443L183.874 19.4489L184.448 19.2298ZM182.984 17.1665L182.608 17.652L182.611 17.6542L182.984 17.1665ZM178.246 17.1665L178.624 17.6503L178.628 17.6473L178.246 17.1665ZM176.854 19.2178L177.434 19.42L177.435 19.4184L176.854 19.2178ZM176.854 25.6957L176.273 25.8947L176.275 25.8993L176.854 25.6957ZM178.258 27.7711L177.876 28.2519L177.883 28.2572L178.258 27.7711ZM180.633 30.8277C179.519 30.8277 178.513 30.6224 177.607 30.2206L177.109 31.3435C178.187 31.8215 179.364 32.0561 180.633 32.0561V30.8277ZM177.609 30.2214C176.703 29.8165 175.922 29.2477 175.26 28.5118L174.346 29.3336C175.124 30.1972 176.046 30.868 177.107 31.3428L177.609 30.2214ZM175.26 28.5118C174.595 27.7739 174.079 26.9071 173.712 25.9047L172.559 26.3265C172.976 27.4674 173.571 28.472 174.346 29.3336L175.26 28.5118ZM173.714 25.9098C173.356 24.9031 173.174 23.7979 173.174 22.5887H171.946C171.946 23.9228 172.147 25.1688 172.557 26.3214L173.714 25.9098ZM173.174 22.5887V22.3128H171.946V22.5887H173.174ZM173.174 22.3128C173.174 21.1121 173.356 20.0154 173.714 19.0171L172.557 18.6028C172.147 19.7479 171.946 20.9864 171.946 22.3128H173.174ZM173.712 19.0209C174.079 18.0171 174.593 17.1494 175.25 16.4112L174.332 15.5945C173.566 16.4558 172.975 17.4596 172.559 18.599L173.712 19.0209ZM175.248 16.4138C175.91 15.6779 176.691 15.1091 177.597 14.7042L177.095 13.5828C176.034 14.0576 175.112 14.7284 174.334 15.592L175.248 16.4138ZM177.599 14.7032C178.504 14.2946 179.508 14.0859 180.621 14.0859V12.8575C179.351 12.8575 178.172 13.0967 177.093 13.5837L177.599 14.7032ZM180.621 14.0859C181.725 14.0859 182.726 14.2943 183.631 14.7032L184.137 13.5837C183.059 13.0969 181.884 12.8575 180.621 12.8575V14.0859ZM183.635 14.7049C184.55 15.1106 185.344 15.6808 186.023 16.4187L186.927 15.587C186.135 14.7255 185.202 14.0561 184.133 13.582L183.635 14.7049ZM186.023 16.4187C186.702 17.157 187.23 18.0234 187.603 19.0247L188.754 18.5952C188.328 17.4532 187.72 16.4482 186.927 15.587L186.023 16.4187ZM187.603 19.0247C187.975 20.0208 188.164 21.1149 188.164 22.3128H189.393C189.393 20.9836 189.182 19.7424 188.754 18.5952L187.603 19.0247ZM188.164 22.3128V22.5887H189.393V22.3128H188.164ZM188.164 22.5887C188.164 23.7951 187.975 24.8977 187.603 25.9023L188.755 26.3289C189.182 25.1742 189.393 23.9255 189.393 22.5887H188.164ZM187.603 25.9009C187.23 26.9021 186.702 27.7686 186.023 28.5068L186.927 29.3385C187.72 28.4773 188.328 27.4724 188.754 26.3303L187.603 25.9009ZM186.021 28.5093C185.351 29.2458 184.561 29.8152 183.647 30.2206L184.145 31.3435C185.214 30.8692 186.144 30.1991 186.929 29.3361L186.021 28.5093ZM183.647 30.2206C182.741 30.6226 181.739 30.8277 180.633 30.8277V32.0561C181.895 32.0561 183.068 31.8212 184.145 31.3435L183.647 30.2206ZM180.633 29.117C181.683 29.117 182.609 28.8365 183.373 28.2445L182.62 27.2736C182.104 27.6733 181.455 27.8886 180.633 27.8886V29.117ZM183.37 28.2468C184.122 27.6706 184.673 26.8815 185.035 25.9102L183.884 25.4812C183.591 26.2693 183.166 26.8558 182.623 27.2713L183.37 28.2468ZM185.036 25.9085C185.395 24.938 185.566 23.8275 185.566 22.5887H184.338C184.338 23.7172 184.181 24.678 183.884 25.4829L185.036 25.9085ZM185.566 22.5887V22.2888H184.338V22.5887H185.566ZM185.566 22.2888C185.566 21.0711 185.39 19.9745 185.022 19.0107L183.874 19.4489C184.178 20.2446 184.338 21.1873 184.338 22.2888H185.566ZM185.023 19.0153C184.661 18.044 184.11 17.2549 183.358 16.6788L182.611 17.6542C183.154 18.0697 183.579 18.6562 183.872 19.4443L185.023 19.0153ZM183.361 16.681C182.597 16.0891 181.671 15.8085 180.621 15.8085V17.0369C181.443 17.0369 182.092 17.2522 182.608 17.652L183.361 16.681ZM180.621 15.8085C179.552 15.8085 178.617 16.0868 177.864 16.6857L178.628 17.6473C179.122 17.2545 179.771 17.0369 180.621 17.0369V15.8085ZM177.868 16.6827C177.135 17.2555 176.609 18.0456 176.274 19.0173L177.435 19.4184C177.707 18.6306 178.109 18.0532 178.624 17.6503L177.868 16.6827ZM176.274 19.0156C175.943 19.9674 175.784 21.0623 175.784 22.2888H177.013C177.013 21.1641 177.158 20.2117 177.434 19.42L176.274 19.0156ZM175.784 22.2888V22.5887H177.013V22.2888H175.784ZM175.784 22.5887C175.784 23.8231 175.943 24.9287 176.273 25.8947L177.435 25.4968C177.158 24.6874 177.013 23.7216 177.013 22.5887H175.784ZM176.275 25.8993C176.618 26.8762 177.146 27.6719 177.876 28.2519L178.64 27.2902C178.122 26.8785 177.714 26.2907 177.434 25.4921L176.275 25.8993ZM177.883 28.2572C178.641 28.8432 179.573 29.117 180.633 29.117V27.8886C179.79 27.8886 179.138 27.6746 178.633 27.2849L177.883 28.2572ZM195.184 30.7821L194.934 31.3428L194.935 31.3435L195.184 30.7821ZM190.962 26.1156L190.383 26.3214L190.385 26.3265L190.962 26.1156ZM190.962 18.81L190.385 18.599L190.384 18.6028L190.962 18.81ZM192.617 16.0029L192.161 15.592L192.158 15.5945L192.617 16.0029ZM195.172 14.1435L195.423 14.7042L195.425 14.7032L195.172 14.1435ZM201.71 14.1435L201.457 14.7033L201.461 14.7049L201.71 14.1435ZM206.005 26.1156L206.58 26.3303L206.581 26.3289L206.005 26.1156ZM204.301 28.9227L203.849 28.5068L203.847 28.5093L204.301 28.9227ZM201.722 30.7821L201.473 30.2206L201.722 30.7821ZM200.823 27.7591L200.449 27.2713L200.446 27.2736L200.823 27.7591ZM202.286 25.6957L202.862 25.9102L202.862 25.9085L202.286 25.6957ZM202.274 19.2298L201.699 19.4443L201.7 19.4489L202.274 19.2298ZM200.811 17.1665L200.434 17.652L200.437 17.6542L200.811 17.1665ZM196.072 17.1665L196.45 17.6503L196.454 17.6473L196.072 17.1665ZM194.681 19.2178L195.261 19.42L195.261 19.4184L194.681 19.2178ZM194.681 25.6957L194.099 25.8947L194.101 25.8993L194.681 25.6957ZM196.084 27.7711L195.702 28.2519L195.709 28.2572L196.084 27.7711ZM198.459 30.8277C197.345 30.8277 196.339 30.6224 195.433 30.2206L194.935 31.3435C196.013 31.8215 197.19 32.0561 198.459 32.0561V30.8277ZM195.435 30.2214C194.53 29.8165 193.748 29.2477 193.086 28.5118L192.173 29.3336C192.95 30.1972 193.872 30.868 194.934 31.3428L195.435 30.2214ZM193.086 28.5118C192.422 27.7739 191.905 26.9071 191.539 25.9047L190.385 26.3265C190.802 27.4674 191.397 28.472 192.173 29.3336L193.086 28.5118ZM191.54 25.9098C191.183 24.9031 191 23.7979 191 22.5887H189.772C189.772 23.9228 189.973 25.1688 190.383 26.3214L191.54 25.9098ZM191 22.5887V22.3128H189.772V22.5887H191ZM191 22.3128C191 21.1121 191.182 20.0154 191.54 19.0171L190.384 18.6028C189.973 19.7479 189.772 20.9864 189.772 22.3128H191ZM191.539 19.0209C191.906 18.0171 192.419 17.1494 193.076 16.4112L192.158 15.5945C191.392 16.4558 190.802 17.4596 190.385 18.599L191.539 19.0209ZM193.074 16.4138C193.736 15.6779 194.518 15.1091 195.423 14.7042L194.922 13.5828C193.86 14.0576 192.938 14.7284 192.161 15.592L193.074 16.4138ZM195.425 14.7032C196.33 14.2946 197.335 14.0859 198.447 14.0859V12.8575C197.177 12.8575 195.998 13.0967 194.92 13.5837L195.425 14.7032ZM198.447 14.0859C199.552 14.0859 200.552 14.2943 201.457 14.7032L201.963 13.5837C200.885 13.0969 199.71 12.8575 198.447 12.8575V14.0859ZM201.461 14.7049C202.376 15.1106 203.171 15.6808 203.849 16.4187L204.753 15.587C203.961 14.7255 203.028 14.0561 201.959 13.582L201.461 14.7049ZM203.849 16.4187C204.529 17.157 205.056 18.0234 205.429 19.0247L206.58 18.5952C206.154 17.4532 205.546 16.4482 204.753 15.587L203.849 16.4187ZM205.429 19.0247C205.801 20.0208 205.99 21.1149 205.99 22.3128H207.219C207.219 20.9836 207.008 19.7424 206.58 18.5952L205.429 19.0247ZM205.99 22.3128V22.5887H207.219V22.3128H205.99ZM205.99 22.5887C205.99 23.7951 205.801 24.8977 205.429 25.9023L206.581 26.3289C207.009 25.1742 207.219 23.9255 207.219 22.5887H205.99ZM205.429 25.9009C205.056 26.9021 204.529 27.7686 203.849 28.5068L204.753 29.3385C205.546 28.4773 206.154 27.4724 206.58 26.3303L205.429 25.9009ZM203.847 28.5093C203.177 29.2458 202.387 29.8152 201.473 30.2206L201.971 31.3435C203.041 30.8692 203.97 30.1991 204.756 29.3361L203.847 28.5093ZM201.473 30.2206C200.567 30.6226 199.565 30.8277 198.459 30.8277V32.0561C199.721 32.0561 200.894 31.8212 201.971 31.3435L201.473 30.2206ZM198.459 29.117C199.509 29.117 200.435 28.8365 201.199 28.2445L200.446 27.2736C199.931 27.6733 199.281 27.8886 198.459 27.8886V29.117ZM201.196 28.2468C201.949 27.6706 202.5 26.8815 202.862 25.9102L201.711 25.4812C201.417 26.2693 200.992 26.8558 200.449 27.2713L201.196 28.2468ZM202.862 25.9085C203.221 24.938 203.392 23.8275 203.392 22.5887H202.164C202.164 23.7172 202.007 24.678 201.71 25.4829L202.862 25.9085ZM203.392 22.5887V22.2888H202.164V22.5887H203.392ZM203.392 22.2888C203.392 21.0711 203.216 19.9745 202.848 19.0107L201.7 19.4489C202.004 20.2446 202.164 21.1873 202.164 22.2888H203.392ZM202.85 19.0153C202.488 18.044 201.937 17.2549 201.184 16.6788L200.437 17.6542C200.98 18.0697 201.405 18.6562 201.699 19.4443L202.85 19.0153ZM201.187 16.681C200.423 16.0891 199.497 15.8085 198.447 15.8085V17.0369C199.269 17.0369 199.919 17.2522 200.434 17.652L201.187 16.681ZM198.447 15.8085C197.378 15.8085 196.443 16.0868 195.69 16.6857L196.454 17.6473C196.948 17.2545 197.597 17.0369 198.447 17.0369V15.8085ZM195.694 16.6827C194.961 17.2555 194.436 18.0456 194.1 19.0173L195.261 19.4184C195.533 18.6306 195.935 18.0532 196.45 17.6503L195.694 16.6827ZM194.101 19.0156C193.769 19.9674 193.611 21.0623 193.611 22.2888H194.839C194.839 21.1641 194.985 20.2117 195.261 19.42L194.101 19.0156ZM193.611 22.2888V22.5887H194.839V22.2888H193.611ZM193.611 22.5887C193.611 23.8231 193.769 24.9287 194.099 25.8947L195.262 25.4968C194.985 24.6874 194.839 23.7216 194.839 22.5887H193.611ZM194.101 25.8993C194.444 26.8762 194.972 27.6719 195.702 28.2519L196.466 27.2902C195.948 26.8785 195.541 26.2907 195.26 25.4921L194.101 25.8993ZM195.709 28.2572C196.468 28.8432 197.399 29.117 198.459 29.117V27.8886C197.616 27.8886 196.964 27.6746 196.459 27.2849L195.709 28.2572ZM207.876 31.1899H207.262V31.8041H207.876V31.1899ZM207.876 28.9227L207.755 28.3206L207.262 28.4198V28.9227H207.876ZM209.724 28.5508L209.845 29.1529L210.338 29.0537V28.5508H209.724ZM209.724 16.3748H210.338V15.8719L209.845 15.7726L209.724 16.3748ZM207.876 16.0029H207.262V16.5058L207.755 16.605L207.876 16.0029ZM207.876 13.7236V13.1094H207.262V13.7236H207.876ZM219.812 14.4434L219.545 14.9963L219.55 14.9988L219.812 14.4434ZM222.116 16.4347L221.595 16.7607L221.596 16.7629L222.116 16.4347ZM219.812 24.3522L219.55 23.7967L219.549 23.7975L219.812 24.3522ZM213.562 25.0599V24.4457H212.948V25.0599H213.562ZM213.562 28.5508H212.948V29.053L213.44 29.1528L213.562 28.5508ZM215.398 28.9227H216.012V28.4204L215.52 28.3207L215.398 28.9227ZM215.398 31.1899V31.8041H216.012V31.1899H215.398ZM213.562 22.1089H212.948V22.7231H213.562V22.1089ZM213.562 16.6627V16.0485H212.948V16.6627H213.562ZM208.49 31.1899V28.9227H207.262V31.1899H208.49ZM207.997 29.5248L209.845 29.1529L209.602 27.9487L207.755 28.3206L207.997 29.5248ZM210.338 28.5508V16.3748H209.109V28.5508H210.338ZM209.845 15.7726L207.997 15.4007L207.755 16.605L209.602 16.9769L209.845 15.7726ZM208.49 16.0029V13.7236H207.262V16.0029H208.49ZM207.876 14.3378H209.724V13.1094H207.876V14.3378ZM209.724 14.3378H216.274V13.1094H209.724V14.3378ZM216.274 14.3378C217.57 14.3378 218.654 14.5653 219.545 14.9963L220.08 13.8905C218.987 13.3618 217.712 13.1094 216.274 13.1094V14.3378ZM219.55 14.9988C220.454 15.4254 221.128 16.014 221.595 16.7607L222.636 16.1088C222.032 15.144 221.17 14.405 220.075 13.8879L219.55 14.9988ZM221.596 16.7629C222.062 17.4999 222.305 18.3745 222.305 19.4098H223.534C223.534 18.1738 223.241 17.065 222.635 16.1066L221.596 16.7629ZM222.305 19.4098C222.305 20.4361 222.063 21.307 221.596 22.0446L222.635 22.701C223.24 21.7432 223.534 20.6387 223.534 19.4098H222.305ZM221.596 22.0446C221.129 22.7838 220.456 23.3694 219.55 23.7967L220.075 24.9076C221.169 24.3912 222.03 23.6573 222.635 22.701L221.596 22.0446ZM219.549 23.7975C218.657 24.2218 217.572 24.4457 216.274 24.4457V25.6741C217.711 25.6741 218.985 25.4263 220.076 24.9068L219.549 23.7975ZM216.274 24.4457H213.562V25.6741H216.274V24.4457ZM212.948 25.0599V28.5508H214.177V25.0599H212.948ZM213.44 29.1528L215.276 29.5246L215.52 28.3207L213.684 27.9488L213.44 29.1528ZM214.784 28.9227V31.1899H216.012V28.9227H214.784ZM215.398 30.5757H207.876V31.8041H215.398V30.5757ZM213.562 22.7231H216.274V21.4947H213.562V22.7231ZM216.274 22.7231C217.31 22.7231 218.197 22.4391 218.821 21.773L217.925 20.9333C217.605 21.2748 217.092 21.4947 216.274 21.4947V22.7231ZM218.821 21.773C219.413 21.141 219.695 20.3446 219.695 19.4338H218.466C218.466 20.0744 218.276 20.5576 217.925 20.9333L218.821 21.773ZM219.695 19.4338C219.695 18.4979 219.417 17.6794 218.828 17.0296L217.918 17.8552C218.272 18.2451 218.466 18.7541 218.466 19.4338H219.695ZM218.828 17.0296C218.205 16.3437 217.316 16.0485 216.274 16.0485V17.2769C217.087 17.2769 217.597 17.5014 217.918 17.8552L218.828 17.0296ZM216.274 16.0485H213.562V17.2769H216.274V16.0485ZM212.948 16.6627V22.1089H214.177V16.6627H212.948ZM224.407 29.5105H223.793V29.8331L224.058 30.0162L224.407 29.5105ZM224.407 25.1319V24.5177H223.793V25.1319H224.407ZM227.37 25.1319L227.977 25.0383L227.897 24.5177H227.37V25.1319ZM227.742 27.5431L227.135 27.6367L227.166 27.8398L227.313 27.9832L227.742 27.5431ZM229.157 28.2749L228.981 28.8632L229.157 28.2749ZM232.732 28.3349L232.95 28.9091L232.96 28.9051L232.732 28.3349ZM233.644 27.6631L234.142 28.0227L234.146 28.0162L233.644 27.6631ZM233.668 25.5998L233.142 25.9178L233.147 25.926L233.153 25.934L233.668 25.5998ZM230.993 24.0043L231.189 23.4222L231.181 23.4194L231.172 23.4169L230.993 24.0043ZM227.43 22.6127L227.14 23.1544L227.146 23.1574L227.43 22.6127ZM225.343 20.8613L224.832 21.2034L224.837 21.2103L225.343 20.8613ZM225.463 15.8589L224.971 15.4913L224.97 15.4922L225.463 15.8589ZM230.957 13.4957L230.965 14.1099L230.971 14.1097L230.957 13.4957ZM234.628 13.9395L234.447 14.5265L234.628 13.9395ZM237.411 15.3551H238.025V15.0547L237.788 14.8703L237.411 15.3551ZM237.411 19.4218V20.036H238.025V19.4218H237.411ZM234.556 19.4218L233.954 19.544L234.054 20.036H234.556V19.4218ZM234.076 17.0585L234.678 16.9363L234.623 16.6666L234.385 16.528L234.076 17.0585ZM232.876 16.6147L232.725 17.21L232.727 17.2105L232.876 16.6147ZM229.793 16.6507L230.001 17.2286L230.008 17.2262L229.793 16.6507ZM228.833 17.3104L228.356 16.9236L228.355 16.9251L228.833 17.3104ZM229.817 20.0935L229.532 20.6375L229.539 20.6411L229.817 20.0935ZM231.844 20.9213L231.641 21.5007L231.658 21.5067L231.675 21.5117L231.844 20.9213ZM236.283 23.0806L235.879 23.5433L235.881 23.5448L236.283 23.0806ZM236.979 29.2106L236.489 28.8395L236.489 28.8403L236.979 29.2106ZM231.257 30.8277C229.947 30.8277 228.784 30.6919 227.764 30.4275L227.456 31.6165C228.595 31.9119 229.864 32.0561 231.257 32.0561V30.8277ZM227.764 30.4275C226.763 30.168 225.761 29.6978 224.756 29.0048L224.058 30.0162C225.164 30.7787 226.297 31.3161 227.456 31.6165L227.764 30.4275ZM225.021 29.5105V25.1319H223.793V29.5105H225.021ZM224.407 25.7461H227.37V24.5177H224.407V25.7461ZM226.763 25.2255L227.135 27.6367L228.349 27.4495L227.977 25.0383L226.763 25.2255ZM227.313 27.9832C227.717 28.3766 228.295 28.6575 228.981 28.8632L229.334 27.6866C228.74 27.5084 228.374 27.3015 228.17 27.1031L227.313 27.9832ZM228.981 28.8632C229.685 29.0745 230.445 29.177 231.257 29.177V27.9486C230.549 27.9486 229.909 27.8592 229.334 27.6866L228.981 28.8632ZM231.257 29.177C231.89 29.177 232.46 29.0952 232.95 28.909L232.514 27.7607C232.204 27.8785 231.791 27.9486 231.257 27.9486V29.177ZM232.96 28.9051C233.445 28.7112 233.852 28.4233 234.142 28.0227L233.146 27.3035C233.019 27.4787 232.819 27.6386 232.504 27.7646L232.96 28.9051ZM234.146 28.0162C234.435 27.606 234.57 27.1317 234.57 26.6194H233.342C233.342 26.9069 233.269 27.1283 233.141 27.31L234.146 28.0162ZM234.57 26.6194C234.57 26.1278 234.445 25.6697 234.183 25.2655L233.153 25.934C233.274 26.1216 233.342 26.3433 233.342 26.6194H234.57ZM234.193 25.2817C233.94 24.8629 233.542 24.5191 233.057 24.2316L232.431 25.2884C232.81 25.5128 233.028 25.7288 233.142 25.9178L234.193 25.2817ZM233.057 24.2316C232.574 23.9453 231.946 23.6773 231.189 23.4222L230.797 24.5863C231.511 24.8271 232.051 25.0629 232.431 25.2884L233.057 24.2316ZM231.172 23.4169C229.755 22.9838 228.605 22.5329 227.714 22.0681L227.146 23.1574C228.126 23.6682 229.352 24.145 230.813 24.5917L231.172 23.4169ZM227.719 22.071C226.854 21.6084 226.243 21.0837 225.848 20.5123L224.837 21.2103C225.37 21.9824 226.151 22.6253 227.14 23.1544L227.719 22.071ZM225.853 20.5192C225.477 19.9595 225.273 19.2529 225.273 18.3661H224.045C224.045 19.4467 224.296 20.4035 224.832 21.2034L225.853 20.5192ZM225.273 18.3661C225.273 17.538 225.503 16.8328 225.955 16.2257L224.97 15.4922C224.35 16.3246 224.045 17.2908 224.045 18.3661H225.273ZM225.955 16.2266C226.427 15.5945 227.081 15.0846 227.942 14.7055L227.446 13.5814C226.419 14.0341 225.586 14.6678 224.971 15.4913L225.955 16.2266ZM227.942 14.7055C228.796 14.3288 229.8 14.125 230.965 14.1098L230.949 12.8815C229.65 12.8984 228.479 13.1264 227.446 13.5814L227.942 14.7055ZM230.971 14.1097C232.304 14.0789 233.459 14.2221 234.447 14.5265L234.809 13.3526C233.668 13.0012 232.377 12.8485 230.943 12.8816L230.971 14.1097ZM234.447 14.5265C235.447 14.8349 236.307 15.2745 237.034 15.8399L237.788 14.8703C236.931 14.2041 235.935 13.7 234.809 13.3526L234.447 14.5265ZM236.796 15.3551V19.4218H238.025V15.3551H236.796ZM237.411 18.8076H234.556V20.036H237.411V18.8076ZM235.158 19.2995L234.678 16.9363L233.474 17.1807L233.954 19.544L235.158 19.2995ZM234.385 16.528C234.027 16.3189 233.565 16.1537 233.025 16.0188L232.727 17.2105C233.211 17.3316 233.549 17.4623 233.766 17.5891L234.385 16.528ZM233.027 16.0194C232.466 15.8768 231.854 15.8085 231.197 15.8085V17.0369C231.771 17.0369 232.279 17.0966 232.725 17.21L233.027 16.0194ZM231.197 15.8085C230.611 15.8085 230.068 15.8928 229.579 16.0751L230.008 17.2262C230.334 17.1046 230.727 17.0369 231.197 17.0369V15.8085ZM229.585 16.0728C229.092 16.2502 228.675 16.5309 228.356 16.9236L229.311 17.6973C229.472 17.4982 229.694 17.3391 230.001 17.2286L229.585 16.0728ZM228.355 16.9251C228.023 17.3379 227.871 17.8357 227.871 18.3781H229.1C229.1 18.0728 229.18 17.8588 229.312 17.6958L228.355 16.9251ZM227.871 18.3781C227.871 18.8502 228.012 19.2861 228.291 19.6656L229.28 18.938C229.159 18.7736 229.1 18.5937 229.1 18.3781H227.871ZM228.291 19.6656C228.57 20.0457 229.008 20.3624 229.532 20.6374L230.102 19.5496C229.651 19.3129 229.401 19.1017 229.28 18.938L228.291 19.6656ZM229.539 20.6411C230.061 20.9067 230.766 21.1929 231.641 21.5007L232.048 20.3419C231.196 20.0419 230.549 19.7763 230.095 19.546L229.539 20.6411ZM231.675 21.5117C233.581 22.0583 234.965 22.7455 235.879 23.5433L236.687 22.6179C235.585 21.6563 234.011 20.9039 232.014 20.3309L231.675 21.5117ZM235.881 23.5448C236.749 24.2966 237.192 25.2922 237.192 26.5954H238.421C238.421 24.9716 237.849 23.6239 236.685 22.6163L235.881 23.5448ZM237.192 26.5954C237.192 27.4929 236.951 28.2305 236.489 28.8395L237.468 29.5817C238.11 28.7352 238.421 27.7293 238.421 26.5954H237.192ZM236.489 28.8403C236.024 29.4549 235.36 29.9442 234.464 30.2939L234.911 31.4382C235.982 31.0202 236.846 30.4058 237.469 29.5808L236.489 28.8403ZM234.464 30.2939C233.566 30.6443 232.501 30.8277 231.257 30.8277V32.0561C232.619 32.0561 233.841 31.8555 234.911 31.4382L234.464 30.2939ZM239.762 25.0839H239.148V25.6981H239.762V25.0839ZM239.762 13.7236V13.1094H239.148V13.7236H239.762ZM243.601 13.7236H244.215V13.1094H243.601V13.7236ZM243.601 25.0839V25.6981H244.215V25.0839H243.601ZM239.762 31.1899H239.148V31.8041H239.762V31.1899ZM239.762 27.939V27.3248H239.148V27.939H239.762ZM243.601 27.939H244.215V27.3248H243.601V27.939ZM243.601 31.1899V31.8041H244.215V31.1899H243.601ZM240.376 25.0839V13.7236H239.148V25.0839H240.376ZM239.762 14.3378H243.601V13.1094H239.762V14.3378ZM242.986 13.7236V25.0839H244.215V13.7236H242.986ZM243.601 24.4697H239.762V25.6981H243.601V24.4697ZM240.376 31.1899V27.939H239.148V31.1899H240.376ZM239.762 28.5532H243.601V27.3248H239.762V28.5532ZM242.986 27.939V31.1899H244.215V27.939H242.986ZM243.601 30.5757H239.762V31.8041H243.601V30.5757Z" fill="#1B283D"/>
<rect x="156.927" y="0.921301" width="102.729" height="40.5372" stroke="#2B0307" stroke-width="1.8426"/>
<path d="M133.29 117.191C101.132 104.22 82.0211 103.837 46.5372 117.182C46.4032 117.232 46.3929 117.422 46.5199 117.488C85.0668 137.535 103.781 135.854 133.316 117.489C133.431 117.417 133.416 117.241 133.29 117.191Z" fill="#A8A8A9" stroke="#2B0307" stroke-width="1.2284"/>
<path d="M45.9157 117.018C82.1666 128.155 101.078 128.378 131.716 117.012C131.728 117.008 131.741 117.005 131.754 117.003C137.297 116.339 140.558 121.168 146.259 126.485C146.287 126.511 146.306 126.547 146.31 126.586C149.558 151.952 147.243 167.356 135.144 196.851C134.502 198.222 133.876 199.552 133.261 200.844C123.97 220.356 117.217 231.157 98.2749 239.838C98.2639 239.843 98.2517 239.847 98.2398 239.849C78.4322 244.055 67.78 238.575 49.9034 210.364C48.326 206.989 46.9015 203.833 45.6138 200.844C37.4841 181.971 34.8026 169.724 33.4752 150.786L12.1813 181.667C12.1293 181.742 12.0261 181.761 11.9508 181.709L5.09174 176.982C5.01745 176.931 4.99775 176.83 5.04743 176.754L32.5051 135.124C32.7321 124.671 35.9105 119.153 45.8309 117.015C45.8586 117.009 45.8887 117.01 45.9157 117.018Z" fill="#EBECF0"/>
<path d="M14.4193 186.134L6.07377 187.906C5.97547 187.927 5.9182 188.03 5.95221 188.124L15.4393 214.503C15.4709 214.591 15.5684 214.636 15.6552 214.602L22.4815 211.955C22.5629 211.924 22.6058 211.835 22.5798 211.751L14.612 186.247C14.5864 186.165 14.503 186.116 14.4193 186.134Z" fill="#EBECF0"/>
<path d="M155.291 145.679V135.274C155.291 135.189 155.356 135.118 155.441 135.109L176.835 132.99C176.922 132.981 177 133.041 177.015 133.127L178.511 142.023C178.526 142.113 178.465 142.199 178.374 142.214L155.483 145.842C155.382 145.858 155.291 145.781 155.291 145.679Z" fill="#EBECF0"/>
<path d="M190.794 132.875L184.876 128.771C184.8 128.718 184.782 128.614 184.835 128.539L206.445 98.0822C206.538 97.9504 206.746 98.0166 206.746 98.1781V107.438C206.746 107.469 206.737 107.499 206.721 107.525L191.029 132.826C190.979 132.907 190.872 132.929 190.794 132.875Z" fill="#EBECF0"/>
<path d="M212.235 87.9521L208.052 93.5767C208.012 93.6305 208.008 93.7033 208.043 93.7609L214.55 104.603C214.632 104.74 214.84 104.694 214.857 104.535L216.344 90.3919C216.35 90.3282 216.32 90.2664 216.265 90.233L212.454 87.9095C212.381 87.8649 212.286 87.8834 212.235 87.9521Z" fill="#EBECF0"/>
<path d="M25.634 217.156L15.6023 221.071C15.5387 221.096 15.4968 221.157 15.4968 221.226V229.936C15.4968 229.988 15.5213 230.037 15.5629 230.068L23.1063 235.748C23.1822 235.805 23.2905 235.787 23.3436 235.708L25.668 232.254C25.7033 232.201 25.7057 232.133 25.674 232.078L23.3501 228.049C23.2969 227.957 23.3434 227.839 23.4454 227.808L27.0874 226.698C27.1857 226.668 27.2873 226.733 27.3002 226.835L27.8772 231.409C27.8876 231.492 27.9581 231.554 28.0416 231.554H33.2789C33.3814 231.554 33.4593 231.462 33.4423 231.361L31.9351 222.401C31.9286 222.362 31.9085 222.327 31.8784 222.302L25.801 217.183C25.7546 217.144 25.6905 217.134 25.634 217.156Z" fill="#EBECF0"/>
<path d="M33.4752 150.786C32.8245 144.643 32.411 139.459 32.5051 135.124M33.4752 150.786L12.1813 181.667C12.1293 181.742 12.0261 181.761 11.9508 181.709L5.09174 176.982C5.01745 176.931 4.99775 176.83 5.04743 176.754L32.5051 135.124M33.4752 150.786C34.8026 169.724 37.4841 181.971 45.6138 200.844M32.5051 135.124C32.7321 124.671 35.9105 119.153 45.8309 117.015C45.8586 117.009 45.8887 117.01 45.9157 117.018C82.1666 128.155 101.078 128.378 131.716 117.012C131.728 117.008 131.741 117.005 131.754 117.003C137.297 116.339 140.558 121.168 146.259 126.485C146.287 126.511 146.306 126.547 146.31 126.586C149.558 151.952 147.243 167.356 135.144 196.851C134.502 198.222 133.876 199.552 133.261 200.844M45.6138 200.844C46.9015 203.833 48.326 206.989 49.9034 210.364C67.78 238.575 78.4322 244.055 98.2398 239.849C98.2517 239.847 98.2639 239.843 98.2749 239.838C117.217 231.157 123.97 220.356 133.261 200.844M45.6138 200.844C81.3996 212.17 100.443 211.853 133.261 200.844M15.5629 230.068L23.1063 235.748C23.1822 235.805 23.2905 235.787 23.3436 235.708L25.668 232.254C25.7033 232.201 25.7057 232.133 25.674 232.078L23.3501 228.049C23.2969 227.957 23.3434 227.839 23.4454 227.808L27.0874 226.698C27.1857 226.668 27.2873 226.733 27.3002 226.835L27.8772 231.409C27.8876 231.492 27.9581 231.554 28.0416 231.554H33.2789C33.3814 231.554 33.4593 231.462 33.4423 231.36L31.9351 222.401C31.9286 222.362 31.9085 222.327 31.8784 222.302L25.801 217.183C25.7546 217.144 25.6905 217.134 25.634 217.156L15.6023 221.071C15.5387 221.096 15.4968 221.157 15.4968 221.226V229.936C15.4968 229.988 15.5213 230.037 15.5629 230.068ZM208.052 93.5767L212.235 87.9521C212.286 87.8834 212.381 87.8649 212.454 87.9095L216.265 90.233C216.32 90.2664 216.35 90.3282 216.344 90.3919L214.857 104.535C214.84 104.694 214.632 104.74 214.55 104.603L208.043 93.7609C208.008 93.7033 208.012 93.6305 208.052 93.5767ZM206.746 98.1781V107.438C206.746 107.469 206.737 107.499 206.721 107.525L191.029 132.826C190.979 132.907 190.872 132.929 190.794 132.875L184.876 128.771C184.8 128.718 184.782 128.614 184.835 128.539L206.445 98.0822C206.538 97.9504 206.746 98.0166 206.746 98.1781ZM177.015 133.127L178.511 142.023C178.526 142.113 178.465 142.199 178.374 142.214L155.483 145.842C155.382 145.858 155.291 145.781 155.291 145.679V135.274C155.291 135.189 155.356 135.118 155.441 135.109L176.835 132.99C176.922 132.981 177 133.041 177.015 133.127ZM6.07377 187.906L14.4193 186.134C14.503 186.116 14.5864 186.165 14.612 186.247L22.5798 211.751C22.6058 211.835 22.5629 211.924 22.4815 211.955L15.6552 214.602C15.5684 214.636 15.4709 214.591 15.4393 214.503L5.95221 188.124C5.9182 188.03 5.97547 187.927 6.07377 187.906Z" stroke="#2B0307" stroke-width="1.2284"/>
<path d="M131.891 201.836C102.224 212.143 83.6505 212.841 46.8702 201.799C46.6635 201.737 46.4756 201.952 46.5707 202.146C51.3023 211.791 54.4848 216.54 60.429 224.271C66.169 231.431 69.8091 234.533 77.3826 238.729C77.4001 238.739 77.4196 238.747 77.439 238.752C83.385 240.347 86.6914 240.668 92.5169 240.229C97.0348 239.798 99.7885 238.944 105.502 235.28C111.21 231.751 114.05 229.228 118.737 224.147C124.61 216.98 127.461 211.725 132.2 202.181C132.298 201.982 132.101 201.763 131.891 201.836Z" fill="#D9D9D9" stroke="#2B0307" stroke-width="0.494806"/>
<path d="M34.7724 159.119L32.6434 126.274C32.6344 126.135 32.4668 126.07 32.3638 126.163C27.4597 130.622 23.8591 132.644 24.2519 140.976C25.6176 153.813 28.5951 156.381 34.5333 159.277C34.6474 159.333 34.7806 159.245 34.7724 159.119Z" fill="#00B8C4" stroke="#2B0307" stroke-width="1.2284"/>
<path d="M147.31 159.109L147.229 126.197C147.228 126.058 147.391 125.981 147.5 126.068C152.693 130.194 156.421 131.973 156.589 140.314C156.088 153.212 153.289 155.971 147.559 159.252C147.449 159.315 147.31 159.236 147.31 159.109Z" fill="#00B8C4" stroke="#2B0307" stroke-width="1.2284"/>
<path d="M19.2236 180.882C19.2236 185.965 15.0631 190.095 9.9189 190.095C4.77467 190.095 0.614201 185.965 0.614201 180.882C0.614201 175.799 4.77467 171.669 9.9189 171.669C15.0631 171.669 19.2236 175.799 19.2236 180.882Z" fill="#00B8C4" stroke="#2B0307" stroke-width="1.2284"/>
<path d="M192.185 135.738C192.185 140.821 188.024 144.951 182.88 144.951C177.736 144.951 173.575 140.821 173.575 135.738C173.575 130.656 177.736 126.525 182.88 126.525C188.024 126.525 192.185 130.656 192.185 135.738Z" fill="#00B8C4" stroke="#2B0307" stroke-width="1.2284"/>
<rect x="0.801784" y="0.341298" width="9.29688" height="2.6546" transform="matrix(0.928762 -0.370678 0.376649 0.926356 14.1854 216.737)" fill="#00B8C4" stroke="#2B0307" stroke-width="1.2284"/>
<rect x="54.5478" y="163.378" width="66.964" height="20.2686" fill="#2B0307"/>
<path d="M78.9348 179.012V177.651L80.0504 177.428V176.485H75.8974L75.7678 175.384L80.0432 168.532H82.3465V175.003H83.4477V176.485H82.3465V177.428L83.4405 177.651V179.012H78.9348ZM77.8623 175.003H80.0504V171.562L80.0072 171.548L79.8201 171.821L77.8623 175.003ZM88.0758 179.163C86.9626 179.163 86.0797 178.803 85.4271 178.083C84.7793 177.364 84.4554 176.306 84.4554 174.909V172.642C84.4554 171.246 84.7793 170.188 85.4271 169.468C86.0749 168.743 86.953 168.381 88.0614 168.381C89.1603 168.381 90.036 168.743 90.6886 169.468C91.3411 170.188 91.6674 171.246 91.6674 172.642V174.909C91.6674 176.31 91.3435 177.371 90.6958 178.091C90.048 178.806 89.1746 179.163 88.0758 179.163ZM88.0758 177.407C88.4981 177.407 88.8196 177.224 89.0403 176.86C89.2658 176.495 89.3786 175.902 89.3786 175.082V172.455C89.3786 171.644 89.2634 171.056 89.0331 170.691C88.8076 170.327 88.4837 170.144 88.0614 170.144C87.6295 170.144 87.3009 170.327 87.0753 170.691C86.8546 171.051 86.7442 171.639 86.7442 172.455V175.082C86.7442 175.907 86.857 176.502 87.0825 176.867C87.3081 177.227 87.6391 177.407 88.0758 177.407ZM96.2667 179.163C95.5902 179.163 94.9712 179.045 94.4097 178.81C93.8483 178.57 93.4021 178.225 93.071 177.774C92.7447 177.318 92.5887 176.764 92.6031 176.111L92.6103 176.068H94.8488C94.8488 176.318 94.9064 176.545 95.0215 176.752C95.1367 176.953 95.2999 177.114 95.511 177.234C95.7269 177.349 95.9788 177.407 96.2667 177.407C96.7178 177.407 97.0729 177.277 97.332 177.018C97.5959 176.759 97.7279 176.413 97.7279 175.982C97.7279 175.535 97.5911 175.183 97.3176 174.924C97.0489 174.66 96.6482 174.528 96.1156 174.528H95.0072V172.815H96.1732C96.4803 172.815 96.737 172.759 96.9433 172.649C97.1497 172.534 97.3032 172.378 97.404 172.181C97.5095 171.98 97.5623 171.742 97.5623 171.469C97.5623 171.075 97.452 170.756 97.2312 170.511C97.0105 170.267 96.689 170.144 96.2667 170.144C96.022 170.144 95.8037 170.195 95.6118 170.295C95.4198 170.391 95.2687 170.528 95.1583 170.706C95.0527 170.878 95 171.082 95 171.318H92.7615L92.7471 171.274C92.7279 170.708 92.867 170.207 93.1646 169.77C93.4621 169.333 93.8771 168.993 94.4097 168.748C94.9472 168.503 95.559 168.381 96.2452 168.381C97.3392 168.381 98.2149 168.64 98.8723 169.158C99.5345 169.672 99.8656 170.401 99.8656 171.346C99.8656 171.85 99.7288 172.294 99.4553 172.678C99.1866 173.062 98.7811 173.381 98.2389 173.635C98.8051 173.842 99.2442 174.156 99.5561 174.578C99.8728 175 100.031 175.499 100.031 176.075C100.031 176.713 99.868 177.263 99.5417 177.723C99.2154 178.184 98.7691 178.539 98.2029 178.789C97.6367 179.038 96.9913 179.163 96.2667 179.163Z" fill="#FAEE32"/>
<rect x="54.5478" y="163.378" width="66.964" height="20.2686" stroke="#1D1F31" stroke-width="1.2284"/>
<ellipse cx="89.5215" cy="255.073" rx="40.5781" ry="6.92729" fill="url(#paint0_radial_830_138)"/>
<rect x="0.0934943" y="0.859593" width="9.2723" height="2.66377" transform="matrix(0.782252 0.622962 -0.630031 0.77657 201.394 100.863)" fill="#00B8C4" stroke="#2B0307" stroke-width="1.2284"/>
<path d="M212.097 87.568L216.032 90.1304C216.23 90.2593 216.337 90.4904 216.306 90.7247L214.612 103.688C214.543 104.211 213.891 104.41 213.542 104.015L206.732 96.2992C206.556 96.1004 206.528 95.8115 206.662 95.5826L211.232 87.7725C211.409 87.4698 211.803 87.3766 212.097 87.568Z" fill="#EBECF0" stroke="#2B0307" stroke-width="1.2284"/>
<path d="M136.8 65.9106L136.795 65.9407L136.793 65.9711C136.001 79.0293 127.751 92.1927 117.746 102.074C112.752 107.007 107.343 111.097 102.256 113.928C97.1521 116.767 92.4347 118.304 88.8065 118.215L88.801 118.215C85.0713 118.158 80.4036 116.121 75.4291 112.59C70.4736 109.072 65.2893 104.126 60.5402 98.3756C51.0306 86.8609 43.3577 72.2348 42.6728 59.5428C42.6802 46.8483 51.2682 39.11 62.0951 34.5141C72.9298 29.9148 85.8559 28.542 94.1235 28.542H94.1534L94.1831 28.5391C104.283 27.5545 116.1 29.9209 124.8 36.0259C133.462 42.1041 139.058 51.8959 136.8 65.9106Z" fill="#F5F5F6" stroke="#2B0307" stroke-width="1.2284"/>
<path d="M131.389 73.2767L131.384 73.308L131.382 73.3397C130.637 85.0981 122.942 96.404 113.579 104.758C108.907 108.927 103.843 112.338 99.0729 114.684C94.29 117.035 89.8542 118.29 86.4247 118.21L86.4194 118.21C82.9246 118.158 78.5374 116.15 73.8483 112.685C69.1803 109.235 64.2955 104.402 59.8198 98.84C50.8556 87.7009 43.6306 73.7639 42.9853 62.3178C42.9893 56.5891 44.9986 52.1506 48.2457 48.6925C51.5092 45.2169 56.0459 42.7089 61.1173 40.914C71.2663 37.3219 83.3899 36.6424 91.2064 36.6424H91.235L91.2635 36.6398C100.747 35.7536 111.872 38.6109 120.075 44.8551C128.251 51.0793 133.511 60.6505 131.389 73.2767Z" fill="#F1F1F2" stroke="#2B0307" stroke-width="1.2284"/>
<ellipse cx="58.3671" cy="46.6605" rx="1.56822" ry="1.5355" fill="#2B0307"/>
<ellipse cx="72.1688" cy="43.5898" rx="1.56822" ry="1.5355" fill="#2B0307"/>
<path d="M102.277 112.073C129.288 83.1195 131.286 68.103 111.34 40.2115C128.623 49.1175 133.328 59.2518 130.402 78.4371C125.487 92.4186 114.823 105.931 102.277 112.073Z" fill="#A8A8A9"/>
<ellipse cx="88.4774" cy="43.5898" rx="1.56822" ry="1.5355" fill="#2B0307"/>
<ellipse cx="102.279" cy="43.5898" rx="1.56822" ry="1.5355" fill="#2B0307"/>
<ellipse cx="114.197" cy="46.6605" rx="1.56822" ry="1.5355" fill="#2B0307"/>
<ellipse cx="125.486" cy="55.2595" rx="1.56822" ry="1.5355" fill="#2B0307"/>
<ellipse cx="126.742" cy="70.0003" rx="1.56822" ry="1.5355" fill="#2B0307"/>
<ellipse cx="122.351" cy="85.3552" rx="1.56822" ry="1.5355" fill="#2B0307"/>
<ellipse cx="115.451" cy="98.8677" rx="1.56822" ry="1.5355" fill="#2B0307"/>
<ellipse cx="104.161" cy="108.081" rx="1.56822" ry="1.5355" fill="#2B0307"/>
<ellipse cx="87.2235" cy="115.451" rx="1.56822" ry="1.5355" fill="#2B0307"/>
<path d="M74.0504 71.3482H74.0355L74.0206 71.3491C63.838 71.9626 57.2581 71.4091 53.2411 69.9812C51.2412 69.2703 49.9109 68.3545 49.0791 67.2907C48.2523 66.2332 47.8854 64.988 47.8854 63.5513C47.8854 62.2394 48.7508 60.7756 50.4498 59.2839C52.1338 57.8053 54.5588 56.3702 57.4867 55.1136C63.3404 52.6014 71.1152 50.8408 78.7551 50.8408C86.4336 50.8408 93.348 51.7597 98.3239 53.5747C103.338 55.4038 106.175 58.0532 106.175 61.4016C106.175 63.9326 105.172 65.7887 103.432 67.1812C101.667 68.5924 99.1245 69.5412 96.0425 70.1681C90.2018 71.3562 82.6321 71.3523 75.2801 71.3486C74.8694 71.3484 74.4594 71.3482 74.0504 71.3482Z" fill="#D9D9D9" stroke="#2B0307" stroke-width="0.989613"/>
<path d="M74.039 66.81V66.8098L74.027 66.8103C66.48 67.105 61.5778 66.8406 58.5709 66.1478C57.0668 65.8012 56.0675 65.354 55.449 64.8412C54.8441 64.3398 54.5981 63.7726 54.5981 63.1358C54.5981 62.8762 54.7292 62.5734 55.0465 62.2299C55.3623 61.888 55.8389 61.5326 56.4672 61.1751C57.7223 60.4607 59.529 59.7678 61.7074 59.1618C66.0606 57.9508 71.8411 57.1021 77.5239 57.1021C83.2224 57.1021 88.3652 57.544 92.0743 58.421C93.9313 58.8601 95.4074 59.4034 96.4118 60.0404C97.4197 60.6796 97.8941 61.3722 97.8941 62.1036C97.8941 63.2346 97.2084 64.1082 95.8904 64.7916C94.5657 65.4785 92.6589 65.9385 90.3624 66.2413C86.019 66.814 80.396 66.8121 74.9568 66.8102C74.6502 66.8101 74.3442 66.81 74.039 66.81Z" fill="#2B0307" stroke="#2B0307" stroke-width="0.614201"/>
<path d="M72.2166 71.4447H72.2031L72.1896 71.4454C62.7067 71.9653 56.578 71.4963 52.8367 70.2862C50.9723 69.6832 49.7405 68.9085 48.9753 68.0179C48.2186 67.1373 47.8854 66.1058 47.8854 64.9135C47.8854 63.8545 48.6583 62.6361 50.2442 61.369C51.8083 60.1195 54.0638 58.9043 56.7906 57.8395C62.2409 55.7111 69.4816 54.2188 76.5977 54.2188C83.7491 54.2188 90.1888 54.9976 94.8226 56.5356C97.1408 57.305 98.9744 58.254 100.22 59.3631C101.457 60.4642 102.097 61.7043 102.097 63.092C102.097 65.1936 101.186 66.7429 99.5735 67.9166C97.9356 69.1088 95.57 69.9129 92.6979 70.4446C87.2581 71.4514 80.2081 71.4482 73.3621 71.445C72.9795 71.4448 72.5976 71.4447 72.2166 71.4447Z" stroke="#2B0307" stroke-width="0.989613"/>
<ellipse cx="67.4642" cy="62.0156" rx="2.50915" ry="2.7639" fill="#FAF001"/>
<ellipse cx="85.0277" cy="62.0156" rx="2.50915" ry="2.7639" fill="#FAF001"/>
<rect width="4.39047" height="15.357" transform="matrix(0.997075 -0.0764224 0.0796935 0.996819 73.1094 87.8408)" fill="#2B0307"/>
<rect width="4.39047" height="15.357" transform="matrix(0.997075 -0.0764224 0.0796935 0.996819 79.3828 87.2266)" fill="#2B0307"/>
<rect width="4.39047" height="15.357" transform="matrix(0.997075 -0.0764224 0.0796935 0.996819 85.6553 86.6124)" fill="#2B0307"/>
<rect width="4.39047" height="15.357" transform="matrix(0.997075 -0.0764224 0.0796935 0.996819 91.9287 85.9983)" fill="#2B0307"/>
<defs>
<radialGradient id="paint0_radial_830_138" cx="0" cy="0" r="1" gradientUnits="userSpaceOnUse" gradientTransform="translate(89.5215 255.073) rotate(90) scale(6.92729 40.5781)">
<stop stop-color="#5E5A5A"/>
<stop offset="1" stop-color="#D9D9D9" stop-opacity="0"/>
</radialGradient>
</defs>
</svg>
