<svg width="137" height="144" viewBox="0 0 137 144" fill="none" xmlns="http://www.w3.org/2000/svg">
<path d="M1.29297 34.5039C1.22266 34.457 1.11719 34.3398 0.976562 34.1523C0.8125 33.9883 0.683594 33.8125 0.589844 33.625C0.496094 33.4375 0.460938 33.2734 0.484375 33.1328C0.484375 32.9922 0.613281 32.9219 0.871094 32.9219C1.36328 33.6016 2.05469 33.8594 2.94531 33.6953C3.83594 33.5312 4.79688 33.1211 5.82812 32.4648C6.85938 31.832 7.90234 31.0234 8.95703 30.0391C10.0352 29.0781 10.9961 28.1172 11.8398 27.1562C12.707 26.1953 13.4102 25.3281 13.9492 24.5547C14.5117 23.7812 14.793 23.2656 14.793 23.0078C14.793 22.9375 14.6992 22.832 14.5117 22.6914C14.3242 22.5273 14.1016 22.3633 13.8438 22.1992C13.6094 22.0352 13.3867 21.8828 13.1758 21.7422C12.9648 21.6016 12.8359 21.4961 12.7891 21.4258C12.8594 21.1914 13.082 21.0156 13.457 20.8984C13.832 20.7578 14.2539 20.6406 14.7227 20.5469C15.1914 20.4297 15.6484 20.3242 16.0938 20.2305C16.5625 20.1133 16.9141 19.9727 17.1484 19.8086C18.3906 18.0039 19.4688 16.3867 20.3828 14.957C21.3203 13.5039 22.1992 12.0859 23.0195 10.7031C23.8633 9.29688 24.7188 7.85547 25.5859 6.37891C26.4531 4.90234 27.4492 3.23828 28.5742 1.38672C28.8789 0.871094 29.125 0.695313 29.3125 0.859375C29.5 1.02344 29.6406 1.42188 29.7344 2.05469C29.8281 2.6875 29.8867 3.49609 29.9102 4.48047C29.9336 5.44141 29.9336 6.48438 29.9102 7.60938C29.8867 8.73438 29.8398 9.88281 29.7695 11.0547C29.7227 12.2266 29.6641 13.3047 29.5938 14.2891C29.5469 15.2734 29.5 16.1289 29.4531 16.8555C29.4297 17.5586 29.4297 18.0156 29.4531 18.2266C29.5469 19.4219 29.6055 20.4648 29.6289 21.3555C29.6758 22.2227 29.793 23.0312 29.9805 23.7812C30.168 24.5078 30.4844 25.2227 30.9297 25.9258C31.3984 26.6055 32.1016 27.3555 33.0391 28.1758C32.2656 28.4336 31.6211 28.4102 31.1055 28.1055C30.6133 27.8242 30.2031 27.3906 29.875 26.8047C29.5703 26.1953 29.3125 25.5039 29.1016 24.7305C28.9141 23.9336 28.7266 23.1719 28.5391 22.4453C28.375 21.6953 28.1758 21.0508 27.9414 20.5117C27.7305 19.9492 27.4375 19.5859 27.0625 19.4219C27.0391 19.4219 26.9688 19.4219 26.8516 19.4219C26.7578 19.3984 26.6406 19.3867 26.5 19.3867C26.3828 19.3867 26.2656 19.3984 26.1484 19.4219C26.0312 19.4219 25.9492 19.4219 25.9023 19.4219C25.6914 19.4688 25.293 19.5625 24.707 19.7031C24.1445 19.8438 23.5234 19.9961 22.8438 20.1602C22.1641 20.3242 21.5078 20.4883 20.875 20.6523C20.2656 20.8164 19.8203 20.9336 19.5391 21.0039C18.9531 21.168 18.332 21.543 17.6758 22.1289C17.043 22.7148 16.3633 23.4297 15.6367 24.2734C14.9336 25.0938 14.1953 25.9961 13.4219 26.9805C12.6719 27.9648 11.8984 28.9258 11.1016 29.8633C10.3047 30.8008 9.49609 31.668 8.67578 32.4648C7.85547 33.2617 7.03516 33.9062 6.21484 34.3984C5.39453 34.8906 4.57422 35.1602 3.75391 35.207C2.91016 35.2773 2.08984 35.043 1.29297 34.5039ZM20.3477 19.0352C20.3945 19.0586 20.5117 19.0703 20.6992 19.0703C20.9102 19.0703 21.0508 19.0586 21.1211 19.0352C21.543 18.9648 22.0703 18.8828 22.7031 18.7891C23.3359 18.6953 23.9688 18.5898 24.6016 18.4727C25.2344 18.332 25.8203 18.1797 26.3594 18.0156C26.8984 17.8281 27.2734 17.6289 27.4844 17.418C27.4844 17.418 27.5195 17.1719 27.5898 16.6797C27.6602 16.1875 27.7422 15.5664 27.8359 14.8164C27.9297 14.043 28.0234 13.1992 28.1172 12.2852C28.2344 11.3477 28.3398 10.4336 28.4336 9.54297C28.5273 8.65234 28.5977 7.83203 28.6445 7.08203C28.7148 6.30859 28.7617 5.71094 28.7852 5.28906C28.5273 5.17187 28.1875 5.47656 27.7656 6.20312C27.3438 6.90625 26.793 7.87891 26.1133 9.12109C25.457 10.3633 24.6484 11.8164 23.6875 13.4805C22.75 15.1211 21.6367 16.832 20.3477 18.6133V19.0352ZM37.3633 27.6133C36.168 27.2148 35.3711 26.5938 34.9727 25.75C34.5977 24.9062 34.4922 23.957 34.6562 22.9023C34.8438 21.8242 35.2539 20.6992 35.8867 19.5273C36.5195 18.332 37.2695 17.1953 38.1367 16.1172C39.0039 15.0391 39.918 14.0664 40.8789 13.1992C41.8398 12.332 42.7422 11.6758 43.5859 11.2305C44.4531 10.7852 45.1914 10.6094 45.8008 10.7031C46.4102 10.7969 46.7852 11.2656 46.9258 12.1094C46.9961 12.4844 46.9492 12.8945 46.7852 13.3398C46.6445 13.7852 46.4336 14.2188 46.1523 14.6406C45.8945 15.0391 45.5898 15.4141 45.2383 15.7656C44.9102 16.0938 44.582 16.3398 44.2539 16.5039C43.9492 16.668 43.668 16.7266 43.4102 16.6797C43.1758 16.6328 43.0234 16.4336 42.9531 16.082C43.2344 15.6133 43.5508 15.1445 43.9023 14.6758C44.2539 14.1836 44.5938 13.7266 44.9219 13.3047C44.7812 13.0469 44.5117 12.9883 44.1133 13.1289C43.7148 13.2695 43.2344 13.5508 42.6719 13.9727C42.1094 14.3945 41.5117 14.9336 40.8789 15.5898C40.2695 16.2227 39.6719 16.9141 39.0859 17.6641C38.5 18.4141 37.9727 19.1992 37.5039 20.0195C37.0586 20.8164 36.7305 21.5898 36.5195 22.3398C36.3086 23.0898 36.25 23.793 36.3438 24.4492C36.4609 25.082 36.8008 25.5977 37.3633 25.9961C38.1367 26.0664 39.0273 25.9961 40.0352 25.7852C41.043 25.5508 42.0742 25.2578 43.1289 24.9062C44.1836 24.5547 45.2266 24.1797 46.2578 23.7812C47.3125 23.3594 48.2617 22.9727 49.1055 22.6211C49.9727 22.2695 50.6992 22 51.2852 21.8125C51.8945 21.6016 52.293 21.543 52.4805 21.6367C52.9258 21.8711 52.9492 22.2109 52.5508 22.6562C52.1758 23.1016 51.5312 23.582 50.6172 24.0977C49.7031 24.6133 48.6133 25.1289 47.3477 25.6445C46.1055 26.1367 44.8516 26.5703 43.5859 26.9453C42.3203 27.2969 41.125 27.5547 40 27.7188C38.875 27.8594 37.9961 27.8242 37.3633 27.6133ZM56.6289 27.6133C56.6055 27.5664 56.5938 27.4375 56.5938 27.2266C56.5938 27.0156 56.6055 26.875 56.6289 26.8047C56.6992 26.5469 56.8281 26.1016 57.0156 25.4688C57.2031 24.8125 57.4023 24.1328 57.6133 23.4297C57.8242 22.7031 58.0234 22.0234 58.2109 21.3906C58.3984 20.7578 58.5273 20.3125 58.5977 20.0547C58.6914 19.7266 58.7969 19.3516 58.9141 18.9297C59.0312 18.4844 59.0547 18.0625 58.9844 17.6641C58.6328 17.6172 58.1992 17.6641 57.6836 17.8047C57.168 17.9219 56.6523 18.0273 56.1367 18.1211C55.6445 18.1914 55.1758 18.1914 54.7305 18.1211C54.3086 18.0273 54.0039 17.7461 53.8164 17.2773C54.0977 16.6914 54.5195 16.3164 55.082 16.1523C55.6445 15.9648 56.2539 15.8359 56.9102 15.7656C57.5664 15.6953 58.1875 15.5898 58.7734 15.4492C59.3828 15.3086 59.8633 14.9922 60.2148 14.5C60.4258 13.8906 60.6719 13.1523 60.9531 12.2852C61.2578 11.3945 61.5742 10.4688 61.9023 9.50781C62.2305 8.54687 62.582 7.59766 62.957 6.66016C63.3555 5.72266 63.7656 4.89062 64.1875 4.16406C64.4453 4 64.6562 3.98828 64.8203 4.12891C64.9844 4.26953 65.1016 4.48047 65.1719 4.76172C65.2656 5.01953 65.3242 5.28906 65.3477 5.57031C65.3711 5.85156 65.3711 6.03906 65.3477 6.13281C65.207 6.74219 64.9609 7.39844 64.6094 8.10156C64.2812 8.78125 63.9648 9.47266 63.6602 10.1758C63.3789 10.8789 63.1445 11.582 62.957 12.2852C62.793 12.9883 62.793 13.6562 62.957 14.2891H70.5156C70.5391 14.2891 70.5977 14.3711 70.6914 14.5352C70.7852 14.6758 70.8672 14.793 70.9375 14.8867C71.0547 15.2148 70.9258 15.4375 70.5508 15.5547C70.1758 15.6719 69.6719 15.7539 69.0391 15.8008C68.4062 15.8242 67.6797 15.8477 66.8594 15.8711C66.0625 15.8711 65.2891 15.9297 64.5391 16.0469C63.8125 16.1406 63.1562 16.3164 62.5703 16.5742C61.9844 16.8086 61.5859 17.1719 61.375 17.6641C60.7656 19.2344 60.2031 20.8164 59.6875 22.4102C59.1719 23.9805 58.6797 25.5742 58.2109 27.1914C58.1641 27.2617 58.0703 27.3789 57.9297 27.543C57.7891 27.6836 57.6367 27.8125 57.4727 27.9297C57.3086 28.0234 57.1445 28.0586 56.9805 28.0352C56.8398 28.0117 56.7227 27.8711 56.6289 27.6133ZM68.9336 27.6133C69.8945 24.5195 70.7617 22.0703 71.5352 20.2656C72.332 18.4375 72.9883 17.1602 73.5039 16.4336C74.043 15.707 74.4062 15.4727 74.5938 15.7305C74.7812 15.9883 74.7578 16.6445 74.5234 17.6992C74.3125 18.7539 73.8438 20.1719 73.1172 21.9531C72.4141 23.7109 71.418 25.7266 70.1289 28C69.9414 28.0703 69.7188 28.082 69.4609 28.0352C69.2031 27.9883 69.0273 27.8477 68.9336 27.6133ZM75.0859 10.7031C75.0391 10.5859 75.0156 10.375 75.0156 10.0703C75.0156 9.76563 75.0391 9.57812 75.0859 9.50781C75.625 9.32031 76.0352 9.29688 76.3164 9.4375C76.5977 9.57812 76.7734 9.78906 76.8438 10.0703C76.9141 10.3281 76.9023 10.6094 76.8086 10.9141C76.7383 11.2188 76.6094 11.4531 76.4219 11.6172C76.2344 11.7578 76.0117 11.7812 75.7539 11.6875C75.5195 11.5703 75.2969 11.2422 75.0859 10.7031ZM79.4805 27.1914C78.9883 26.9102 78.6367 26.4648 78.4258 25.8555C78.2148 25.2461 78.0977 24.5547 78.0742 23.7812C78.0508 23.0078 78.0977 22.1992 78.2148 21.3555C78.332 20.5117 78.4727 19.6914 78.6367 18.8945C78.8008 18.0977 78.9648 17.3828 79.1289 16.75C79.293 16.1172 79.4102 15.625 79.4805 15.2734C79.5977 15.2031 79.7148 15.2031 79.832 15.2734C79.9727 15.3438 80.1016 15.4492 80.2188 15.5898C80.3594 15.707 80.4648 15.8242 80.5352 15.9414C80.6289 16.0352 80.6758 16.082 80.6758 16.082C80.7461 16.9023 80.7461 17.7109 80.6758 18.5078C80.6289 19.2812 80.5586 20.0547 80.4648 20.8281C80.3945 21.6016 80.3242 22.3867 80.2539 23.1836C80.207 23.9805 80.207 24.7891 80.2539 25.6094C80.4414 25.9609 80.8281 25.9727 81.4141 25.6445C82 25.293 82.7148 24.7422 83.5586 23.9922C84.4023 23.2188 85.3164 22.3164 86.3008 21.2852C87.3086 20.2305 88.293 19.1875 89.2539 18.1562C90.2383 17.125 91.1641 16.1641 92.0312 15.2734C92.8984 14.3594 93.625 13.668 94.2109 13.1992C94.8203 12.707 95.2422 12.5078 95.4766 12.6016C95.7109 12.6719 95.6758 13.1641 95.3711 14.0781C94.8086 14.5703 94.1406 15.3086 93.3672 16.293C92.5938 17.2773 91.75 18.3438 90.8359 19.4922C89.9219 20.6172 88.9727 21.7422 87.9883 22.8672C87.0039 23.9922 86.0078 24.9648 85 25.7852C84.0156 26.582 83.0547 27.1445 82.1172 27.4727C81.1797 27.7773 80.3008 27.6836 79.4805 27.1914ZM96.5312 27.6133C97.4922 24.5195 98.3594 22.0703 99.1328 20.2656C99.9297 18.4375 100.586 17.1602 101.102 16.4336C101.641 15.707 102.004 15.4727 102.191 15.7305C102.379 15.9883 102.355 16.6445 102.121 17.6992C101.91 18.7539 101.441 20.1719 100.715 21.9531C100.012 23.7109 99.0156 25.7266 97.7266 28C97.5391 28.0703 97.3164 28.082 97.0586 28.0352C96.8008 27.9883 96.625 27.8477 96.5312 27.6133ZM102.684 10.7031C102.637 10.5859 102.613 10.375 102.613 10.0703C102.613 9.76563 102.637 9.57812 102.684 9.50781C103.223 9.32031 103.633 9.29688 103.914 9.4375C104.195 9.57812 104.371 9.78906 104.441 10.0703C104.512 10.3281 104.5 10.6094 104.406 10.9141C104.336 11.2188 104.207 11.4531 104.02 11.6172C103.832 11.7578 103.609 11.7812 103.352 11.6875C103.117 11.5703 102.895 11.2422 102.684 10.7031ZM108.273 27.6133C108.25 27.5664 108.238 27.4375 108.238 27.2266C108.238 27.0156 108.25 26.875 108.273 26.8047C108.344 26.5469 108.473 26.1016 108.66 25.4688C108.848 24.8125 109.047 24.1328 109.258 23.4297C109.469 22.7031 109.668 22.0234 109.855 21.3906C110.043 20.7578 110.172 20.3125 110.242 20.0547C110.336 19.7266 110.441 19.3516 110.559 18.9297C110.676 18.4844 110.699 18.0625 110.629 17.6641C110.277 17.6172 109.844 17.6641 109.328 17.8047C108.812 17.9219 108.297 18.0273 107.781 18.1211C107.289 18.1914 106.82 18.1914 106.375 18.1211C105.953 18.0273 105.648 17.7461 105.461 17.2773C105.742 16.6914 106.164 16.3164 106.727 16.1523C107.289 15.9648 107.898 15.8359 108.555 15.7656C109.211 15.6953 109.832 15.5898 110.418 15.4492C111.027 15.3086 111.508 14.9922 111.859 14.5C112.07 13.8906 112.316 13.1523 112.598 12.2852C112.902 11.3945 113.219 10.4688 113.547 9.50781C113.875 8.54687 114.227 7.59766 114.602 6.66016C115 5.72266 115.41 4.89062 115.832 4.16406C116.09 4 116.301 3.98828 116.465 4.12891C116.629 4.26953 116.746 4.48047 116.816 4.76172C116.91 5.01953 116.969 5.28906 116.992 5.57031C117.016 5.85156 117.016 6.03906 116.992 6.13281C116.852 6.74219 116.605 7.39844 116.254 8.10156C115.926 8.78125 115.609 9.47266 115.305 10.1758C115.023 10.8789 114.789 11.582 114.602 12.2852C114.438 12.9883 114.438 13.6562 114.602 14.2891H122.16C122.184 14.2891 122.242 14.3711 122.336 14.5352C122.43 14.6758 122.512 14.793 122.582 14.8867C122.699 15.2148 122.57 15.4375 122.195 15.5547C121.82 15.6719 121.316 15.7539 120.684 15.8008C120.051 15.8242 119.324 15.8477 118.504 15.8711C117.707 15.8711 116.934 15.9297 116.184 16.0469C115.457 16.1406 114.801 16.3164 114.215 16.5742C113.629 16.8086 113.23 17.1719 113.02 17.6641C112.41 19.2344 111.848 20.8164 111.332 22.4102C110.816 23.9805 110.324 25.5742 109.855 27.1914C109.809 27.2617 109.715 27.3789 109.574 27.543C109.434 27.6836 109.281 27.8125 109.117 27.9297C108.953 28.0234 108.789 28.0586 108.625 28.0352C108.484 28.0117 108.367 27.8711 108.273 27.6133ZM114.215 41.5C114.004 41.1719 114.016 40.6562 114.25 39.9531C114.461 39.2734 114.777 38.5586 115.199 37.8086C115.598 37.082 116.02 36.3906 116.465 35.7344C116.887 35.1016 117.203 34.6445 117.414 34.3633C117.602 34.1055 117.895 33.7188 118.293 33.2031C118.668 32.6875 119.102 32.1016 119.594 31.4453C120.086 30.7891 120.602 30.0977 121.141 29.3711C121.703 28.6445 122.23 27.9648 122.723 27.332C123.215 26.6758 123.66 26.0898 124.059 25.5742C124.457 25.0586 124.75 24.6719 124.938 24.4141C125.125 24.2031 125.125 23.875 124.938 23.4297C124.75 22.9844 124.457 22.4688 124.059 21.8828C123.684 21.2734 123.25 20.6172 122.758 19.9141C122.289 19.1875 121.855 18.4609 121.457 17.7344C121.082 16.9844 120.789 16.2461 120.578 15.5195C120.391 14.793 120.391 14.1133 120.578 13.4805C120.836 13.293 121.117 13.4102 121.422 13.832C121.727 14.2305 122.043 14.793 122.371 15.5195C122.723 16.2227 123.086 17.0078 123.461 17.875C123.836 18.7188 124.199 19.4922 124.551 20.1953C124.902 20.875 125.242 21.4141 125.57 21.8125C125.922 22.2109 126.25 22.293 126.555 22.0586C127.164 21.6133 127.762 21.0508 128.348 20.3711C128.934 19.668 129.496 18.9414 130.035 18.1914C130.574 17.4414 131.078 16.7148 131.547 16.0117C132.039 15.2852 132.496 14.6523 132.918 14.1133C133.082 13.9023 133.234 13.7617 133.375 13.6914C133.539 13.5977 133.785 13.6094 134.113 13.7266C134.371 13.8203 134.324 14.2305 133.973 14.957C133.621 15.6836 133.07 16.6211 132.32 17.7695C131.57 18.918 130.668 20.2305 129.613 21.707C128.582 23.1602 127.48 24.6836 126.309 26.2773C125.16 27.8477 124 29.418 122.828 30.9883C121.68 32.5586 120.625 34.0117 119.664 35.3477C118.68 36.707 117.848 37.8906 117.168 38.8984C116.465 39.9297 116.008 40.6797 115.797 41.1484C115.703 41.3594 115.609 41.5703 115.516 41.7812C115.398 41.9922 115.246 42.168 115.059 42.3086C115.012 42.2852 114.953 42.2383 114.883 42.168C114.789 42.0977 114.707 42.0156 114.637 41.9219C114.543 41.8516 114.461 41.7695 114.391 41.6758C114.297 41.6055 114.238 41.5469 114.215 41.5ZM6.77734 62.6133C5.79297 62.2148 5.17188 61.6172 4.91406 60.8203C4.67969 60.0234 4.69141 59.1445 4.94922 58.1836C5.20703 57.1992 5.65234 56.1914 6.28516 55.1602C6.91797 54.1055 7.62109 53.1445 8.39453 52.2773C9.16797 51.4102 9.94141 50.6836 10.7148 50.0977C11.5117 49.4883 12.1914 49.1484 12.7539 49.0781C14.207 48.8906 15.3438 48.9961 16.1641 49.3945C17.0078 49.7695 17.582 50.3203 17.8867 51.0469C18.1914 51.7734 18.2734 52.6289 18.1328 53.6133C17.9922 54.5742 17.6758 55.5469 17.1836 56.5312C16.7148 57.5156 16.0938 58.4648 15.3203 59.3789C14.5703 60.293 13.7266 61.0664 12.7891 61.6992C11.875 62.3086 10.9023 62.7188 9.87109 62.9297C8.83984 63.1172 7.80859 63.0117 6.77734 62.6133ZM6.39062 60.6094C6.57812 61.3594 6.97656 61.7812 7.58594 61.875C8.19531 61.9453 8.89844 61.793 9.69531 61.418C10.5156 61.0195 11.3711 60.457 12.2617 59.7305C13.1523 58.9805 13.9609 58.1719 14.6875 57.3047C15.4375 56.4375 16.0469 55.5703 16.5156 54.7031C17.0078 53.8125 17.2422 53.0391 17.2188 52.3828C17.2188 51.7266 16.9023 51.2344 16.2695 50.9062C15.6602 50.5547 14.6289 50.4844 13.1758 50.6953C12.8477 51 12.4258 51.375 11.9102 51.8203C11.3945 52.2422 10.8555 52.7109 10.293 53.2266C9.75391 53.7422 9.21484 54.3047 8.67578 54.9141C8.13672 55.5 7.66797 56.1094 7.26953 56.7422C6.87109 57.375 6.57812 58.0195 6.39062 58.6758C6.22656 59.332 6.22656 59.9766 6.39062 60.6094ZM20.5234 62.1914C20.4766 62.1445 20.4531 62.0156 20.4531 61.8047C20.4531 61.5938 20.4766 61.4648 20.5234 61.418L23.4766 54.6328H20.1367C20.0664 54.6328 19.9961 54.5859 19.9258 54.4922C19.8789 54.3984 19.832 54.293 19.7852 54.1758C19.7617 54.0352 19.7383 53.9062 19.7148 53.7891C19.6914 53.6484 19.7031 53.543 19.75 53.4727C19.8203 53.4492 19.9492 53.4023 20.1367 53.332C20.3242 53.2617 20.5234 53.1797 20.7344 53.0859C20.9453 52.9922 21.1445 52.9102 21.332 52.8398C21.5195 52.7695 21.6484 52.7109 21.7188 52.6641C21.7891 52.6406 21.9766 52.5703 22.2812 52.4531C22.6094 52.3359 22.9492 52.2188 23.3008 52.1016C23.6758 51.9609 24.0156 51.832 24.3203 51.7148C24.625 51.5977 24.8125 51.5156 24.8828 51.4688C25.1641 51.2812 25.4922 50.8242 25.8672 50.0977C26.2656 49.3477 26.7109 48.457 27.2031 47.4258C27.6953 46.3945 28.2344 45.293 28.8203 44.1211C29.4062 42.9258 30.0391 41.7891 30.7188 40.7109C31.3984 39.6094 32.1133 38.6367 32.8633 37.793C33.6133 36.9258 34.3867 36.3164 35.1836 35.9648C36.0039 35.5898 36.8477 35.5312 37.7148 35.7891C38.582 36.0469 39.4727 36.7383 40.3867 37.8633C40.5508 38.0977 40.668 38.3555 40.7383 38.6367C40.8086 38.8945 40.8203 39.1641 40.7734 39.4453C40.5625 39.5625 40.3516 39.5859 40.1406 39.5156C39.9297 39.4453 39.7305 39.3281 39.543 39.1641C39.3789 39 39.2266 38.8359 39.0859 38.6719C38.9453 38.4844 38.8516 38.3438 38.8047 38.25C37.2344 37.9922 35.9805 38.0625 35.043 38.4609C34.1289 38.8359 33.3672 39.4219 32.7578 40.2188C32.1719 40.9922 31.6562 41.918 31.2109 42.9961C30.7656 44.0742 30.25 45.1875 29.6641 46.3359C29.5 46.6172 29.3008 46.9805 29.0664 47.4258C28.8555 47.8711 28.6445 48.3047 28.4336 48.7266C28.2227 49.1484 28.0352 49.5117 27.8711 49.8164C27.7305 50.1211 27.6602 50.2734 27.6602 50.2734V50.6953C27.6602 50.7891 27.9531 50.8594 28.5391 50.9062C29.125 50.9531 29.7812 51.0234 30.5078 51.1172C31.2578 51.2109 31.9727 51.3516 32.6523 51.5391C33.3555 51.7031 33.8125 51.9492 34.0234 52.2773L33.6367 52.6641C32.3008 52.5938 31.1758 52.5703 30.2617 52.5938C29.3477 52.6172 28.5508 52.7695 27.8711 53.0508C27.1914 53.332 26.5938 53.7891 26.0781 54.4219C25.5625 55.0312 25.0352 55.8984 24.4961 57.0234C24.3086 57.4219 24.0625 57.9375 23.7578 58.5703C23.4531 59.1797 23.1484 59.7891 22.8438 60.3984C22.5391 60.9844 22.2812 61.5 22.0703 61.9453C21.8594 62.3672 21.7422 62.5898 21.7188 62.6133L21.2969 63C21.2266 62.9531 21.0859 62.8359 20.875 62.6484C20.6875 62.4375 20.5703 62.2852 20.5234 62.1914ZM57.7539 62.6133C57.7305 62.5664 57.7188 62.4375 57.7188 62.2266C57.7188 62.0156 57.7305 61.875 57.7539 61.8047C57.8242 61.5469 57.9531 61.1016 58.1406 60.4688C58.3281 59.8125 58.5273 59.1328 58.7383 58.4297C58.9492 57.7031 59.1484 57.0234 59.3359 56.3906C59.5234 55.7578 59.6523 55.3125 59.7227 55.0547C59.8164 54.7266 59.9219 54.3516 60.0391 53.9297C60.1562 53.4844 60.1797 53.0625 60.1094 52.6641C59.7578 52.6172 59.3242 52.6641 58.8086 52.8047C58.293 52.9219 57.7773 53.0273 57.2617 53.1211C56.7695 53.1914 56.3008 53.1914 55.8555 53.1211C55.4336 53.0273 55.1289 52.7461 54.9414 52.2773C55.2227 51.6914 55.6445 51.3164 56.207 51.1523C56.7695 50.9648 57.3789 50.8359 58.0352 50.7656C58.6914 50.6953 59.3125 50.5898 59.8984 50.4492C60.5078 50.3086 60.9883 49.9922 61.3398 49.5C61.5508 48.8906 61.7969 48.1523 62.0781 47.2852C62.3828 46.3945 62.6992 45.4688 63.0273 44.5078C63.3555 43.5469 63.707 42.5977 64.082 41.6602C64.4805 40.7227 64.8906 39.8906 65.3125 39.1641C65.5703 39 65.7812 38.9883 65.9453 39.1289C66.1094 39.2695 66.2266 39.4805 66.2969 39.7617C66.3906 40.0195 66.4492 40.2891 66.4727 40.5703C66.4961 40.8516 66.4961 41.0391 66.4727 41.1328C66.332 41.7422 66.0859 42.3984 65.7344 43.1016C65.4062 43.7812 65.0898 44.4727 64.7852 45.1758C64.5039 45.8789 64.2695 46.582 64.082 47.2852C63.918 47.9883 63.918 48.6562 64.082 49.2891H71.6406C71.6641 49.2891 71.7227 49.3711 71.8164 49.5352C71.9102 49.6758 71.9922 49.793 72.0625 49.8867C72.1797 50.2148 72.0508 50.4375 71.6758 50.5547C71.3008 50.6719 70.7969 50.7539 70.1641 50.8008C69.5312 50.8242 68.8047 50.8477 67.9844 50.8711C67.1875 50.8711 66.4141 50.9297 65.6641 51.0469C64.9375 51.1406 64.2812 51.3164 63.6953 51.5742C63.1094 51.8086 62.7109 52.1719 62.5 52.6641C61.8906 54.2344 61.3281 55.8164 60.8125 57.4102C60.2969 58.9805 59.8047 60.5742 59.3359 62.1914C59.2891 62.2617 59.1953 62.3789 59.0547 62.543C58.9141 62.6836 58.7617 62.8125 58.5977 62.9297C58.4336 63.0234 58.2695 63.0586 58.1055 63.0352C57.9648 63.0117 57.8477 62.8711 57.7539 62.6133ZM70.0586 62.1914C70.0352 62.1445 70.0234 62.0859 70.0234 62.0156C70.0234 61.9219 70.0352 61.8516 70.0586 61.8047C70.1523 61.6172 70.3047 61.3008 70.5156 60.8555C70.75 60.3867 70.9844 59.9062 71.2188 59.4141C71.4766 58.8984 71.7227 58.418 71.957 57.9727C72.1914 57.5273 72.3555 57.2109 72.4492 57.0234C72.4961 56.9531 72.6133 56.7539 72.8008 56.4258C73.0117 56.0977 73.2578 55.6992 73.5391 55.2305C73.8438 54.7383 74.1602 54.1992 74.4883 53.6133C74.8398 53.0273 75.1797 52.4531 75.5078 51.8906C75.8594 51.3281 76.1758 50.8008 76.457 50.3086C76.7617 49.8164 77.0078 49.4062 77.1953 49.0781C77.6641 48.3047 78.2031 47.3906 78.8125 46.3359C79.4453 45.2812 80.0898 44.2148 80.7461 43.1367C81.4023 42.0586 82.0469 41.0156 82.6797 40.0078C83.3359 39 83.9336 38.168 84.4727 37.5117C85.0117 36.8555 85.4688 36.4219 85.8438 36.2109C86.2188 36 86.4766 36.1406 86.6172 36.6328V37.7578C86.4531 38.0156 86.2305 38.3555 85.9492 38.7773C85.668 39.1758 85.375 39.6094 85.0703 40.0781C84.7891 40.5234 84.5078 40.957 84.2266 41.3789C83.9453 41.8008 83.7344 42.1289 83.5938 42.3633C83.3828 42.6914 83.043 43.2188 82.5742 43.9453C82.1055 44.6719 81.5781 45.4922 80.9922 46.4062C80.4062 47.3203 79.8086 48.2812 79.1992 49.2891C78.5898 50.2734 78.0391 51.1992 77.5469 52.0664C77.0547 52.9336 76.6562 53.6836 76.3516 54.3164C76.0703 54.9258 75.9648 55.3125 76.0352 55.4766C76.5977 55.3125 77.1953 55.0195 77.8281 54.5977C78.4844 54.1523 79.1406 53.6836 79.7969 53.1914C80.4531 52.6992 81.1094 52.2305 81.7656 51.7852C82.4219 51.3164 83.0312 50.9531 83.5938 50.6953C84.1562 50.7656 84.6484 50.9766 85.0703 51.3281C85.4922 51.6797 85.7969 52.125 85.9844 52.6641C85.9609 52.875 85.9375 53.2734 85.9141 53.8594C85.9141 54.4219 85.9141 55.0195 85.9141 55.6523C85.9141 56.2852 85.9141 56.8828 85.9141 57.4453C85.9375 58.0078 85.9609 58.3945 85.9844 58.6055C86.0078 58.8633 86.125 59.1914 86.3359 59.5898C86.5469 59.9648 86.7695 60.3516 87.0039 60.75C87.2617 61.125 87.4844 61.4531 87.6719 61.7344C87.8828 62.0156 87.9766 62.168 87.9531 62.1914C87.4844 62.3555 87.0391 62.3672 86.6172 62.2266C86.1953 62.0625 85.8203 61.8164 85.4922 61.4883C85.1875 61.1367 84.9297 60.75 84.7188 60.3281C84.5312 59.8828 84.4141 59.4492 84.3672 59.0273C84.3438 58.8164 84.3086 58.4297 84.2617 57.8672C84.2148 57.2812 84.168 56.6719 84.1211 56.0391C84.0977 55.4062 84.0625 54.8086 84.0156 54.2461C83.9922 53.6836 83.9805 53.2969 83.9805 53.0859L83.1719 52.6641C83.0312 52.5938 82.7852 52.6523 82.4336 52.8398C82.1055 53.0273 81.7188 53.2852 81.2734 53.6133C80.8281 53.9414 80.3594 54.3164 79.8672 54.7383C79.375 55.1602 78.9062 55.5586 78.4609 55.9336C78.0391 56.3086 77.6758 56.6367 77.3711 56.918C77.0664 57.1992 76.8789 57.375 76.8086 57.4453C76.6211 57.6328 76.2812 57.9727 75.7891 58.4648C75.2969 58.9336 74.7695 59.4492 74.207 60.0117C73.668 60.5508 73.1523 61.0664 72.6602 61.5586C72.1914 62.0508 71.8633 62.4023 71.6758 62.6133C71.3477 62.6836 71.0312 62.7188 70.7266 62.7188C70.4453 62.6953 70.2227 62.5195 70.0586 62.1914ZM92.1367 62.6133C91.4336 62.3789 90.8945 62.0273 90.5195 61.5586C90.168 61.0664 89.9336 60.5273 89.8164 59.9414C89.6992 59.3555 89.6758 58.7461 89.7461 58.1133C89.8398 57.457 89.9805 56.8359 90.168 56.25C90.8711 55.5 91.6562 54.6445 92.5234 53.6836C93.4141 52.6992 94.3516 51.7383 95.3359 50.8008C96.3203 49.8633 97.3398 48.9961 98.3945 48.1992C99.4727 47.3789 100.562 46.7578 101.664 46.3359C102.039 46.1719 102.332 46.1836 102.543 46.3711C102.777 46.5352 102.941 46.8047 103.035 47.1797C103.129 47.5547 103.164 47.9883 103.141 48.4805C103.141 48.9727 103.105 49.4531 103.035 49.9219C102.965 50.3906 102.871 50.8125 102.754 51.1875C102.637 51.5625 102.52 51.8203 102.402 51.9609C102.121 52.2891 101.57 52.6758 100.75 53.1211C99.9531 53.5664 99.0625 54.0586 98.0781 54.5977C97.0938 55.1133 96.1094 55.6523 95.125 56.2148C94.1406 56.7773 93.332 57.3398 92.6992 57.9023C92.0664 58.4414 91.6914 58.9805 91.5742 59.5195C91.457 60.0586 91.7852 60.5508 92.5586 60.9961C93.3555 61.0898 94.3164 61.0547 95.4414 60.8906C96.5898 60.7031 97.75 60.4688 98.9219 60.1875C100.117 59.8828 101.266 59.5781 102.367 59.2734C103.469 58.9453 104.371 58.6875 105.074 58.5L105.496 58.8867C104.98 59.5664 104.137 60.1875 102.965 60.75C101.793 61.3125 100.527 61.7812 99.168 62.1562C97.8086 62.5078 96.4844 62.7422 95.1953 62.8594C93.9062 62.9531 92.8867 62.8711 92.1367 62.6133ZM100.539 49.1836C100.516 49.1602 100.34 49.2656 100.012 49.5C99.6836 49.7109 99.2734 50.0039 98.7812 50.3789C98.3125 50.7305 97.7969 51.1289 97.2344 51.5742C96.6953 51.9961 96.1914 52.3945 95.7227 52.7695C95.2773 53.1445 94.9023 53.4727 94.5977 53.7539C94.293 54.0117 94.1641 54.1406 94.2109 54.1406C94.5859 54.2109 95.0664 54.1641 95.6523 54C96.2617 53.8125 96.8828 53.5547 97.5156 53.2266C98.1719 52.8984 98.793 52.5352 99.3789 52.1367C99.9648 51.7148 100.422 51.3047 100.75 50.9062C101.102 50.5078 101.277 50.1562 101.277 49.8516C101.301 49.5469 101.055 49.3242 100.539 49.1836ZM25.8672 97.1914C25.6094 96.8867 25.457 96.5469 25.4102 96.1719C25.3867 95.7734 25.4102 95.3867 25.4805 95.0117C25.5742 94.6133 25.6914 94.2383 25.832 93.8867C25.9961 93.5117 26.1484 93.1719 26.2891 92.8672C26.3828 92.6328 26.5703 92.2109 26.8516 91.6016C27.1562 90.9688 27.4727 90.3125 27.8008 89.6328C28.1523 88.9531 28.4805 88.3203 28.7852 87.7344C29.0898 87.125 29.3008 86.7031 29.418 86.4688V85.6953C29.1836 85.5781 28.7031 85.7422 27.9766 86.1875C27.25 86.6094 26.4062 87.207 25.4453 87.9805C24.4844 88.7305 23.4648 89.5742 22.3867 90.5117C21.3086 91.4492 20.2891 92.3516 19.3281 93.2188C18.3906 94.0625 17.5703 94.8242 16.8672 95.5039C16.1641 96.1602 15.7188 96.5938 15.5312 96.8047C15.0156 96.9688 14.6758 96.8633 14.5117 96.4883C14.3711 96.0898 14.3359 95.5508 14.4062 94.8711C14.4766 94.168 14.6172 93.3945 14.8281 92.5508C15.0391 91.6836 15.25 90.875 15.4609 90.125C15.6953 89.3516 15.8945 88.6953 16.0586 88.1562C16.2461 87.6172 16.3281 87.3242 16.3047 87.2773C15.8359 87.1133 15.3438 87.1719 14.8281 87.4531C14.3125 87.7344 13.7852 88.1562 13.2461 88.7188C12.707 89.2578 12.168 89.9023 11.6289 90.6523C11.0898 91.3789 10.5508 92.1172 10.0117 92.8672C9.47266 93.5938 8.95703 94.2969 8.46484 94.9766C7.97266 95.6328 7.50391 96.1719 7.05859 96.5938C6.61328 97.0156 6.19141 97.2617 5.79297 97.332C5.41797 97.4023 5.08984 97.2266 4.80859 96.8047C4.78516 96.7812 4.77344 96.7227 4.77344 96.6289C4.77344 96.5352 4.78516 96.4648 4.80859 96.418C4.92578 96.1836 5.10156 95.8203 5.33594 95.3281C5.59375 94.8125 5.875 94.2383 6.17969 93.6055C6.48438 92.9727 6.8125 92.3164 7.16406 91.6367C7.51562 90.9336 7.84375 90.2773 8.14844 89.668C8.47656 89.0352 8.75781 88.4727 8.99219 87.9805C9.25 87.4883 9.44922 87.125 9.58984 86.8906C9.70703 86.6562 9.87109 86.3633 10.082 86.0117C10.293 85.6367 10.5039 85.2852 10.7148 84.957C10.9258 84.6055 11.1133 84.3125 11.2773 84.0781C11.4414 83.8203 11.5234 83.6914 11.5234 83.6914H12.3672C12.5312 84.2305 12.5078 84.7344 12.2969 85.2031C12.0859 85.6719 11.8281 86.1289 11.5234 86.5742C11.2422 87.0195 10.9961 87.4648 10.7852 87.9102C10.5977 88.332 10.5977 88.7891 10.7852 89.2812C12.8008 87.5 14.3477 86.1875 15.4258 85.3438C16.5273 84.5 17.3008 84.0195 17.7461 83.9023C18.1914 83.7852 18.4023 83.9609 18.3789 84.4297C18.3555 84.8984 18.25 85.5312 18.0625 86.3281C17.8984 87.125 17.7227 88.0391 17.5352 89.0703C17.3711 90.0781 17.3594 91.0625 17.5 92.0234H17.9219C18.0625 91.9297 18.2969 91.7539 18.625 91.4961C18.9531 91.2383 19.3047 90.957 19.6797 90.6523C20.0781 90.3477 20.4414 90.0664 20.7695 89.8086C21.1211 89.5508 21.3672 89.375 21.5078 89.2812C21.7656 89.0703 22.1406 88.7773 22.6328 88.4023C23.125 88.0273 23.6172 87.6523 24.1094 87.2773C24.625 86.8789 25.082 86.5391 25.4805 86.2578C25.9023 85.9531 26.1719 85.7656 26.2891 85.6953C26.3828 85.625 26.582 85.4844 26.8867 85.2734C27.2148 85.0391 27.5664 84.793 27.9414 84.5352C28.3398 84.2773 28.7148 84.043 29.0664 83.832C29.418 83.5977 29.6758 83.4219 29.8398 83.3047C30.1914 83.0703 30.5195 82.9648 30.8242 82.9883C31.1289 83.0117 31.375 83.1289 31.5625 83.3398C31.7734 83.5273 31.9023 83.7969 31.9492 84.1484C31.9961 84.4766 31.9492 84.8516 31.8086 85.2734C31.2461 86.3281 30.6836 87.3594 30.1211 88.3672C29.582 89.375 29.0781 90.3945 28.6094 91.4258C28.1641 92.4336 27.7891 93.4766 27.4844 94.5547C27.2031 95.6328 27.0508 96.7812 27.0273 98C26.9102 98.0703 26.7812 98.0703 26.6406 98C26.5234 97.9297 26.4062 97.8359 26.2891 97.7188C26.1719 97.6016 26.0664 97.4844 25.9727 97.3672C25.9023 97.25 25.8672 97.1914 25.8672 97.1914ZM35.7812 97.6133C34.7969 97.2148 34.1758 96.6172 33.918 95.8203C33.6836 95.0234 33.6953 94.1445 33.9531 93.1836C34.2109 92.1992 34.6562 91.1914 35.2891 90.1602C35.9219 89.1055 36.625 88.1445 37.3984 87.2773C38.1719 86.4102 38.9453 85.6836 39.7188 85.0977C40.5156 84.4883 41.1953 84.1484 41.7578 84.0781C43.2109 83.8906 44.3477 83.9961 45.168 84.3945C46.0117 84.7695 46.5859 85.3203 46.8906 86.0469C47.1953 86.7734 47.2773 87.6289 47.1367 88.6133C46.9961 89.5742 46.6797 90.5469 46.1875 91.5312C45.7188 92.5156 45.0977 93.4648 44.3242 94.3789C43.5742 95.293 42.7305 96.0664 41.793 96.6992C40.8789 97.3086 39.9062 97.7188 38.875 97.9297C37.8438 98.1172 36.8125 98.0117 35.7812 97.6133ZM35.3945 95.6094C35.582 96.3594 35.9805 96.7812 36.5898 96.875C37.1992 96.9453 37.9023 96.793 38.6992 96.418C39.5195 96.0195 40.375 95.457 41.2656 94.7305C42.1562 93.9805 42.9648 93.1719 43.6914 92.3047C44.4414 91.4375 45.0508 90.5703 45.5195 89.7031C46.0117 88.8125 46.2461 88.0391 46.2227 87.3828C46.2227 86.7266 45.9062 86.2344 45.2734 85.9062C44.6641 85.5547 43.6328 85.4844 42.1797 85.6953C41.8516 86 41.4297 86.375 40.9141 86.8203C40.3984 87.2422 39.8594 87.7109 39.2969 88.2266C38.7578 88.7422 38.2188 89.3047 37.6797 89.9141C37.1406 90.5 36.6719 91.1094 36.2734 91.7422C35.875 92.375 35.582 93.0195 35.3945 93.6758C35.2305 94.332 35.2305 94.9766 35.3945 95.6094ZM61.832 97.6133C61.7617 96.8398 61.8203 96.0781 62.0078 95.3281C62.2188 94.5547 62.4883 93.8047 62.8164 93.0781C63.168 92.3281 63.5312 91.5898 63.9062 90.8633C64.3047 90.1133 64.6445 89.3867 64.9258 88.6836C65.207 87.957 65.4062 87.2539 65.5234 86.5742C65.6406 85.8711 65.5938 85.1797 65.3828 84.5C64.7969 84.2891 64.1172 84.3359 63.3438 84.6406C62.5938 84.9453 61.7969 85.4141 60.9531 86.0469C60.1094 86.6562 59.2305 87.3828 58.3164 88.2266C57.4258 89.0469 56.5469 89.8906 55.6797 90.7578C54.8359 91.6016 54.0273 92.4102 53.2539 93.1836C52.4805 93.957 51.7773 94.6016 51.1445 95.1172C50.5352 95.6094 50.0195 95.9258 49.5977 96.0664C49.1758 96.1836 48.8945 96.0312 48.7539 95.6094C48.7305 95.5859 48.8594 95.293 49.1406 94.7305C49.4453 94.1445 49.8086 93.418 50.2305 92.5508C50.6758 91.6836 51.1562 90.7461 51.6719 89.7383C52.2109 88.7305 52.7148 87.793 53.1836 86.9258C53.6523 86.0352 54.0625 85.2852 54.4141 84.6758C54.7656 84.0664 54.9883 83.7383 55.082 83.6914C55.5742 84.0195 55.8203 84.3828 55.8203 84.7812C55.8438 85.1562 55.7852 85.5547 55.6445 85.9766C55.5039 86.375 55.3398 86.7852 55.1523 87.207C54.9883 87.6289 54.9648 88.0508 55.082 88.4727C55.457 88.2148 55.9727 87.8633 56.6289 87.418C57.3086 86.9492 58.0352 86.4688 58.8086 85.9766C59.6055 85.4844 60.4258 85.0039 61.2695 84.5352C62.1367 84.0664 62.9453 83.7031 63.6953 83.4453C64.4453 83.1641 65.1133 83.0117 65.6992 82.9883C66.3086 82.9648 66.7539 83.1406 67.0352 83.5156C67.3164 83.8906 67.3984 84.5117 67.2812 85.3789C67.1875 86.2227 66.8242 87.3828 66.1914 88.8594C66.1211 89.0234 65.9453 89.4219 65.6641 90.0547C65.4062 90.6641 65.1133 91.332 64.7852 92.0586C64.4805 92.7617 64.1875 93.4297 63.9062 94.0625C63.6484 94.6719 63.4844 95.0586 63.4141 95.2227C63.3906 95.3164 63.3555 95.4922 63.3086 95.75C63.2852 95.9844 63.25 96.2539 63.2031 96.5586C63.1562 96.8398 63.0859 97.1211 62.9922 97.4023C62.8984 97.6602 62.7812 97.8594 62.6406 98C62.5 98.1406 62.3359 98.1289 62.1484 97.9648C61.9609 97.7773 61.8555 97.6602 61.832 97.6133ZM71.5703 97.6133C71.5469 97.5664 71.5352 97.4375 71.5352 97.2266C71.5352 97.0156 71.5469 96.875 71.5703 96.8047C71.6406 96.5469 71.7695 96.1016 71.957 95.4688C72.1445 94.8125 72.3438 94.1328 72.5547 93.4297C72.7656 92.7031 72.9648 92.0234 73.1523 91.3906C73.3398 90.7578 73.4688 90.3125 73.5391 90.0547C73.6328 89.7266 73.7383 89.3516 73.8555 88.9297C73.9727 88.4844 73.9961 88.0625 73.9258 87.6641C73.5742 87.6172 73.1406 87.6641 72.625 87.8047C72.1094 87.9219 71.5938 88.0273 71.0781 88.1211C70.5859 88.1914 70.1172 88.1914 69.6719 88.1211C69.25 88.0273 68.9453 87.7461 68.7578 87.2773C69.0391 86.6914 69.4609 86.3164 70.0234 86.1523C70.5859 85.9648 71.1953 85.8359 71.8516 85.7656C72.5078 85.6953 73.1289 85.5898 73.7148 85.4492C74.3242 85.3086 74.8047 84.9922 75.1562 84.5C75.3672 83.8906 75.6133 83.1523 75.8945 82.2852C76.1992 81.3945 76.5156 80.4688 76.8438 79.5078C77.1719 78.5469 77.5234 77.5977 77.8984 76.6602C78.2969 75.7227 78.707 74.8906 79.1289 74.1641C79.3867 74 79.5977 73.9883 79.7617 74.1289C79.9258 74.2695 80.043 74.4805 80.1133 74.7617C80.207 75.0195 80.2656 75.2891 80.2891 75.5703C80.3125 75.8516 80.3125 76.0391 80.2891 76.1328C80.1484 76.7422 79.9023 77.3984 79.5508 78.1016C79.2227 78.7812 78.9062 79.4727 78.6016 80.1758C78.3203 80.8789 78.0859 81.582 77.8984 82.2852C77.7344 82.9883 77.7344 83.6562 77.8984 84.2891H85.457C85.4805 84.2891 85.5391 84.3711 85.6328 84.5352C85.7266 84.6758 85.8086 84.793 85.8789 84.8867C85.9961 85.2148 85.8672 85.4375 85.4922 85.5547C85.1172 85.6719 84.6133 85.7539 83.9805 85.8008C83.3477 85.8242 82.6211 85.8477 81.8008 85.8711C81.0039 85.8711 80.2305 85.9297 79.4805 86.0469C78.7539 86.1406 78.0977 86.3164 77.5117 86.5742C76.9258 86.8086 76.5273 87.1719 76.3164 87.6641C75.707 89.2344 75.1445 90.8164 74.6289 92.4102C74.1133 93.9805 73.6211 95.5742 73.1523 97.1914C73.1055 97.2617 73.0117 97.3789 72.8711 97.543C72.7305 97.6836 72.5781 97.8125 72.4141 97.9297C72.25 98.0234 72.0859 98.0586 71.9219 98.0352C71.7812 98.0117 71.6641 97.8711 71.5703 97.6133ZM83.875 97.1914C83.8516 97.1445 83.8398 97.0859 83.8398 97.0156C83.8398 96.9219 83.8516 96.8516 83.875 96.8047C83.9688 96.6172 84.1211 96.3008 84.332 95.8555C84.5664 95.3867 84.8008 94.9062 85.0352 94.4141C85.293 93.8984 85.5391 93.418 85.7734 92.9727C86.0078 92.5273 86.1719 92.2109 86.2656 92.0234C86.3125 91.9531 86.4297 91.7539 86.6172 91.4258C86.8281 91.0977 87.0742 90.6992 87.3555 90.2305C87.6602 89.7383 87.9766 89.1992 88.3047 88.6133C88.6562 88.0273 88.9961 87.4531 89.3242 86.8906C89.6758 86.3281 89.9922 85.8008 90.2734 85.3086C90.5781 84.8164 90.8242 84.4062 91.0117 84.0781C91.4805 83.3047 92.0195 82.3906 92.6289 81.3359C93.2617 80.2812 93.9062 79.2148 94.5625 78.1367C95.2188 77.0586 95.8633 76.0156 96.4961 75.0078C97.1523 74 97.75 73.168 98.2891 72.5117C98.8281 71.8555 99.2852 71.4219 99.6602 71.2109C100.035 71 100.293 71.1406 100.434 71.6328V72.7578C100.27 73.0156 100.047 73.3555 99.7656 73.7773C99.4844 74.1758 99.1914 74.6094 98.8867 75.0781C98.6055 75.5234 98.3242 75.957 98.043 76.3789C97.7617 76.8008 97.5508 77.1289 97.4102 77.3633C97.1992 77.6914 96.8594 78.2188 96.3906 78.9453C95.9219 79.6719 95.3945 80.4922 94.8086 81.4062C94.2227 82.3203 93.625 83.2812 93.0156 84.2891C92.4062 85.2734 91.8555 86.1992 91.3633 87.0664C90.8711 87.9336 90.4727 88.6836 90.168 89.3164C89.8867 89.9258 89.7812 90.3125 89.8516 90.4766C90.4141 90.3125 91.0117 90.0195 91.6445 89.5977C92.3008 89.1523 92.957 88.6836 93.6133 88.1914C94.2695 87.6992 94.9258 87.2305 95.582 86.7852C96.2383 86.3164 96.8477 85.9531 97.4102 85.6953C97.9727 85.7656 98.4648 85.9766 98.8867 86.3281C99.3086 86.6797 99.6133 87.125 99.8008 87.6641C99.7773 87.875 99.7539 88.2734 99.7305 88.8594C99.7305 89.4219 99.7305 90.0195 99.7305 90.6523C99.7305 91.2852 99.7305 91.8828 99.7305 92.4453C99.7539 93.0078 99.7773 93.3945 99.8008 93.6055C99.8242 93.8633 99.9414 94.1914 100.152 94.5898C100.363 94.9648 100.586 95.3516 100.82 95.75C101.078 96.125 101.301 96.4531 101.488 96.7344C101.699 97.0156 101.793 97.168 101.77 97.1914C101.301 97.3555 100.855 97.3672 100.434 97.2266C100.012 97.0625 99.6367 96.8164 99.3086 96.4883C99.0039 96.1367 98.7461 95.75 98.5352 95.3281C98.3477 94.8828 98.2305 94.4492 98.1836 94.0273C98.1602 93.8164 98.125 93.4297 98.0781 92.8672C98.0312 92.2812 97.9844 91.6719 97.9375 91.0391C97.9141 90.4062 97.8789 89.8086 97.832 89.2461C97.8086 88.6836 97.7969 88.2969 97.7969 88.0859L96.9883 87.6641C96.8477 87.5938 96.6016 87.6523 96.25 87.8398C95.9219 88.0273 95.5352 88.2852 95.0898 88.6133C94.6445 88.9414 94.1758 89.3164 93.6836 89.7383C93.1914 90.1602 92.7227 90.5586 92.2773 90.9336C91.8555 91.3086 91.4922 91.6367 91.1875 91.918C90.8828 92.1992 90.6953 92.375 90.625 92.4453C90.4375 92.6328 90.0977 92.9727 89.6055 93.4648C89.1133 93.9336 88.5859 94.4492 88.0234 95.0117C87.4844 95.5508 86.9688 96.0664 86.4766 96.5586C86.0078 97.0508 85.6797 97.4023 85.4922 97.6133C85.1641 97.6836 84.8477 97.7188 84.543 97.7188C84.2617 97.6953 84.0391 97.5195 83.875 97.1914Z" fill="#FFCE0C"/>
<path d="M130 120.804L100.923 127.661L113.771 130.779V142L130 120.804Z" fill="#FFCE0C" stroke="#FFCE0C"/>
<path d="M115.462 131.926C110.727 132.031 107.127 134.745 102.28 134.745C98.7746 134.745 94.9123 134.68 91.5969 135.607C88.0474 136.6 83.9285 136.155 80.1815 136.155C77.4109 136.155 71.6623 137.15 69.5415 135.607C68.6057 134.926 67.0629 135.11 66.44 134.04C65.2546 132.005 63.8325 132.845 62.3908 131.534C60.06 129.415 58.0613 127.094 55.7569 124.876C52.963 122.186 51.1046 118.419 51.1046 114.341C51.1046 112.229 50.8242 106.87 49.5538 105.137" stroke="#FFCE0C" stroke-linecap="round" stroke-linejoin="round"/>
</svg>
