<svg width="576" height="568" viewBox="0 0 576 568" fill="none" xmlns="http://www.w3.org/2000/svg">
<path d="M239.99 174.498L195.48 211.741L208.198 227.183L245.44 232.633C258.462 258.82 265.664 274.876 278.141 308.935L311.751 292.585C303.547 269.228 299.22 256.311 286.316 229.908L239.99 174.498Z" fill="#20254B" stroke="#1D1916" stroke-width="3.63344"/>
<path d="M290.858 241.717C300.119 243.28 296.321 247.223 286.317 255.342M265.424 280.776C288.172 269.358 305.322 261.99 298.125 257.159M269.966 294.402C289.891 285.492 306.711 280.783 305.392 270.784M278.141 306.21C300.463 296.03 319.302 288.983 310.842 285.318" stroke="#009AA4" stroke-width="3.63344"/>
<path d="M365.116 116.92L358.261 125.048L347.802 119.272L352.099 110.206L352.552 114.243L356.675 110.918L355.11 115.182L360.399 111.318L358.521 116.434L363.497 113.423L361.931 117.686L365.116 116.92Z" fill="#FCC234" stroke="#FBB564" stroke-width="1.81672"/>
<path d="M346.268 115.455C338.688 137.363 330.503 144.736 315.384 157.239L328.101 169.956C344.397 155.724 352.421 144.596 359.893 124.538L346.268 115.455Z" fill="#F57E53"/>
<path d="M307.434 92.4049L298.939 98.7984L290.032 90.8355L296.243 82.9557L295.784 86.992L300.545 84.6713L298.068 88.4782L304.086 85.8916L301.114 90.4598L306.636 88.6345L304.159 92.4414L307.434 92.4049Z" fill="#FCC234" stroke="#FBB564" stroke-width="1.81672"/>
<path d="M289.042 89.1123C276.882 104.172 269.806 108.861 257.249 118.18L271.783 126.355C286.048 116.791 292.579 111.26 300.85 100.921C295.501 98.3967 292.682 96.4611 289.042 89.1123Z" fill="#009AA4" stroke="#009AA4" stroke-width="1.81672"/>
<path d="M341.538 87.9823L334.603 96.0418L324.202 90.1635L328.587 81.1396L329.001 85.1809L333.157 81.8974L331.549 86.1453L336.877 82.3337L334.948 87.4312L339.953 84.4692L338.346 88.7171L341.538 87.9823Z" fill="#FCC234" stroke="#FBB564" stroke-width="1.81672"/>
<path d="M293.583 140.889L308.117 150.881C311.691 135.498 314.492 128.134 322.651 119.997C331.551 109.725 335.937 104.042 338.093 94.5625C332.062 95.4419 328.68 92.375 322.651 88.204C320.22 97.3442 316.578 100.949 309.933 107.28C299.964 116.976 296.245 124.202 293.583 140.889Z" fill="#1B1F45" stroke="#1B1F45" stroke-width="1.81672"/>
<path d="M210.012 237.09L210.006 236.958L209.981 236.829C208.439 228.892 209.009 224.494 210.786 221.439C212.61 218.304 215.886 216.208 220.897 213.324L272.691 184.838V240.809V240.89L272.698 240.971C273.119 245.667 272.957 248.791 272.021 251.322C271.104 253.803 269.36 255.934 266.126 258.45L266.094 258.475L266.063 258.501C253.752 268.981 244.655 274.63 232.414 282.23C229.39 284.109 226.173 286.106 222.668 288.325L222.577 288.383L222.493 288.451C219.481 290.901 217.047 292.21 215 292.744C213.012 293.264 211.305 293.076 209.634 292.354C207.904 291.605 206.153 290.257 204.184 288.341C202.506 286.709 200.764 284.76 198.793 282.557C198.449 282.172 198.098 281.78 197.74 281.38L197.692 281.326L197.64 281.277C193.722 277.55 191.031 274.394 189.432 271.609C187.851 268.853 187.4 266.568 187.779 264.485C188.165 262.366 189.461 260.16 191.965 257.685C194.47 255.208 198.059 252.582 202.801 249.616L202.866 249.575L202.927 249.529C205.135 247.875 207.045 246.356 208.308 244.437C209.636 242.417 210.155 240.121 210.012 237.09Z" fill="white" stroke="#1D1916" stroke-width="3.63344"/>
<path d="M216.934 243.534C213.792 227.36 218.857 223.787 228.743 218.1L283.245 188.124V247.167C284.099 256.698 282.726 260.993 275.978 266.243C260.498 279.42 249.988 285.068 232.377 296.219C219.899 306.368 214.666 299.588 205.124 288.952C189.259 273.855 191.451 266.397 210.574 254.434C215.042 251.087 217.193 249.048 216.934 243.534Z" fill="#F5DED2"/>
<path d="M197.297 285.318C207.793 298.409 215.26 299.481 232.723 285.318C246.435 277.293 254.003 272.178 267.241 261.701C274.727 255.104 276.79 250.792 275.416 240.809V216.283" stroke="#1D1916" stroke-width="3.63344"/>
<path d="M328.131 168.45L334.293 175.492C334.611 176.923 334.459 178.847 333.921 181.136C333.378 183.445 332.445 186.107 331.227 188.975C328.79 194.712 325.219 201.26 321.361 207.444C317.504 213.627 313.364 219.439 309.795 223.703C308.009 225.835 306.37 227.576 304.982 228.783C304.288 229.386 303.661 229.852 303.113 230.166C302.588 230.468 302.152 230.62 301.809 230.634L294.737 226.214L328.131 168.45Z" fill="#C7B644" stroke="#211700" stroke-width="0.363344"/>
<path d="M162.296 178.715L162.253 178.669L162.207 178.625C159.489 176.064 157.509 173.885 156.198 171.944C154.891 170.009 154.316 168.413 154.256 166.991C154.137 164.2 155.992 161.178 161.217 156.816L161.234 156.802L161.251 156.787L212.999 111.396C218.713 106.822 222.781 104.416 226.522 103.933C230.122 103.468 233.808 104.753 238.871 108.71L238.927 108.754L238.987 108.793L281.68 137.078L311.656 156.937L311.661 156.941C321.14 163.169 325.638 167.953 326.68 172.831C327.71 177.651 325.501 183.257 319.371 191.589L319.315 191.665L319.267 191.747L303.847 218.051C301.384 221.813 299.391 223.319 297.227 223.685C294.939 224.072 291.961 223.291 287.268 221.082L248.363 191.224L247.091 190.248L245.965 191.389C242.271 195.127 239.827 196.779 237.742 197.043C235.836 197.285 233.671 196.402 230.356 193.179L230.123 192.952L229.825 192.821C227.172 191.647 224.826 191.261 222.44 192.067C220.224 192.816 218.244 194.517 216.069 196.756L204.365 205.759L204.326 205.789L204.288 205.821C198.857 210.489 195.643 211.388 193.19 210.736C191.899 210.393 190.58 209.568 189.085 208.153C187.587 206.735 186.019 204.828 184.206 202.461L184.155 202.395L184.098 202.333L179.557 197.413L162.296 178.715Z" fill="#EDBF56" stroke="#20192B" stroke-width="3.63344"/>
<path d="M156.421 171.773L232.724 105.464L230.908 104.555C226.481 102.897 224.964 103.805 218.191 107.279L157.331 160.873C152.429 167.887 152.528 167.244 156.421 171.773Z" fill="white"/>
<path d="M189.459 124.045L189.48 124.025L189.501 124.004C194.083 119.395 197.288 117.279 200.378 117.149C203.427 117.021 207.012 118.817 212.383 124.027L212.435 124.078L212.491 124.124C216.312 127.282 217.512 129.532 217.237 131.872C217.089 133.143 216.489 134.657 215.23 136.561C213.977 138.456 212.137 140.638 209.636 143.239C205.413 147.315 202.487 149.248 199.889 149.719C197.442 150.163 194.876 149.368 191.157 146.73C188.534 144.433 186.505 142.442 185.075 140.601C183.636 138.748 182.887 137.152 182.687 135.652C182.297 132.744 183.887 129.298 189.459 124.045Z" fill="white" stroke="#20192B" stroke-width="3.63344"/>
<path d="M260.881 176.315C247.349 179.231 245.989 185.405 250.889 201.75L257.249 211.741C260.762 216.829 264.12 217.577 271.783 214.466L286.316 207.199C292.509 204.953 295.574 203.384 295.4 196.299L289.95 178.132C286.737 170.356 283.828 168.24 275.416 170.865L260.881 176.315Z" fill="#009AA4"/>
<path d="M261.111 177.381L261.189 177.364L261.264 177.336L275.77 171.897C279.9 170.611 282.349 170.608 284.116 171.558C285.919 172.528 287.326 174.647 288.922 178.498L294.313 196.47C294.373 199.761 293.683 201.552 292.465 202.803C291.149 204.153 289.082 205.036 285.945 206.174L285.885 206.196L285.829 206.224L271.333 213.472C267.557 215.002 265.067 215.477 263.168 215.108C261.34 214.754 259.838 213.568 258.157 211.138L251.89 201.292C250.695 197.292 249.897 193.958 249.562 191.16C249.223 188.327 249.368 186.12 249.999 184.365C251.217 180.973 254.432 178.82 261.111 177.381Z" stroke="#222C71" stroke-opacity="0.66" stroke-width="2.18006"/>
<path d="M256.678 170.085L256.769 170.056L256.853 170.011C265.723 165.302 271.418 164.028 275.726 165.727C280.041 167.428 283.397 172.27 287.075 181.149C288.121 188.228 288.366 193.018 287.319 196.431C286.314 199.706 284.069 201.841 279.59 203.448L279.504 203.479L279.424 203.524C271.234 208.126 265.165 211.296 260.098 212.207C257.605 212.655 255.401 212.544 253.331 211.802C251.305 211.075 249.328 209.714 247.301 207.531C245.362 202.156 243.814 197.499 242.868 193.43C241.908 189.305 241.589 185.864 242.066 182.949C242.538 180.071 243.794 177.662 246.087 175.578C248.406 173.47 251.827 171.658 256.678 170.085Z" stroke="#20192B" stroke-width="2.18006"/>
<path d="M275 169C266.882 169.452 260.421 169.062 254.261 173.5C244.969 178.638 242.12 182.323 245.177 191.667L250.5 207C252.057 205.709 238.908 180.281 251.5 177C257.659 172.562 266.882 170.452 275 170" stroke="white" stroke-width="2"/>
<path d="M220.006 352.535C260.628 328.233 285.424 317.441 330.826 299.851L338.093 306.209L363.527 401.587C345.085 411.749 334.744 417.021 316.292 434.288C307.13 444.278 303.315 453.97 296.308 470.622C288.266 506.973 262.439 495.385 228.181 492.423C198.428 492.459 202.311 455.455 199.113 408.854C198.887 380.037 200.239 365.084 220.006 352.535Z" fill="#F2BE50"/>
<path d="M228.181 492.423C198.428 492.459 202.311 455.455 199.113 408.854C198.887 380.037 200.239 365.084 220.006 352.535C260.628 328.233 285.424 317.441 330.826 299.851L338.093 306.209L363.527 401.587C345.085 411.749 334.744 417.021 316.292 434.288C307.13 444.278 303.315 453.97 296.308 470.622M228.181 492.423C262.439 495.385 288.266 506.972 296.308 470.622M228.181 492.423L296.308 470.622" stroke="#F2BE50" stroke-width="3.63344"/>
<path d="M268.149 410.67C270.214 404.707 269.445 402.582 264.515 400.679C263.865 404.41 262.586 405.732 259.065 407.037C261.232 412.779 263.449 412.855 268.149 410.67Z" fill="#20254B"/>
<path d="M246.348 396.137C248.097 389.051 246.636 387.515 241.806 387.053C241.717 390.691 240.678 391.845 237.265 392.503C237.91 398.203 239.832 399.172 246.348 396.137Z" fill="#20254B"/>
<path d="M242.715 422.479C242.549 416.431 241.021 415.248 236.356 416.121C236.598 419.053 235.889 420.126 232.723 420.662C236.04 427.154 238.365 427.725 242.715 422.479Z" fill="#20254B"/>
<path d="M366.252 456.088L321.742 502.415C303.069 518.708 285.441 522.296 252.707 521.805L263.607 566L359.894 565.092L356.26 536.933C352.907 525.218 353.718 519.073 365.344 509.682L389.869 485.156L368.069 453.363L366.252 456.088Z" fill="#20254B"/>
<path d="M319.925 417.937C302.163 431.927 294.812 442.89 286.316 467.897C281.07 486.305 274.396 490.208 258.156 489.698C222.681 488.446 201.861 488.632 196.388 458.814C191.461 399.469 186.209 361.665 206.38 347.994C232.893 331.085 252.741 320.421 276.323 310.167M318.108 293.492C302.142 299.502 288.717 304.778 276.323 310.167M325.375 291.675L339.908 305.301M276.323 310.167C268.355 299.731 263.889 293.869 251.798 297.125M248.164 298.942L190.029 321.651C172.131 328.849 168.744 337.682 172.77 360.711C177.176 377.24 180.412 384.593 188.213 392.503M217.281 489.698C218.013 513.146 220.602 523.473 240.898 521.49C245.047 521.64 248.975 521.749 252.707 521.805M252.707 521.805C285.441 522.296 303.069 518.708 321.742 502.415L366.252 456.088L368.069 453.363L389.869 485.156L365.344 509.682C353.718 519.073 352.907 525.218 356.26 536.933L359.894 565.092L263.607 566L252.707 521.805ZM264.515 400.679C269.445 402.582 270.214 404.707 268.149 410.67C263.449 412.855 261.232 412.779 259.065 407.037C262.586 405.732 263.865 404.41 264.515 400.679ZM241.806 387.053C246.636 387.515 248.097 389.051 246.348 396.137C239.832 399.172 237.91 398.203 237.265 392.503C240.678 391.845 241.717 390.691 241.806 387.053ZM236.356 416.121C241.021 415.248 242.549 416.431 242.715 422.479C238.365 427.725 236.04 427.154 232.723 420.662C235.889 420.126 236.598 419.053 236.356 416.121Z" stroke="#20254B" stroke-width="3.63344"/>
<path d="M289.041 488.788C282.912 500.513 257.626 496.505 226.364 496.055L228.181 518.765H282.683C312.802 515.586 331.526 491.068 364.435 453.363L349.901 425.203C318.562 416.449 308.278 443.858 289.041 488.788Z" fill="#009AA4"/>
<path d="M366.252 462.446C350.428 483.157 338.568 495.81 322.293 506.956M299.033 520.581C307.958 515.985 315.509 511.601 322.293 506.956M322.293 506.956C323.391 515.658 324.324 522.89 325.266 529.665M330.826 564.182C329.998 559.611 329.268 555.434 328.602 551.465M263.607 539.657C289.731 537.791 305.593 537.955 325.266 529.665M325.266 529.665C326.291 537.039 327.328 543.871 328.602 551.465M328.602 551.465C311.583 558.744 296 558.745 270.874 560.549M226.364 496.055C257.626 496.505 282.912 500.513 289.041 488.788C308.278 443.858 318.562 416.449 349.901 425.203L364.435 453.363C331.526 491.068 312.802 515.586 282.683 518.765H228.181L226.364 496.055Z" stroke="#009AA4" stroke-width="3.63344"/>
<path d="M201.84 325.286C177.21 331.93 180.149 348.199 186.397 377.97C191.99 344.508 223.104 332.279 268.149 308.027C263.743 300.035 259.412 302.065 251.799 305.302L201.84 325.286Z" fill="#FAD9CA" stroke="#FAD9CA" stroke-width="3.63344"/>
<path d="M36.5171 392.503C54.187 391.12 63.1842 388.6 76.4849 378.878C77.7982 386.193 79.0281 393.169 80.2464 399.77C82.2267 410.5 84.1765 420.241 86.4041 428.838C89.0364 438.997 92.0567 447.559 95.9739 454.272C100.484 462 106.183 467.277 113.847 469.714C120.188 471.73 127.874 471.803 137.345 469.714C145.625 462.998 152.453 456.823 158.237 450.621C173.136 434.648 181.11 418.501 189.122 392.503C189.984 409.66 190.638 423.46 191.721 435.196C192.976 448.803 194.806 459.637 198.205 469.714C194.455 472.969 191.735 478.533 188.213 481.522C178.373 489.876 171.248 497.432 162.779 503.323C146.729 514.488 129.813 517.993 115.544 517.34C102.552 516.745 89.4448 510.443 74.6682 496.965C71.8037 493.955 69.1778 490.946 66.7619 487.881C57.1608 475.702 50.8744 462.647 46.0939 445.188C43.3882 435.306 41.1648 424.014 39.0958 410.67C38.2168 405.001 37.3656 398.962 36.5171 392.503Z" fill="#E2EEEB"/>
<path d="M137.345 469.714C145.625 462.998 152.453 456.823 158.237 450.621M137.345 469.714C144.142 484.993 151.597 494.93 162.779 503.323M137.345 469.714C127.874 471.803 120.188 471.73 113.847 469.714M177.313 425.204C182.92 430.883 186.074 433.186 191.721 435.196M191.721 435.196C190.638 423.46 189.984 409.66 189.122 392.503C181.11 418.501 173.136 434.648 158.237 450.621M191.721 435.196C192.976 448.803 194.806 459.637 198.205 469.714C194.455 472.969 191.735 478.533 188.213 481.522M158.237 450.621C168.532 464.937 175.616 474.183 188.213 481.522M188.213 481.522C178.373 489.876 171.248 497.432 162.779 503.323M162.779 503.323C146.729 514.488 129.813 517.993 115.544 517.34M113.847 469.714C110.547 490.525 110.493 501.182 115.544 517.34M113.847 469.714C106.183 467.277 100.484 462 95.9739 454.272M115.544 517.34C102.552 516.745 89.4448 510.443 74.6682 496.965C71.8037 493.955 69.1778 490.946 66.7619 487.881M95.9739 454.272C81.7719 463.395 74.9763 470.183 66.7619 487.881M95.9739 454.272C92.0567 447.559 89.0364 438.997 86.4041 428.838M66.7619 487.881C57.1608 475.702 50.8744 462.647 46.0939 445.188M86.4041 428.838C63.887 429.01 55.0496 432.579 46.0939 445.188M86.4041 428.838C84.1765 420.241 82.2267 410.5 80.2464 399.77M46.0939 445.188C43.3882 435.306 41.1648 424.014 39.0958 410.67M80.2464 399.77C79.0281 393.169 77.7982 386.193 76.4849 378.878C63.1842 388.6 54.187 391.12 36.5171 392.503C37.3656 398.962 38.2168 405.001 39.0958 410.67M80.2464 399.77C62.4057 397.679 52.7265 397.674 39.0958 410.67" stroke="#20254B" stroke-width="3.63344"/>
<path d="M76.4849 378.878C63.538 388.1 55.1458 391.613 36.5171 392.503L39.2422 410.67C51.9571 398.296 61.4872 397.357 80.1184 399.77L76.4849 378.878Z" fill="#20254B" stroke="#20254B" stroke-width="3.63344"/>
<path d="M54.4758 309.843C73.7782 311.573 81.936 318.185 89.9019 340.727C86.4234 349.941 85.2716 357.243 84.4517 373.428C46.6454 393.358 28.1134 399.018 14.508 368.886C0.546921 342.251 -6.68307 327.608 19.9581 320.743C33.71 313.903 41.3515 310.718 54.4758 309.843Z" fill="#ECC14E" stroke="#DBBA77" stroke-width="3.63344"/>
<path d="M31.0677 292.673C40.9796 296.329 39.591 300.406 35.6095 308.115L23.8006 300.848V309.023C22.9667 318.709 22.0721 323.611 19.259 330.824C11.3021 328.64 7.72583 326.682 1.99999 322.649L7.45016 293.581C9.23892 285.419 11.6985 283.838 19.259 287.223L31.0677 292.673Z" fill="#00B8C4"/>
<path d="M37.426 272.689L58.3183 282.681V292.673L61.0439 290.857C64.9949 284.992 66.6041 282.018 61.0439 278.139C56.9115 275.83 55.518 274.165 58.3183 269.056C62.3211 262.027 70.5718 267.177 84.6608 275.414C90.1653 276.478 88.3758 281.16 84.6608 289.949H74.6688L68.3103 309.023C52.9975 300.926 44.761 295.131 30.1592 284.499C27.3943 282.351 26.8274 280.48 28.3424 275.414C30.2016 270.129 32.0764 269.318 37.426 272.689Z" fill="#00B8C4"/>
<path d="M108.279 335.366C117.165 334.752 121.546 336.088 129.171 339C128.505 352.354 127.783 359.191 121.904 362.617C107.388 367.578 100.238 366.072 88.2947 359.892C88.0204 352.155 89.0808 348.694 97.3783 347.175C108.546 353.49 109.615 348.183 108.279 335.366Z" fill="#00B8C4"/>
<path d="M99.1936 340.816C95.5103 326.624 91.0788 319.163 76.4846 307.207M99.1936 340.816C109.507 348.356 113.138 349.163 112.82 339.908C112.536 331.957 115.791 330.194 126.444 330.824C137.863 330.916 136.469 338.297 133.711 351.717C130.222 363.464 126.729 367.816 114.636 367.159C98.9883 366.28 89.709 366.058 87.3849 358.075M99.1936 340.816C89.1229 339.653 88.1331 345.733 87.3849 358.075M76.4846 307.207C78.4394 292.183 79.6958 284.259 88.2933 289.948C95.2496 280.554 99.5661 275.205 90.11 269.056C77.2984 263.193 67.48 255.832 64.6759 265.423L60.1341 274.506M76.4846 307.207C63.4416 301.915 56.0249 298.968 62.8606 289.948M60.1341 274.506L46.5087 269.056C38.7843 265.384 34.6635 263.71 32.8833 270.873L29.2498 283.59M60.1341 274.506C67.181 278.723 66.8842 282.375 62.8606 289.948M29.2498 283.59C19.735 280.059 14.1342 277.631 12.8994 288.131L10.1743 311.749C9.43973 318.505 10.6182 321.336 17.4412 323.557C22.1753 324.666 24.986 326.439 27.4345 329.815M29.2498 283.59L46.5087 290.856C53.7083 296.331 57.2639 295.953 62.8606 289.948M29.2498 283.59C43.2566 291.355 54.0423 294.912 44.6934 309.024C41.3082 311.876 39.0716 312.376 33.793 309.024L30.9382 307.207M87.3849 358.075C84.4996 351.229 73.2513 354.865 57.409 358.075C46.6405 360.178 41.0487 351.511 31.0666 336.275C29.8143 333.632 28.6706 331.519 27.4345 329.815M23.8011 302.665L30.9382 307.207M30.9382 307.207L27.4345 329.815M88.2933 367.159C58.3707 380.508 38.9325 393.149 27.4345 370.792C15.365 351.058 6.35074 338.96 5.63388 324.466" stroke="#20254B" stroke-width="3.63344"/>
<path d="M350.66 419.712L387.206 403.931C388.398 406.346 389.941 409.714 391.486 413.097L391.687 413.537C393.497 417.5 395.292 421.431 396.435 423.614C402.108 434.445 407.306 443.996 412.924 451.751C419.131 460.32 425.939 466.825 434.631 470.48C441.763 473.479 450.021 474.501 460.024 473.335L460.482 473.282L460.86 473.016C468.481 467.646 474.347 461.832 478.947 455.32C489.034 441.037 492.883 423.588 496.13 400.74L496.131 400.73L496.132 400.721L498.572 382.19L534.05 393.741C533.144 398.833 532.253 403.758 531.365 408.52C529.147 420.405 526.942 431.259 524.521 441.121C519.763 460.503 514.198 475.932 506.171 487.77C495.83 503.019 481.291 512.473 458.586 516.522C457.775 516.667 456.955 516.805 456.123 516.935C437.854 515.219 423.573 510.172 410.907 501.159C402.517 495.189 394.784 487.441 387.052 477.67C379.713 468.396 372.394 457.322 364.524 444.251C361.958 439.99 358.154 433.155 354.639 426.839C353.234 424.315 351.875 421.873 350.66 419.712Z" fill="#E2EEEB" stroke="#20254B" stroke-width="3.63344"/>
<path d="M536.115 392.503L497.056 379.786L494.331 400.678C511.842 397.792 520.343 399.72 533.39 408.854L536.115 392.503Z" fill="#20254B" stroke="#20254B" stroke-width="3.63344"/>
<path d="M321.425 318.474L367.751 299.399C374.754 296.579 379.882 296.482 384.1 298.556C390.866 301.883 395.291 310.795 401.357 323.013L401.359 323.016C407.833 335.19 410.675 342.133 414.076 354.808C419.012 376.541 415.632 385.36 401.359 396.593C385.727 407.812 374.659 412.178 354.124 419.302C343.085 421.865 335.63 421.501 328.69 417.242C324.209 414.492 319.942 410.119 315.064 403.86C307.475 393.773 303.496 385.946 296.899 367.526C286.269 335.238 296.157 327.436 321.425 318.474Z" fill="#FFD7C7" stroke="#E2CEC5" stroke-width="3.63344"/>
<path d="M315.386 318.018L361.712 298.943C368.715 296.123 373.843 296.026 378.061 298.1C384.827 301.427 389.252 310.339 395.318 322.557L395.32 322.56C401.794 334.734 404.636 341.677 408.037 354.353C412.973 376.085 409.593 384.904 395.32 396.137C379.688 407.356 368.62 411.722 348.085 418.846C337.046 421.409 329.591 421.045 322.651 416.786C318.17 414.036 313.903 409.663 309.025 403.404C301.436 393.317 297.457 385.49 290.86 367.07C280.23 334.782 290.118 326.98 315.386 318.018Z" fill="#FFD7C7"/>
<path d="M378.061 298.1C384.827 301.427 389.252 310.34 395.32 322.56C401.794 334.734 404.636 341.677 408.037 354.353C412.973 376.085 409.593 384.904 395.32 396.137C379.688 407.356 368.62 411.722 348.085 418.846C337.046 421.409 329.591 421.045 322.651 416.786M378.061 298.1C373.843 296.026 368.715 296.123 361.712 298.943L315.386 318.018C290.118 326.98 280.23 334.782 290.86 367.07C297.457 385.49 301.436 393.317 309.025 403.404C313.903 409.663 318.17 414.036 322.651 416.786M378.061 298.1L356.26 341.635C351.725 350.375 349.928 354.946 356.26 358.894C361.021 362.092 361.648 364.366 357.168 369.794C355.713 372.796 354.08 373.569 348.993 372.519C344.917 371.436 343.059 372.338 340.818 377.061C341.252 380.624 342.255 381.242 344.451 381.603C349.614 382.748 351.949 383.723 348.993 389.778C346.558 393.402 344.799 394.301 340.818 393.412C336.532 392.321 334.708 393.301 332.643 397.953L322.651 416.786" stroke="#20254B" stroke-width="3.63344"/>
<path d="M521.581 308.934C502.279 310.664 494.121 317.277 486.155 339.818C489.634 349.033 490.786 356.334 491.605 372.519C529.412 392.449 547.944 398.11 561.549 367.977C575.51 341.343 582.74 326.699 556.099 319.834C542.347 312.994 534.706 309.81 521.581 308.934Z" fill="#ECC14E" stroke="#DBBA77" stroke-width="3.63344"/>
<path d="M545.199 293.492C535.288 297.147 536.676 301.225 540.658 308.934L552.466 301.667V309.842C553.3 319.527 554.195 324.43 557.008 331.643C564.965 329.459 568.541 327.501 574.267 323.468L568.817 294.4C567.028 286.237 564.569 284.657 557.008 288.042L545.199 293.492Z" fill="#00B8C4"/>
<path d="M538.841 273.508L517.949 283.5V293.492L515.223 291.675C511.272 285.81 509.663 282.837 515.223 278.958C519.356 276.648 520.749 274.984 517.949 269.875C513.946 262.846 505.695 267.996 491.606 276.233C486.102 277.297 487.891 281.979 491.606 290.767H501.598L507.957 309.842C523.27 301.745 531.506 295.95 546.108 285.317C548.873 283.17 549.44 281.299 547.925 276.233C546.065 270.948 544.191 270.137 538.841 273.508Z" fill="#00B8C4"/>
<path d="M467.988 336.185C459.102 335.57 454.721 336.906 447.096 339.818C447.762 353.173 448.484 360.01 454.363 363.436C468.88 368.396 476.029 366.891 487.972 360.711C488.247 352.974 487.186 349.513 478.889 347.994C467.721 354.308 466.652 349.001 467.988 336.185Z" fill="#00B8C4"/>
<path d="M477.073 341.635C480.756 327.443 485.188 319.982 499.782 308.026M477.073 341.635C466.759 349.174 463.129 349.982 463.446 340.727C463.731 332.776 460.475 331.013 449.822 331.643C438.404 331.735 439.797 339.116 442.555 352.535C446.045 364.283 449.538 368.635 461.631 367.977C477.278 367.099 486.558 366.877 488.882 358.894M477.073 341.635C487.144 340.472 488.134 346.552 488.882 358.894M499.782 308.026C497.827 293.002 496.571 285.078 487.973 290.767C481.017 281.373 476.7 276.023 486.157 269.875C498.968 264.012 508.787 256.65 511.591 266.242L516.133 275.325M499.782 308.026C512.825 302.734 520.242 299.787 513.406 290.767M516.133 275.325L529.758 269.875C537.482 266.203 541.603 264.528 543.383 271.691L547.017 284.408M516.133 275.325C509.086 279.542 509.382 283.194 513.406 290.767M547.017 284.408C556.532 280.877 562.132 278.449 563.367 288.95L566.092 312.568C566.827 319.324 565.648 322.155 558.825 324.376C554.091 325.485 551.281 327.258 548.832 330.634M547.017 284.408L529.758 291.675C522.558 297.149 519.003 296.772 513.406 290.767M547.017 284.408C533.01 292.174 522.224 295.731 531.573 309.842C534.958 312.694 537.195 313.195 542.474 309.842L545.328 308.026M488.882 358.894C491.767 352.047 503.015 355.684 518.858 358.894C529.626 360.997 535.218 352.329 545.2 337.093C546.452 334.451 547.596 332.338 548.832 330.634M552.466 303.484L545.328 308.026M545.328 308.026L548.832 330.634M487.973 367.977C517.896 381.326 537.334 393.968 548.832 371.611C560.902 351.877 569.916 339.778 570.633 325.285" stroke="#20254B" stroke-width="3.63344"/>
<path d="M171.863 216.281L128.262 237.174L143.704 245.349L128.262 267.149L176.405 238.082L160.054 231.723L171.863 216.281Z" fill="#E69366"/>
<path d="M80.1187 160.871L114.636 199.022L111.911 171.772L133.712 199.022L132.804 184.489L145.521 198.114M130.078 83.6607L150.971 112.728M166.413 58.2266L178.222 90.9276M217.281 85.4774L212.739 43.6929M246.349 50.9598V69.127M451.638 97.2861L406.22 113.637C391.723 117.946 383.877 120.514 390.778 136.346L406.22 182.672C408.728 192.354 412.105 194.343 422.57 189.939L434.379 186.305C445.91 184.26 454.107 184.115 452.546 174.497L450.73 152.696C451.648 137.454 447.875 134.403 434.379 139.071L402.586 147.246M128.262 237.174L171.863 216.281L160.054 231.723L176.405 238.082L128.262 267.149L143.704 245.349L128.262 237.174Z" stroke="#C87A50" stroke-width="3.63344"/>
<path d="M402.584 147.246C383.279 150.662 372.234 152.445 378.058 170.863L383.509 208.106C384.838 218.732 388.642 221.302 399.86 220.823L412.577 218.098C420.673 215.053 422.234 216.281 418.027 225.365L407.127 247.166M354.442 203.564L339.908 225.365C332.321 235.4 333.252 239.735 342.633 245.349L359.893 261.699C365.08 264.973 367.553 265.334 369.885 258.974L377.152 245.349C379.953 240.239 379.516 238.307 371.702 238.082C356.584 235.679 345.999 232.711 348.085 243.532L341.726 259.883C336.387 268.176 334.696 272.471 342.633 277.141L369.885 289.859C377.929 294.209 381.712 293.302 387.144 286.225L398.953 266.241M143.704 294.4L165.504 269.875M170.954 284.408L162.779 294.4C159.113 300.239 159.278 301.617 164.596 299.85C168.594 296.024 170.3 295.163 170.046 301.667L163.688 313.476M437.104 535.116C465.648 540.619 479.538 538.758 498.872 525.124M458.905 554.191C467.698 555.513 472.156 555.285 478.889 552.375M26.5252 469.714C38.1415 496.527 46.9869 507.893 67.4014 520.582M19.2583 491.514C25.9979 511.671 31.5531 519.85 44.6924 528.757" stroke="#C87A50" stroke-width="3.63344"/>
<path d="M307.208 60.0434H309.025M310.842 60.0434H309.025M309.025 60.0434V58.2267V61.8601" stroke="#CEC5BC" stroke-width="1.81672"/>
<path d="M298.779 65.7717L300.474 65.1172M302.169 64.4628L300.474 65.1172M300.474 65.1172L299.82 63.4225L301.129 66.812" stroke="#CEC5BC" stroke-width="1.81672"/>
<path d="M305.454 68.2177L307.269 68.2791M309.085 68.3406L307.269 68.2791M307.269 68.2791L307.331 66.4635L307.208 70.0948" stroke="#CEC5BC" stroke-width="1.81672"/>
<path d="M300.003 73.6677L301.819 73.7292M303.635 73.7907L301.819 73.7292M301.819 73.7292L301.881 71.9135L301.758 75.5449" stroke="#CEC5BC" stroke-width="1.81672"/>
<path d="M294.553 77.3012L296.369 77.3626M298.185 77.4241L296.369 77.3626M296.369 77.3626L296.43 75.547L296.307 79.1783" stroke="#CEC5BC" stroke-width="1.81672"/>
<path d="M341.726 64.5852H343.543M345.36 64.5852H343.543M343.543 64.5852V62.7684V66.4019" stroke="#CEC5BC" stroke-width="1.81672"/>
<path d="M333.297 70.3134L334.992 69.659M336.687 69.0046L334.992 69.659M334.992 69.659L334.337 67.9642L335.646 71.3537" stroke="#CEC5BC" stroke-width="1.81672"/>
<path d="M339.971 72.7594L341.787 72.8209M343.603 72.8824L341.787 72.8209M341.787 72.8209L341.848 71.0052L341.725 74.6366" stroke="#CEC5BC" stroke-width="1.81672"/>
<path d="M334.521 78.2095L336.337 78.271M338.152 78.3324L336.337 78.271M336.337 78.271L336.398 76.4553L336.275 80.0866" stroke="#CEC5BC" stroke-width="1.81672"/>
<path d="M329.071 81.8429L330.887 81.9044M332.702 81.9659L330.887 81.9044M330.887 81.9044L330.948 80.0887L330.825 83.7201" stroke="#CEC5BC" stroke-width="1.81672"/>
<path d="M374.427 90.0192H376.244M378.061 90.0192H376.244M376.244 90.0192V88.2025V91.836" stroke="#CEC5BC" stroke-width="1.81672"/>
<path d="M365.998 95.7475L367.693 95.0931M369.388 94.4387L367.693 95.0931M367.693 95.0931L367.039 93.3983L368.347 96.7878" stroke="#CEC5BC" stroke-width="1.81672"/>
<path d="M372.672 98.1935L374.488 98.255M376.304 98.3164L374.488 98.255M374.488 98.255L374.55 96.4393L374.427 100.071" stroke="#CEC5BC" stroke-width="1.81672"/>
<path d="M367.222 103.644L369.038 103.705M370.854 103.767L369.038 103.705M369.038 103.705L369.099 101.889L368.976 105.521" stroke="#CEC5BC" stroke-width="1.81672"/>
<path d="M361.772 107.277L363.588 107.338M365.403 107.4L363.588 107.338M363.588 107.338L363.649 105.523L363.526 109.154" stroke="#CEC5BC" stroke-width="1.81672"/>
<path d="M372.97 78.0364L381.865 72.2118L390.233 80.74L383.52 88.1969L384.242 84.1992L379.339 86.2037L382.06 82.5669L375.886 84.7547L379.15 80.3905L373.52 81.8509L376.241 78.214L372.97 78.0364Z" fill="#FCC234" stroke="#FBB564" stroke-width="1.81672"/>
<path d="M470.71 2.81677H436.192C409.218 24.9693 395.831 39.5575 376.24 70.9438C385.415 74.4687 388.64 77.5506 391.682 84.5692C399.726 79.4261 402.684 74.3855 408.033 65.4936C426.76 32.0565 442.751 21.8682 470.71 2.81677Z" fill="#009AA4" stroke="#107C83" stroke-width="1.81672"/>
<path d="M303.575 50.9599L307.209 40.9679L319.017 42.7846L318.109 52.7766L316.292 49.1431L313.567 53.6849V49.1431L309.934 54.5933V49.1431L306.3 53.6849V49.1431L303.575 50.9599Z" fill="#FCC234" stroke="#FBB564" stroke-width="1.81672"/>
<path d="M303.575 43.6929C307.976 28.2669 308.415 18.8522 306.3 1H325.376C327.166 18.4199 326.809 28.3185 321.742 46.418C315.887 44.0239 311.947 43.3905 303.575 43.6929Z" fill="#F67B59" stroke="#D48068" stroke-width="1.81672"/>
<path d="M333.003 56.2358L341.897 50.4112L350.265 58.9393L343.552 66.3963L344.274 62.3986L339.371 64.4031L342.092 60.7662L335.918 62.954L339.182 58.5898L333.552 60.0502L336.273 56.4134L333.003 56.2358Z" fill="#FCC234" stroke="#FBB564" stroke-width="1.81672"/>
<path d="M385.328 1.90833H360.802C360.205 16.7754 351.235 28.7941 339.91 48.2347L352.627 60.9517C372.698 39.8058 384.273 28.0335 385.328 1.90833Z" fill="#1E214E" stroke="#1B1F45" stroke-width="1.81672"/>
</svg>
