<?xml version="1.0" encoding="UTF-8"?>
<!-- Created with Inkscape (http://www.inkscape.org/) -->
<svg width="137" height="144" version="1.1" viewBox="0 0 36.248 38.1" xml:space="preserve" xmlns="http://www.w3.org/2000/svg"><g transform="translate(-44.072 -62.352)" fill="#fecb00"><path d="m58.236 98.182c-0.49189-0.05096-0.90853-0.12802-1.1938-0.22081-0.68382-0.2224-1.3777-0.6795-1.8901-1.245-0.34942-0.3857-0.39583-0.46735-0.34819-0.61272 0.04132-0.12612 0.16514-0.19503 0.26919-0.14984 0.03826 0.01664 0.17041 0.1159 0.29375 0.22073 0.42063 0.35738 0.65836 0.5109 1.1087 0.71595 1.2992 0.59156 2.7772 0.54323 4.5231-0.1479 0.56358-0.2231 1.6545-0.78636 2.0256-1.0459l0.09094-0.06359-0.13858-0.14868c-0.46076-0.49439-0.55424-1.1199-0.2983-1.9961 0.44932-1.5381 2.121-3.362 3.8516-4.2024 0.59454-0.28871 0.77545-0.34264 1.3518-0.40297 0.50148-0.0525 0.56459-0.05043 0.74427 0.02386 0.62621 0.25906 0.7199 1.0138 0.25848 2.0822-0.16431 0.38042-0.82325 1.3466-1.2405 1.8188-0.49451 0.55969-1.1565 1.2039-1.7899 1.7417-0.19406 0.16477-0.35931 0.31616-0.36723 0.33639-0.04884 0.12488 1.3918-0.0094 2.3183-0.21643 0.73076-0.16313 1.8588-0.49585 2.6004-0.76704 2.0317-0.74291 2.7167-1.0251 4.8659-2.0046 0.66614-0.30359 1.2783-0.57956 1.3603-0.61327 0.082-0.03371 0.14126-0.0689 0.1317-0.07822-0.0094-0.0094-0.13723-0.02283-0.28369-0.03003-1.0709-0.05273-1.6618-0.12105-1.7448-0.20177-0.06301-0.0612-0.01523-0.25473 0.09167-0.37204 0.08968-0.09835 0.11181-0.10158 2.1908-0.31798l2.1002-0.21862 0.12122 0.11784c0.12873 0.12512 0.20345 0.34216 0.18368 0.53349-0.0066 0.06127-0.10317 0.26971-0.21524 0.46322-0.49338 0.85209-0.73444 1.3354-1.0838 2.1729-0.3916 0.93885-0.66771 1.2649-0.99388 1.1738-0.37695-0.10534-0.32019-0.74034 0.15759-1.7631 0.13153-0.28154 0.2301-0.52065 0.21908-0.53137-0.01919-0.01871-0.143 0.02904-0.5175 0.19925-0.1564 0.07107-1.3942 0.57825-2.6454 1.0839-0.27947 0.11294-0.66244 0.26776-0.85105 0.34405-0.86566 0.35011-2.237 0.87754-2.6629 1.0242-0.10438 0.03594-0.35276 0.12145-0.55199 0.19005-1.7984 0.61917-2.7617 0.85687-4.0067 0.98864-0.9134 0.09677-1.4345 0.09916-1.9722 0.0094-0.24114-0.04021-0.34332-0.04039-0.41276-7.43e-4 -0.05076 0.02895-0.31866 0.19528-0.59534 0.36956-0.98344 0.61945-1.8769 1.053-2.8745 1.3948-0.40055 0.13726-0.57957 0.17336-1.2776 0.25759-0.44644 0.05404-0.85237 0.09377-0.90202 0.08883zm7.6188-4.5771c0.77859-0.67801 1.3076-1.2368 1.6941-1.7895 0.30686-0.43877 0.425-0.69536 0.49107-1.0665 0.05647-0.31719 0.04414-0.43939-0.06089-0.60108-0.10339-0.15958-0.20745-0.21402-0.43652-0.22833-1.0792-0.06745-3.1217 1.4958-3.7227 2.8493-0.31529 0.70998-0.22867 1.3695 0.22681 1.727 0.36159 0.28382 0.3144 0.29369 0.95072-0.1989 0.30973-0.23976 0.69543-0.55114 0.85711-0.69193zm1.6703-2.664c-0.02343-0.02697-0.08127-0.09844-0.12844-0.15881-0.1529-0.19563-0.48798-0.26619-0.65003-0.13688-0.1207 0.09635-0.08158-0.03184 0.04981-0.16318 0.07864-0.07857 0.15876-0.11279 0.29846-0.12733 0.31252-0.03253 0.55191 0.13956 0.61865 0.44476 0.03553 0.1625 0.03271 0.17192-0.05414 0.18096-0.05043 0.0053-0.11082-0.01242-0.13428-0.03948zm2.935 4.6712c-0.0293-0.04465 0.2162-0.17693 0.54089-0.29141 0.29251-0.10314 0.76247-0.27777 1.2856-0.47774 0.43754-0.16725 0.49661-0.18105 0.48513-0.11332-0.01192 0.07056-0.62494 0.38117-1.1136 0.5643-0.85002 0.31851-1.1462 0.39716-1.1979 0.31816zm-15.994 0.12752c-0.04215-0.04515-0.07342-0.14511-0.08723-0.27867l-0.0215-0.20829 0.10014 0.11792c0.15891 0.1871 0.16706 0.53884 0.0084 0.36905z" stroke-width=".03889"/><g transform="rotate(-17.316)" stroke-width=".36692" aria-label="New Stuff!"><path d="m29.636 77.831q-0.20548 1.9667-0.39628 3.9481-0.24951 2.3483-0.24951 3.9188 0 0.5137 0.02935 1.0127 0.01468 0.23483-0.17612 0.41096-0.17612 0.17612-0.41096 0.17612-0.45499 0-0.7632-0.61643-0.93933-1.8346-2.3336-5.7534-0.02935-0.08806-0.07338-0.08806-0.10274 0-0.13209 0.20548-0.24951 2.0988-0.24951 4.4178 0 1.1155 0.05871 2.2749 0.01468 0.42563-0.24951 0.58708-0.10274 0.10274-0.22016 0.10274-0.10274 0-0.26419-0.08806-0.22016-0.10274-0.27886-0.13209-0.1908-0.05871-0.23483-0.35225-0.01468-0.23483-0.02935-0.48434-0.04403-0.82191-0.04403-1.7172 0-1.5558 0.17612-3.8894 0.27886-3.5518 0.30822-3.9334 0.01468-0.32289 0.54305-0.32289 0.24951-0.02935 0.73385 0.36692 0.46966 0.8953 1.1595 2.906 0.66046 1.9227 1.2035 2.9207 0.22016-1.952 0.68982-5.9002 0.04403-0.29354 0.42563-0.29354 0.13209 0 0.30822 0.04403 0.23483 0.05871 0.27886 0.07338 0.14677 0.05871 0.1908 0.20548z"/><path d="m35.434 79.387q-0.54305 0.22016-1.5998 0.5137t-1.5998 0.5137q-0.13209 0.3816-0.1908 1.7025 0.23483 0.08806 0.54305 0.08806 0.22016 0 0.68982-0.07339t0.68982-0.07339q0.41096 0 0.7045 0.17612 0.20548 0.29354 0.20548 0.3816 0 0.10274-0.10274 0.16145-0.02935 0.01468-0.20548 0.20548-0.11742 0.13209-0.29354 0.11742-0.30822 0.07339-1.1301 0.08806-0.68982 0.01468-1.1008 0.17612-0.27886 1.0861-0.27886 1.7172 0 0.42563 0.11742 0.67514 0.68982 0.48434 2.3924 0.41096 0.11742 0 0.24951-0.10274 0.13209-0.11742 0.22016-0.11742 0.41096-0.08806 0.54305 0.61643 0.04403 0.23483-0.08806 0.42563-0.11742 0.20548-0.35225 0.22016-1.7759 0.05871-3.0822-0.27886-0.41096-0.10274-0.74853-0.45499t-0.3816-0.79256q-0.13209-1.2769 0-2.2896-0.41096-0.27886-0.36692-0.54305 0.01468-0.13209 0.22016-0.23483 0.22016-0.11742 0.24951-0.23483 0.02935-0.11742 0.11742-1.3943-0.82191-0.16145-0.80724-0.61643 0.01468-0.42563 0.5137-0.67514 0.46966-0.1908 0.93933-0.3816 0.55773-0.27886 1.3796-0.49902 0.7045-0.1908 1.4237-0.36692 0.07339-0.01468 0.17612-0.01468 0.39628 0 0.92465 0.30822 0.01468 0.05871 0.07339 0.22016 0.05871 0.16145 0.05871 0.23483 0 0.11742-0.10274 0.1908z"/><path d="m42.112 79.167q0.33757 0.16145 0.33757 0.46966 0 0.20548-0.17612 0.55773-0.22016 0.46966-0.23483 0.52837-0.35225 1.0861-0.67514 3.3023-0.30822 2.2162-0.63111 3.2583-0.08806 0.29354-0.49902 0.29354-0.1908 0-0.33757-0.07339-0.54305-0.27886-0.77788-1.0861-0.01468-0.07339-0.27886-1.4677-0.13209-0.73385-0.24951-1.5704-0.20548 0.41096-0.54305 2.0401-0.29354 1.409-0.68982 1.7906-0.11742 0.11742-0.41096 0.02935-0.44031-0.05871-0.58708-0.52837-0.08806-0.41096-0.17612-0.82191-0.26419-1.0567-0.42563-3.2876-0.14677-2.2309-0.41096-3.2583-0.04403-0.17612 0.04403-0.33757t0.24951-0.17612q0.11742-0.02935 0.23483-0.02935 0.41096 0 0.63111 0.36692 0.23483 1.2329 0.55773 4.7994 0.11742-0.24951 0.26419-0.92465 0.16145-0.68982 0.30822-0.99804 0.13209-0.55773 0.24951-1.1155 0.17612-0.67514 0.73385-0.67514 0.14677 0 0.32289 0.04403 0.01468 0.08806 0.13209 0.10274 0.11742 0.01468 0.13209 0.04403 0.32289 0.71917 0.48434 1.9227 0.24951 1.7025 0.30822 1.9667 0.23483-1.3063 0.48434-2.5978 0.30822-1.5117 0.79256-2.4657 0.10274-0.1908 0.42563-0.1908 0.23483 0 0.41096 0.08806z"/><path d="m21.204 92.461q0 0.29354-0.42563 0.5137-0.11742 0.05871-0.24951 0.01468-0.20548-0.05871-0.22016-0.05871-0.08806 0-0.17612 0.08806-0.79256 0.79256-0.79256 1.9374 0 0.42563 0.13209 0.79256 0.05871 0.16145 1.1155 2.2749 0.7045 1.409 0.7045 2.3924 0 0.80723-0.39628 1.5558-0.13209 0.24951-0.66046 0.64579-0.42563 0.30822-0.7632 0.30822-0.13209 0-0.24951-0.044-0.44031-0.19081-0.44031-0.48435 0-0.17612 0.22016-0.42563 0.05871-0.0734 0.27886-0.0881 0.22016-0.0147 0.29354-0.17612 0.30822-0.64579 0.30822-1.3209 0-0.95401-0.954-2.7593-0.93933-1.8199-0.93933-2.906 0-0.8953 0.35225-1.5998 0.39628-0.80724 1.1301-1.1595 0.33757-0.16145 0.66046-0.16145 0.61643 0 0.92465 0.33757 0.14677 0.16145 0.14677 0.32289z"/><path d="m29.541 92.197q-0.13209 0.52837-0.49902 0.61643-0.954 0.23483-3.317 0.61643-0.29354 3.6546-0.29354 6.091 0 0.92465 0.02935 1.8199 0.01468 0.27886-0.02935 0.42563-0.07338 0.23484-0.29354 0.22016-0.42563-0.0147-0.7045-0.36693-0.27886-0.33757-0.30822-0.7632-0.02935-0.54305-0.02935-1.1448 0-0.96868 0.13209-3.0675 0.13209-2.0107 0.11742-3.0675-0.39628-0.02935-1.1008 0.07339-0.80724 0.11742-1.1155 0.11742-0.71917 0-1.1742-0.3816-0.17612-0.3816-0.17612-0.39628 0-0.10274 0.10274-0.22016 0.46966-0.16145 1.9227-0.29354 1.2769-0.13209 1.908-0.46966 0.5137 0.16145 1.1742 0.16145t1.2622-0.16145q0.17612-0.01468 0.8953-0.20548 0.52837-0.13209 0.88062-0.08806 0.26419 0 0.22016 0.22016 0.39628 0 0.39628 0.26419z"/><path d="m32.858 93.341q-0.10274 1.0274-0.58708 2.7446-0.66046 2.3043-0.7632 2.7886-0.32289 1.4824-1.2329 2.7006-0.5724 0.77788-1.3209 0.76321-0.66046-0.0147-0.98336-0.83659-0.55773-1.3796-0.55773-3.2436 0-1.0714 0.20548-2.7593-0.01468 0.14677-0.01468-0.90997 0-0.90997 0.7045-0.90997 0.14677 0 0.30822 0.08806 0.17612 0.07339 0.33757 0.16145 0.01468 0.74853-0.04403 2.2016-0.07339 1.5558-0.07339 2.2456 0 0.73385 0.04403 1.3356 0.02935 0.30822 0.26419 1.1742 0.61643-0.68982 0.96868-1.8346 0.11742-0.3816 0.46966-2.0841 0.27886-1.2916 0.63111-2.0254 0.10274-0.20548 0.17612-0.77788 0.07339-0.5724 0.17612-0.79256 0.16145-0.35225 0.55773-0.35225 0.5137 0 0.73385 0.32289z"/><path d="m39.8 92.02q0 0.29354-0.1908 0.54305-0.17612 0.23483-0.46966 0.29354-0.11742 0.02935-0.32289-0.05871-0.20548-0.10274-0.32289-0.08806-0.64579 0.05871-1.5851 0.45499-1.1888 0.49902-1.5558 0.60176-0.05871 0.92465-0.05871 1.8787t0.05871 1.908q0.11742 0.02935 0.24951 0.02935 0.29354 0 1.0567-0.23483 0.71917-0.20548 1.1008-0.16145 0.32289 0.02935 0.29354 0.24951-0.08806 0.5724-0.73385 0.88062-0.60176 0.1908-1.2035 0.39628-0.23483 0.02935-0.7632 0.14677-0.02935 0.29354-0.02935 0.66046 0 0.35225 0.02935 1.0714 0.04403 0.71918 0.04403 1.0714 0 1.2622-0.39628 1.9961-0.08806 0.16144-0.26419 0.16144-0.17612 0-0.36692-0.16144-0.1908-0.16145-0.24951-0.35225-0.14677-0.45499-0.14677-1.0568 0-0.20547 0.10274-1.4237 0.07339-0.88062-0.02935-1.4237-0.02935-0.1908-0.29354-0.30822-0.33757-0.14677-0.42563-0.23483-0.04403-0.10274 0.02935-0.58708 0.17612 0.02935 0.29354-0.11742 0.13209-0.14677 0.24951-0.14677 0.05871 0 0.11742 0.01468 0.14677-0.71917 0.14677-1.6145 0-0.30822-0.11742-2.2749-0.27886-0.07339-0.55773-0.33757-0.26419-0.27886-0.26419-0.54305 0-0.36692 0.52837-0.44031 0.71917-0.10274 2.6565-0.73385 1.7025-0.55773 2.7299-0.5724 0.26419 0 0.45499 0.14677 0.20548 0.13209 0.20548 0.36692z"/><path d="m45.407 92.02q0 0.29354-0.1908 0.54305-0.17612 0.23483-0.46966 0.29354-0.11742 0.02935-0.32289-0.05871-0.20548-0.10274-0.32289-0.08806-0.64579 0.05871-1.5851 0.45499-1.1888 0.49902-1.5558 0.60176-0.05871 0.92465-0.05871 1.8787t0.05871 1.908q0.11742 0.02935 0.24951 0.02935 0.29354 0 1.0567-0.23483 0.71917-0.20548 1.1008-0.16145 0.32289 0.02935 0.29354 0.24951-0.08806 0.5724-0.73385 0.88062-0.60176 0.1908-1.2035 0.39628-0.23483 0.02935-0.7632 0.14677-0.02935 0.29354-0.02935 0.66046 0 0.35225 0.02935 1.0714 0.04403 0.71918 0.04403 1.0714 0 1.2622-0.39628 1.9961-0.08806 0.16144-0.26419 0.16144-0.17612 0-0.36692-0.16144-0.1908-0.16145-0.24951-0.35225-0.14677-0.45499-0.14677-1.0568 0-0.20547 0.10274-1.4237 0.07339-0.88062-0.02935-1.4237-0.02935-0.1908-0.29354-0.30822-0.33757-0.14677-0.42563-0.23483-0.04403-0.10274 0.02935-0.58708 0.17612 0.02935 0.29354-0.11742 0.13209-0.14677 0.24951-0.14677 0.05871 0 0.11742 0.01468 0.14677-0.71917 0.14677-1.6145 0-0.30822-0.11742-2.2749-0.27886-0.07339-0.55773-0.33757-0.26419-0.27886-0.26419-0.54305 0-0.36692 0.52837-0.44031 0.71917-0.10274 2.6565-0.73385 1.7025-0.55773 2.7299-0.5724 0.26419 0 0.45499 0.14677 0.20548 0.13209 0.20548 0.36692z"/><path d="m47.726 92.681q-0.08806 1.0274-0.74853 3.6986-0.5724 2.319-0.52837 3.8013 0 0.13209-0.16145 0.24951-0.14677 0.10274-0.27886 0.0734-0.74853-0.14677-0.79256-0.73385-0.01468-0.30822-0.01468-0.61643 0-1.3796 0.44031-3.3757 0.67514-2.9501 0.73385-3.3464 0.02935-0.17612 0.22016-0.24951 0.1908-0.07339 0.36692-0.01468 0.24951 0.07338 0.49902 0.14677 0.27886 0.11742 0.26419 0.36692zm-1.4237 8.953q0.02935 0.20548-0.05871 0.39628-0.08806 0.20548-0.22016 0.20548-0.11742 0.0147-0.17612 0.0734-0.05871 0.0587-0.11742 0.044-0.77788-0.29354-0.88062-0.7632-0.04403-0.20548 0.27886-0.41096 0.32289-0.22015 0.45499-0.20547 0.23483 0.0293 0.45499 0.20547 0.23483 0.17613 0.26419 0.45499z"/></g></g></svg>
