<?xml version="1.0" encoding="UTF-8" standalone="no"?>
<!-- Created with Inkscape (http://www.inkscape.org/) -->

<svg
   width="56.666775mm"
   height="32.355312mm"
   viewBox="0 0 56.666775 32.355312"
   version="1.1"
   id="svg5"
   xml:space="preserve"
   xmlns="http://www.w3.org/2000/svg"
   xmlns:svg="http://www.w3.org/2000/svg"><defs
     id="defs2" /><g
     id="layer1"
     transform="translate(-44.07159,-62.351661)"><text
       xml:space="preserve"
       style="font-style:normal;font-weight:normal;font-size:10.5833px;line-height:1.25;font-family:sans-serif;fill:#000000;fill-opacity:1;stroke:none;stroke-width:0.264583"
       x="24.065779"
       y="91.615524"
       id="text236"
       transform="rotate(-25.873745)"><tspan
         id="tspan234"
         style="font-style:normal;font-variant:normal;font-weight:normal;font-stretch:normal;font-family:'Daniel Black';-inkscape-font-specification:'Daniel Black, ';text-align:center;text-anchor:middle;fill:#fecb00;fill-opacity:1;stroke-width:0.264583"
         x="24.065779"
         y="91.615524">New</tspan><tspan
         style="font-style:normal;font-variant:normal;font-weight:normal;font-stretch:normal;font-family:'Daniel Black';-inkscape-font-specification:'Daniel Black, ';text-align:center;text-anchor:middle;fill:#fecb00;fill-opacity:1;stroke-width:0.264583"
         x="24.065779"
         y="106.2272"
         id="tspan238">Stuff !</tspan></text><path
       style="fill:#fecb00;fill-opacity:1;stroke-width:0.0464627"
       d="m 75.422612,91.718845 c -0.587682,-0.06088 -1.085449,-0.152952 -1.426298,-0.263809 -0.816981,-0.265713 -1.646027,-0.811824 -2.258149,-1.487481 -0.417473,-0.460805 -0.472911,-0.558362 -0.415996,-0.732032 0.04936,-0.150682 0.197287,-0.233007 0.321615,-0.17901 0.0457,0.01983 0.203583,0.138498 0.350949,0.263711 0.502537,0.426973 0.786562,0.610386 1.324608,0.855368 1.552244,0.706757 3.317996,0.649023 5.403896,-0.176695 0.673323,-0.266544 1.976645,-0.939484 2.420095,-1.249564 l 0.108638,-0.07597 -0.165561,-0.177642 c -0.550492,-0.590668 -0.662172,-1.33796 -0.356387,-2.384757 0.536816,-1.83765 2.533971,-4.016736 4.601582,-5.020768 0.710315,-0.344929 0.926456,-0.409362 1.614993,-0.481443 0.599136,-0.06272 0.674536,-0.06026 0.8892,0.0285 0.748154,0.309506 0.860096,1.211247 0.308817,2.487674 -0.19629,0.454498 -0.983562,1.608792 -1.482084,2.17303 -0.590804,0.668684 -1.381724,1.438298 -2.138472,2.080877 -0.231843,0.196871 -0.42928,0.377727 -0.438738,0.4019 -0.05837,0.1492 1.662807,-0.01149 2.769703,-0.258576 0.873064,-0.194892 2.22072,-0.592414 3.106748,-0.916404 2.42729,-0.887578 3.245749,-1.224755 5.813415,-2.394935 0.795865,-0.362706 1.527199,-0.692418 1.625176,-0.732694 0.09798,-0.04027 0.168773,-0.08233 0.157329,-0.09346 -0.01141,-0.01113 -0.163965,-0.02728 -0.338937,-0.03589 -1.279428,-0.063 -1.985353,-0.144628 -2.084571,-0.241064 -0.07527,-0.07312 -0.01831,-0.304338 0.109509,-0.444494 0.107139,-0.117509 0.133584,-0.121347 2.617424,-0.379897 l 2.509194,-0.261189 0.14484,0.140789 c 0.15378,0.149495 0.24307,0.408787 0.21945,0.637377 -0.008,0.07319 -0.12328,0.322231 -0.25715,0.553424 -0.589455,1.018016 -0.877467,1.595469 -1.294831,2.596065 -0.467864,1.12167 -0.797742,1.511256 -1.187422,1.402345 -0.450352,-0.12587 -0.382542,-0.884511 0.188273,-2.106461 0.15713,-0.336363 0.274905,-0.622043 0.261739,-0.634846 -0.02293,-0.02225 -0.170835,0.0347 -0.618276,0.238054 -0.186862,0.08492 -1.665735,0.690859 -3.160552,1.294972 -0.333894,0.134935 -0.791433,0.319905 -1.016778,0.411042 -1.034231,0.418285 -2.672626,1.048423 -3.181501,1.223625 -0.124686,0.04293 -0.421452,0.145103 -0.659487,0.227056 -2.148588,0.739741 -3.299521,1.023732 -4.786985,1.181161 -1.091266,0.115603 -1.713894,0.118481 -2.356294,0.01139 -0.288102,-0.04804 -0.410171,-0.04826 -0.493132,-8.89e-4 -0.06064,0.03462 -0.38071,0.23331 -0.711269,0.441526 -1.174952,0.740073 -2.24241,1.258055 -3.434272,1.666457 -0.478554,0.163987 -0.692428,0.207112 -1.52634,0.307751 -0.533372,0.06457 -1.018354,0.112035 -1.077672,0.106145 z m 9.10243,-5.46844 c 0.930213,-0.810045 1.562194,-1.477604 2.024045,-2.137983 0.366617,-0.524215 0.507766,-0.830775 0.586698,-1.274232 0.06745,-0.378955 0.05272,-0.524953 -0.07274,-0.718141 -0.123503,-0.190652 -0.247844,-0.255691 -0.521516,-0.272795 -1.289412,-0.08058 -3.729554,1.787039 -4.447662,3.40412 -0.376683,0.848239 -0.273194,1.636224 0.270984,2.063365 0.432008,0.33909 0.375627,0.350885 1.135862,-0.237625 0.370041,-0.286456 0.830852,-0.658461 1.024024,-0.826677 z m 1.995607,-3.182725 c -0.02799,-0.03223 -0.0971,-0.117609 -0.153461,-0.189755 -0.18269,-0.233728 -0.58301,-0.31803 -0.776615,-0.163541 -0.14423,0.115091 -0.09746,-0.03803 0.05953,-0.194968 0.09393,-0.0939 0.189689,-0.134744 0.356577,-0.152116 0.373382,-0.03887 0.659387,0.166741 0.739126,0.531365 0.04243,0.194153 0.03908,0.205398 -0.06466,0.216197 -0.06027,0.0063 -0.13242,-0.01496 -0.160438,-0.04719 z m 3.506517,5.580836 c -0.03501,-0.05336 0.258302,-0.21139 0.646217,-0.348153 0.349472,-0.123204 0.910947,-0.33186 1.53592,-0.570769 0.52275,-0.199831 0.593313,-0.216312 0.579599,-0.135376 -0.01425,0.08431 -0.746643,0.4554 -1.33051,0.674184 -1.015539,0.380539 -1.369351,0.474505 -1.431226,0.380114 z m -19.108055,0.152339 c -0.05035,-0.05393 -0.08772,-0.173361 -0.104231,-0.332941 l -0.02569,-0.248853 0.119649,0.140876 c 0.189852,0.223524 0.199605,0.643776 0.01021,0.440925 z"
       id="path3142" /></g></svg>
