<?xml version="1.0" encoding="UTF-8" standalone="no"?>
<!-- Created with Inkscape (http://www.inkscape.org/) -->

<svg
   width="137"
   height="144"
   viewBox="0 0 36.247916 38.099997"
   version="1.1"
   id="svg5"
   xml:space="preserve"
   sodipodi:docname="new_stuff.svg"
   inkscape:version="1.2.1 (9c6d41e410, 2022-07-14)"
   xmlns:inkscape="http://www.inkscape.org/namespaces/inkscape"
   xmlns:sodipodi="http://sodipodi.sourceforge.net/DTD/sodipodi-0.dtd"
   xmlns="http://www.w3.org/2000/svg"
   xmlns:svg="http://www.w3.org/2000/svg"><sodipodi:namedview
     id="namedview9"
     pagecolor="#ffffff"
     bordercolor="#666666"
     borderopacity="1.0"
     inkscape:showpageshadow="2"
     inkscape:pageopacity="0.0"
     inkscape:pagecheckerboard="0"
     inkscape:deskcolor="#d1d1d1"
     inkscape:document-units="mm"
     showgrid="false"
     inkscape:zoom="7.5639562"
     inkscape:cx="29.481926"
     inkscape:cy="77.009965"
     inkscape:window-width="3840"
     inkscape:window-height="2097"
     inkscape:window-x="0"
     inkscape:window-y="32"
     inkscape:window-maximized="1"
     inkscape:current-layer="layer1" /><defs
     id="defs2" /><g
     id="layer1"
     transform="translate(-44.07159,-62.351661)"><path
       style="fill:#fecb00;fill-opacity:1;stroke-width:0.0388895"
       d="m 58.236242,98.18243 c -0.491893,-0.05096 -0.908526,-0.12802 -1.193819,-0.220809 -0.683819,-0.222403 -1.377736,-0.679502 -1.890088,-1.245032 -0.349425,-0.385696 -0.395826,-0.467351 -0.34819,-0.612715 0.04132,-0.126117 0.165137,-0.195028 0.269194,-0.14984 0.03826,0.01664 0.170407,0.115902 0.293746,0.220727 0.420628,0.357379 0.65836,0.510898 1.108706,0.715952 1.29924,0.591556 2.777186,0.543233 4.523097,-0.147904 0.563576,-0.2231 1.654465,-0.786355 2.025634,-1.045893 l 0.09094,-0.06359 -0.138583,-0.148682 c -0.460764,-0.494394 -0.554241,-1.11988 -0.298299,-1.996057 0.449318,-1.538126 2.120951,-3.362036 3.851556,-4.202418 0.594536,-0.288708 0.775449,-0.342638 1.35176,-0.402972 0.501481,-0.0525 0.564589,-0.05043 0.744266,0.02386 0.626209,0.259058 0.719905,1.013823 0.258482,2.082201 -0.16431,0.380417 -0.823249,1.346567 -1.240515,1.818839 -0.494506,0.559693 -1.156513,1.203866 -1.789914,1.741709 -0.194056,0.164773 -0.359311,0.31616 -0.367227,0.33639 -0.04884,0.124876 1.391781,-0.0094 2.318259,-0.216428 0.73076,-0.163134 1.858757,-0.495854 2.600369,-0.767037 2.031656,-0.742909 2.716714,-1.025127 4.865865,-2.004575 0.666145,-0.303588 1.278276,-0.579559 1.360284,-0.61327 0.082,-0.03371 0.141265,-0.0689 0.131696,-0.07822 -0.0094,-0.0094 -0.137226,-0.02283 -0.283692,-0.03003 -1.070889,-0.05273 -1.661755,-0.121051 -1.7448,-0.201771 -0.06301,-0.0612 -0.01523,-0.254734 0.09167,-0.372043 0.08968,-0.09835 0.111813,-0.101583 2.1908,-0.31798 l 2.100212,-0.218615 0.121216,0.117839 c 0.128733,0.125124 0.203453,0.342157 0.183678,0.533491 -0.0066,0.06127 -0.103172,0.26971 -0.215237,0.463219 -0.493376,0.852086 -0.734443,1.335417 -1.083781,2.172921 -0.391605,0.938846 -0.667713,1.264931 -0.993881,1.173775 -0.376947,-0.10534 -0.320189,-0.740342 0.157588,-1.763123 0.131531,-0.281538 0.230097,-0.520652 0.219076,-0.53137 -0.01919,-0.01871 -0.143003,0.02904 -0.517502,0.199254 -0.156396,0.07107 -1.394228,0.578251 -2.645401,1.083898 -0.279472,0.112939 -0.662435,0.267763 -0.851049,0.344047 -0.865656,0.350106 -2.237007,0.877536 -2.662938,1.024182 -0.10438,0.03594 -0.352757,0.121448 -0.551994,0.190047 -1.798383,0.619167 -2.761721,0.856871 -4.006739,0.98864 -0.913397,0.09677 -1.434541,0.09916 -1.972233,0.0094 -0.241144,-0.04021 -0.343317,-0.04039 -0.412756,-7.43e-4 -0.05076,0.02895 -0.318656,0.195283 -0.595336,0.369562 -0.983441,0.619446 -1.87691,1.052999 -2.87451,1.394834 -0.40055,0.137259 -0.579566,0.173357 -1.277553,0.25759 -0.446437,0.05404 -0.852371,0.09377 -0.902018,0.08883 z m 7.618796,-4.577118 c 0.778592,-0.678013 1.307565,-1.236766 1.694137,-1.789507 0.306861,-0.43877 0.425004,-0.695365 0.49107,-1.066541 0.05647,-0.317186 0.04414,-0.439388 -0.06089,-0.601085 -0.103387,-0.159575 -0.207449,-0.214018 -0.436515,-0.228332 -1.079247,-0.06745 -3.12166,1.495763 -3.72272,2.849269 -0.315288,0.709982 -0.228667,1.369528 0.226813,1.72705 0.361594,0.283821 0.314402,0.293691 0.950725,-0.198896 0.309727,-0.239763 0.69543,-0.551135 0.857114,-0.691931 z m 1.670335,-2.663962 c -0.02343,-0.02697 -0.08127,-0.09844 -0.128435,-0.158813 -0.152903,-0.195631 -0.487983,-0.266194 -0.650032,-0.136878 -0.120704,0.09635 -0.08158,-0.03184 0.04981,-0.163184 0.07864,-0.07857 0.158764,-0.11279 0.298459,-0.127326 0.312523,-0.03253 0.55191,0.13956 0.618652,0.444756 0.03553,0.162505 0.03271,0.17192 -0.05414,0.180955 -0.05043,0.0053 -0.11082,-0.01242 -0.134279,-0.03948 z m 2.934978,4.671196 c -0.0293,-0.04465 0.216201,-0.17693 0.540886,-0.291407 0.292512,-0.103138 0.762468,-0.27777 1.285577,-0.477738 0.437545,-0.167251 0.496607,-0.18105 0.485126,-0.11332 -0.01192,0.07056 -0.624944,0.381174 -1.113643,0.564297 -0.850015,0.318514 -1.146157,0.397162 -1.197946,0.318158 z M 54.466784,95.74007 c -0.04215,-0.04515 -0.07342,-0.145106 -0.08723,-0.278674 l -0.0215,-0.20829 0.100142,0.117922 c 0.158913,0.187098 0.167063,0.538843 0.0084,0.369054 z"
       id="path3142" /><text
       xml:space="preserve"
       style="font-style:normal;font-weight:normal;font-size:14.677px;line-height:0.95;font-family:sans-serif;fill:#fecb00;fill-opacity:1;stroke:none;stroke-width:0.366922"
       x="32.835793"
       y="86.725677"
       id="text422"
       transform="rotate(-17.315872)"><tspan
         sodipodi:role="line"
         id="tspan420"
         style="font-style:normal;font-variant:normal;font-weight:normal;font-stretch:normal;font-family:TrashHand;-inkscape-font-specification:TrashHand;text-align:center;text-anchor:middle;fill:#fecb00;fill-opacity:1;stroke-width:0.366922"
         x="32.835793"
         y="86.725677">New</tspan><tspan
         sodipodi:role="line"
         style="font-style:normal;font-variant:normal;font-weight:normal;font-stretch:normal;font-family:TrashHand;-inkscape-font-specification:TrashHand;text-align:center;text-anchor:middle;fill:#fecb00;fill-opacity:1;stroke-width:0.366922"
         x="32.835793"
         y="101.34027"
         id="tspan392">Stuff!</tspan></text></g></svg>
