<svg width="181" height="317" viewBox="0 0 181 317" fill="none" xmlns="http://www.w3.org/2000/svg">
<ellipse cx="79.9036" cy="303.947" rx="79.4046" ry="12.8937" fill="#D4D4D4" fill-opacity="0.62"/>
<path d="M54.8822 92.426L44.4141 97.9154V157.277C45.7493 167.291 46.9746 171.895 50.7971 176.682C54.5076 180.922 57.1549 182.824 62.2865 185.873L86.9249 188.809C97.6296 186.018 101.908 183.396 107.478 177.448C112.585 170.171 114.009 165.661 114.627 157.022V92.426H54.8822Z" fill="#747577" stroke="#331813" stroke-width="1.02824"/>
<path d="M125.967 28.4221L125.854 29.0999L126.438 29.463C128.252 30.5928 129.265 31.4312 129.779 32.3257C130.253 33.1509 130.382 34.176 129.98 35.9142L129.794 36.7208L130.542 37.0751L134.803 39.0937L135.739 39.5371L136.176 38.5981C136.974 36.8816 137.435 35.516 137.581 34.1845C137.73 32.8411 137.549 31.6123 137.19 30.1919L137.18 30.1525L137.167 30.114C136.333 27.6502 135.233 26.08 133.651 24.99C132.13 23.9421 130.241 23.4011 128.044 22.8053L126.946 22.5076L126.76 23.6297L125.967 28.4221ZM120.394 34.7442L120.293 33.9902L119.542 33.866L114.75 33.0724L113.67 32.8937L113.559 33.9825C113.365 35.8877 113.378 37.3698 113.744 38.6982C114.113 40.042 114.816 41.1326 115.823 42.303C118.058 45.0712 121.606 45.8625 126.552 45.9631L127.781 45.9881L127.588 44.7736L126.784 39.7167L126.663 38.9541L125.896 38.8579C123.732 38.5863 122.496 38.2319 121.735 37.6644C121.05 37.1545 120.609 36.3595 120.394 34.7442Z" fill="#A6A8AB" stroke="#331813" stroke-width="2.05648"/>
<path d="M125.684 38.6237L124.637 38.7682L124.81 39.8111L125.719 45.2668L125.861 46.1224L126.728 46.1262C129.179 46.1369 131.08 45.7277 132.647 44.4805C134.173 43.2665 135.239 41.366 136.303 38.762L136.662 37.8851L135.817 37.4562L131.282 35.1524L130.354 34.681L129.894 35.6147C129.34 36.7376 128.854 37.3668 128.285 37.7747C127.714 38.1837 126.95 38.4489 125.684 38.6237Z" fill="#A6A8AB" stroke="#331813" stroke-width="2.05648"/>
<circle cx="169.011" cy="81.6911" r="10.4612" fill="#5A5D65" stroke="#331813" stroke-width="2.05648"/>
<circle cx="169.01" cy="81.6911" r="4.07816" fill="#D9D9D9" stroke="#331813" stroke-width="2.05648"/>
<path d="M13.0743 229.219L13.6002 228.777L13.3931 228.122C12.7489 226.084 12.5248 224.789 12.7159 223.775C12.8923 222.84 13.4604 221.977 14.896 220.918L15.562 220.426L15.2241 219.67L13.2988 215.366L12.876 214.421L11.9337 214.85C10.2112 215.635 8.97322 216.373 7.99605 217.29C7.01008 218.214 6.34818 219.265 5.69728 220.577L5.67922 220.614L5.66409 220.651C4.69593 223.066 4.51124 224.974 5.00438 226.831C5.47852 228.616 6.56248 230.256 7.84418 232.137L8.48466 233.076L9.35544 232.345L13.0743 229.219ZM21.419 228.039L21.0053 228.678L21.4947 229.26L24.62 232.979L25.3241 233.817L26.1165 233.062C27.503 231.741 28.4562 230.606 29.0423 229.359C29.6352 228.098 29.8106 226.812 29.8062 225.268C29.9078 221.712 27.727 218.804 24.0346 215.512L23.1167 214.693L22.4738 215.742L19.7967 220.107L19.393 220.765L19.9126 221.336C21.3807 222.95 22.089 224.022 22.2987 224.949C22.4871 225.781 22.3052 226.672 21.419 228.039Z" fill="#A6A8AB" stroke="#331813" stroke-width="2.05648"/>
<path d="M19.921 221.652L20.8107 222.223L21.3568 221.317L24.214 216.582L24.662 215.839L24.0055 215.272C22.1509 213.671 20.4402 212.746 18.4386 212.674C16.49 212.605 14.4442 213.356 11.9426 214.642L11.1002 215.075L11.463 215.95L13.4112 220.65L13.8098 221.611L14.7664 221.201C15.9168 220.707 16.6954 220.546 17.3931 220.606C18.0928 220.666 18.8456 220.961 19.921 221.652Z" fill="#A6A8AB" stroke="#331813" stroke-width="2.05648"/>
<circle cx="65.0939" cy="198.372" r="10.4612" fill="#5A5D65" stroke="#331813" stroke-width="2.05648"/>
<circle cx="65.0927" cy="198.372" r="4.07816" fill="#D9D9D9" stroke="#331813" stroke-width="2.05648"/>
<mask id="path-11-outside-1_830_382" maskUnits="userSpaceOnUse" x="5.41406" y="36.542" width="161" height="270" fill="black">
<rect fill="white" x="5.41406" y="36.542" width="161" height="270"/>
<path d="M106.202 155.096C106.202 163.323 103.014 171.213 97.3401 177.031C94.2166 180.234 90.4806 182.664 86.4144 184.201V200.005C86.4144 200.023 86.4124 200.041 86.4086 200.059C84.751 207.858 82.0019 209.333 75.3079 209.096C68.7905 208.758 68.0061 206.059 67.2653 200.67V184.813C62.5073 183.351 58.1284 180.698 54.5524 177.031C48.8784 171.213 45.6908 163.323 45.6908 155.096V101.097C45.6908 100.955 45.8059 100.84 45.9479 100.84H105.818C105.959 100.84 106.074 100.955 106.075 101.097L106.202 155.096Z"/>
<path d="M43.5798 99.2676L32.2423 102.315C32.1206 102.348 32.0408 102.467 32.054 102.592C33.0464 112.03 35.6535 115.822 43.5355 119.561C43.7053 119.642 43.9036 119.519 43.9036 119.331V99.5158C43.9036 99.3467 43.7431 99.2237 43.5798 99.2676Z"/>
<path d="M112.653 97.6071L127.429 101.548C127.555 101.581 127.635 101.706 127.617 101.835C125.875 114.263 122.143 117.821 112.65 120.166C112.488 120.206 112.329 120.084 112.329 119.918V97.8555C112.329 97.6866 112.489 97.5636 112.653 97.6071Z"/>
<path d="M35.3153 117.376L20.4505 146.855C20.3705 147.014 20.4727 147.204 20.6483 147.231C22.7635 147.554 23.6706 148.238 24.7583 149.654C24.8752 149.806 25.1122 149.786 25.1985 149.615L39.7033 120.856C39.767 120.729 39.7164 120.576 39.5918 120.509C38.4649 119.905 37.5716 119.196 35.7308 117.313C35.6072 117.186 35.3949 117.218 35.3153 117.376Z"/>
<path d="M20.7953 207.053H15.9477C15.8058 207.053 15.6907 206.938 15.6907 206.796V169.651C15.6907 169.509 15.8058 169.394 15.9477 169.394H20.7953C20.9373 169.394 21.0524 169.509 21.0524 169.651V206.796C21.0524 206.938 20.9373 207.053 20.7953 207.053Z"/>
<path d="M26.4178 209.474L8.67651 209.101C8.53247 209.098 8.41406 209.214 8.41406 209.358V211.264C8.41406 211.406 8.52915 211.521 8.67112 211.521H26.4124C26.5544 211.521 26.6694 211.406 26.6694 211.264V209.731C26.6694 209.591 26.5576 209.476 26.4178 209.474Z"/>
<path d="M49.9018 290.16H28.7138C28.5718 290.16 28.4567 290.275 28.4567 290.417V293.86C28.4567 294.002 28.5718 294.117 28.7137 294.117H49.9018C50.0438 294.117 50.1589 294.002 50.1589 293.86V290.417C50.1589 290.275 50.0438 290.16 49.9018 290.16Z"/>
<path d="M54.6253 296.415H24.118C23.976 296.415 23.8609 296.53 23.8609 296.672V303.818C23.8609 303.96 23.976 304.075 24.118 304.075H54.6253C54.7672 304.075 54.8823 303.96 54.8823 303.818V296.672C54.8823 296.53 54.7672 296.415 54.6253 296.415Z"/>
<path d="M130.838 290.032H109.65C109.508 290.032 109.393 290.147 109.393 290.289V293.86C109.393 294.002 109.508 294.117 109.65 294.117H130.838C130.98 294.117 131.095 294.002 131.095 293.86V290.289C131.095 290.147 130.98 290.032 130.838 290.032Z"/>
<path d="M135.434 296.288H104.927C104.785 296.288 104.67 296.403 104.67 296.545V303.818C104.67 303.96 104.785 304.075 104.927 304.075H135.434C135.576 304.075 135.691 303.96 135.691 303.818V296.545C135.691 296.403 135.576 296.288 135.434 296.288Z"/>
<path d="M160.533 88.9697C159.509 88.0889 158.886 87.1173 158.004 84.6536C157.951 84.5056 157.779 84.438 157.64 84.5113L128.582 99.8581C128.482 99.9107 128.429 100.022 128.449 100.132L129.373 105.096C129.404 105.265 129.59 105.356 129.743 105.277L160.486 89.4058C160.652 89.3201 160.674 89.0915 160.533 88.9697Z"/>
<path d="M138.318 46.6328L134.73 50.1045C134.627 50.2046 134.626 50.37 134.728 50.4715L159.394 75.0112C159.489 75.1065 159.642 75.1114 159.744 75.0225L163.442 71.7869C163.554 71.689 163.56 71.5168 163.454 71.4117L138.678 46.6357C138.579 46.5365 138.419 46.5352 138.318 46.6328Z"/>
<path d="M35.3899 235.43C36.2665 230.966 42.175 221.457 52.9644 200.288C53.0334 200.153 53.206 200.103 53.334 200.185L67.0432 208.954C67.165 209.032 67.1969 209.197 67.1161 209.317C59.4039 220.745 55.975 227.589 51.3916 240.143C51.345 240.271 51.2063 240.342 51.0761 240.304L35.5679 235.714C35.4436 235.677 35.365 235.557 35.3899 235.43Z"/>
<path d="M108.896 200.181L94.6909 208.951C94.5643 209.03 94.5323 209.201 94.6186 209.322C102.652 220.602 105.449 227.079 109.069 238.495C109.108 238.619 109.233 238.696 109.36 238.673L125.916 235.708C126.082 235.678 126.175 235.5 126.104 235.347C122.918 228.515 119.01 220.392 109.264 200.292C109.198 200.155 109.025 200.101 108.896 200.181Z"/>
<path d="M127.413 255.378L111.789 257.575C111.66 257.593 111.565 257.707 111.568 257.837L111.581 258.525C111.872 273.541 112.042 282.336 111.586 287.968C111.574 288.118 111.693 288.245 111.844 288.245H127.645C127.788 288.245 127.903 288.125 127.902 287.982C127.791 267.465 127.758 257.938 127.849 255.788C127.858 255.58 127.619 255.349 127.413 255.378Z"/>
<path d="M48.4965 255.309H32.5286C32.3926 255.309 32.2801 255.416 32.272 255.551C31.9624 260.767 31.83 264.837 32.2815 287.987C32.2842 288.127 32.3986 288.245 32.5386 288.245H48.4901C48.6349 288.245 48.7513 288.13 48.7475 287.985C48.61 282.748 48.6881 271.511 48.7536 255.569C48.7542 255.427 48.6389 255.309 48.4965 255.309Z"/>
<path d="M141.888 39.76L140.845 38.7168C140.747 38.6192 140.59 38.6161 140.488 38.7098L127.342 50.8638C127.232 50.9656 127.232 51.1397 127.342 51.2414L128.62 52.4212C128.72 52.5131 128.874 52.5119 128.972 52.4185L141.883 40.1279C141.988 40.0283 141.99 39.8621 141.888 39.76Z"/>
</mask>
<path d="M106.202 155.096C106.202 163.323 103.014 171.213 97.3401 177.031C94.2166 180.234 90.4806 182.664 86.4144 184.201V200.005C86.4144 200.023 86.4124 200.041 86.4086 200.059C84.751 207.858 82.0019 209.333 75.3079 209.096C68.7905 208.758 68.0061 206.059 67.2653 200.67V184.813C62.5073 183.351 58.1284 180.698 54.5524 177.031C48.8784 171.213 45.6908 163.323 45.6908 155.096V101.097C45.6908 100.955 45.8059 100.84 45.9479 100.84H105.818C105.959 100.84 106.074 100.955 106.075 101.097L106.202 155.096Z" fill="#D9D9D9"/>
<path d="M43.5798 99.2676L32.2423 102.315C32.1206 102.348 32.0408 102.467 32.054 102.592C33.0464 112.03 35.6535 115.822 43.5355 119.561C43.7053 119.642 43.9036 119.519 43.9036 119.331V99.5158C43.9036 99.3467 43.7431 99.2237 43.5798 99.2676Z" fill="#D9D9D9"/>
<path d="M112.653 97.6071L127.429 101.548C127.555 101.581 127.635 101.706 127.617 101.835C125.875 114.263 122.143 117.821 112.65 120.166C112.488 120.206 112.329 120.084 112.329 119.918V97.8555C112.329 97.6866 112.489 97.5636 112.653 97.6071Z" fill="#D9D9D9"/>
<path d="M35.3153 117.376L20.4505 146.855C20.3705 147.014 20.4727 147.204 20.6483 147.231C22.7635 147.554 23.6706 148.238 24.7583 149.654C24.8752 149.806 25.1122 149.786 25.1985 149.615L39.7033 120.856C39.767 120.729 39.7164 120.576 39.5918 120.509C38.4649 119.905 37.5716 119.196 35.7308 117.313C35.6072 117.186 35.3949 117.218 35.3153 117.376Z" fill="#D9D9D9"/>
<path d="M20.7953 207.053H15.9477C15.8058 207.053 15.6907 206.938 15.6907 206.796V169.651C15.6907 169.509 15.8058 169.394 15.9477 169.394H20.7953C20.9373 169.394 21.0524 169.509 21.0524 169.651V206.796C21.0524 206.938 20.9373 207.053 20.7953 207.053Z" fill="#D9D9D9"/>
<path d="M26.4178 209.474L8.67651 209.101C8.53247 209.098 8.41406 209.214 8.41406 209.358V211.264C8.41406 211.406 8.52915 211.521 8.67112 211.521H26.4124C26.5544 211.521 26.6694 211.406 26.6694 211.264V209.731C26.6694 209.591 26.5576 209.476 26.4178 209.474Z" fill="#D9D9D9"/>
<path d="M49.9018 290.16H28.7138C28.5718 290.16 28.4567 290.275 28.4567 290.417V293.86C28.4567 294.002 28.5718 294.117 28.7137 294.117H49.9018C50.0438 294.117 50.1589 294.002 50.1589 293.86V290.417C50.1589 290.275 50.0438 290.16 49.9018 290.16Z" fill="#D9D9D9"/>
<path d="M54.6253 296.415H24.118C23.976 296.415 23.8609 296.53 23.8609 296.672V303.818C23.8609 303.96 23.976 304.075 24.118 304.075H54.6253C54.7672 304.075 54.8823 303.96 54.8823 303.818V296.672C54.8823 296.53 54.7672 296.415 54.6253 296.415Z" fill="#D9D9D9"/>
<path d="M130.838 290.032H109.65C109.508 290.032 109.393 290.147 109.393 290.289V293.86C109.393 294.002 109.508 294.117 109.65 294.117H130.838C130.98 294.117 131.095 294.002 131.095 293.86V290.289C131.095 290.147 130.98 290.032 130.838 290.032Z" fill="#D9D9D9"/>
<path d="M135.434 296.288H104.927C104.785 296.288 104.67 296.403 104.67 296.545V303.818C104.67 303.96 104.785 304.075 104.927 304.075H135.434C135.576 304.075 135.691 303.96 135.691 303.818V296.545C135.691 296.403 135.576 296.288 135.434 296.288Z" fill="#D9D9D9"/>
<path d="M160.533 88.9697C159.509 88.0889 158.886 87.1173 158.004 84.6536C157.951 84.5056 157.779 84.438 157.64 84.5113L128.582 99.8581C128.482 99.9107 128.429 100.022 128.449 100.132L129.373 105.096C129.404 105.265 129.59 105.356 129.743 105.277L160.486 89.4058C160.652 89.3201 160.674 89.0915 160.533 88.9697Z" fill="#D9D9D9"/>
<path d="M138.318 46.6328L134.73 50.1045C134.627 50.2046 134.626 50.37 134.728 50.4715L159.394 75.0112C159.489 75.1065 159.642 75.1114 159.744 75.0225L163.442 71.7869C163.554 71.689 163.56 71.5168 163.454 71.4117L138.678 46.6357C138.579 46.5365 138.419 46.5352 138.318 46.6328Z" fill="#D9D9D9"/>
<path d="M35.3899 235.43C36.2665 230.966 42.175 221.457 52.9644 200.288C53.0334 200.153 53.206 200.103 53.334 200.185L67.0432 208.954C67.165 209.032 67.1969 209.197 67.1161 209.317C59.4039 220.745 55.975 227.589 51.3916 240.143C51.345 240.271 51.2063 240.342 51.0761 240.304L35.5679 235.714C35.4436 235.677 35.365 235.557 35.3899 235.43Z" fill="#D9D9D9"/>
<path d="M108.896 200.181L94.6909 208.951C94.5643 209.03 94.5323 209.201 94.6186 209.322C102.652 220.602 105.449 227.079 109.069 238.495C109.108 238.619 109.233 238.696 109.36 238.673L125.916 235.708C126.082 235.678 126.175 235.5 126.104 235.347C122.918 228.515 119.01 220.392 109.264 200.292C109.198 200.155 109.025 200.101 108.896 200.181Z" fill="#D9D9D9"/>
<path d="M127.413 255.378L111.789 257.575C111.66 257.593 111.565 257.707 111.568 257.837L111.581 258.525C111.872 273.541 112.042 282.336 111.586 287.968C111.574 288.118 111.693 288.245 111.844 288.245H127.645C127.788 288.245 127.903 288.125 127.902 287.982C127.791 267.465 127.758 257.938 127.849 255.788C127.858 255.58 127.619 255.349 127.413 255.378Z" fill="#D9D9D9"/>
<path d="M48.4965 255.309H32.5286C32.3926 255.309 32.2801 255.416 32.272 255.551C31.9624 260.767 31.83 264.837 32.2815 287.987C32.2842 288.127 32.3986 288.245 32.5386 288.245H48.4901C48.6349 288.245 48.7513 288.13 48.7475 287.985C48.61 282.748 48.6881 271.511 48.7536 255.569C48.7542 255.427 48.6389 255.309 48.4965 255.309Z" fill="#D9D9D9"/>
<path d="M141.888 39.76L140.845 38.7168C140.747 38.6192 140.59 38.6161 140.488 38.7098L127.342 50.8638C127.232 50.9656 127.232 51.1397 127.342 51.2414L128.62 52.4212C128.72 52.5131 128.874 52.5119 128.972 52.4185L141.883 40.1279C141.988 40.0283 141.99 39.8621 141.888 39.76Z" fill="#D9D9D9"/>
<path d="M75.9462 185.089C73.0826 185.089 70.2621 184.658 67.5672 183.83L66.9635 185.796C69.8518 186.683 72.8757 187.145 75.9462 187.145V185.089ZM86.0507 183.239C82.845 184.451 79.4275 185.089 75.9462 185.089V187.145C79.6791 187.145 83.3428 186.462 86.778 185.163L86.0507 183.239ZM106.202 155.096H108.258L108.258 155.091L106.202 155.096ZM97.3401 177.031L98.8123 178.467L97.3401 177.031ZM54.5524 177.031L53.0802 178.467L54.5524 177.031ZM45.6908 155.096H43.6343H45.6908ZM106.075 101.097L108.131 101.092V101.092L106.075 101.097ZM32.2423 102.315L31.7084 100.329L31.7084 100.329L32.2423 102.315ZM43.5798 99.2676L44.1136 101.254L44.1136 101.254L43.5798 99.2676ZM43.5355 119.561L42.6542 121.419L42.6542 121.419L43.5355 119.561ZM32.054 102.592L34.0992 102.377L34.0992 102.377L32.054 102.592ZM127.429 101.548L126.899 103.535H126.899L127.429 101.548ZM112.653 97.6071L113.183 95.6201L113.182 95.6201L112.653 97.6071ZM112.65 120.166L113.143 122.163L113.143 122.163L112.65 120.166ZM127.617 101.835L125.58 101.549V101.549L127.617 101.835ZM20.4505 146.855L18.6142 145.93L18.6142 145.93L20.4505 146.855ZM35.3153 117.376L33.479 116.45L33.479 116.45L35.3153 117.376ZM35.7308 117.313L37.2014 115.875L37.2013 115.875L35.7308 117.313ZM39.5918 120.509L38.6209 122.322L38.621 122.322L39.5918 120.509ZM39.7033 120.856L37.8671 119.93V119.93L39.7033 120.856ZM25.1985 149.615L27.0347 150.541L27.0347 150.541L25.1985 149.615ZM24.7583 149.654L23.1275 150.907L23.1276 150.907L24.7583 149.654ZM20.6483 147.231L20.3382 149.264H20.3382L20.6483 147.231ZM8.67651 209.101L8.63317 211.157H8.63338L8.67651 209.101ZM26.4178 209.474L26.3746 211.53H26.3747L26.4178 209.474ZM158.004 84.6536L159.94 83.96V83.9599L158.004 84.6536ZM160.533 88.9697L161.874 87.411L161.874 87.411L160.533 88.9697ZM160.486 89.4058L159.543 87.5784V87.5784L160.486 89.4058ZM129.743 105.277L128.8 103.45L128.8 103.45L129.743 105.277ZM129.373 105.096L131.394 104.72V104.72L129.373 105.096ZM128.449 100.132L130.471 99.7563L130.471 99.7563L128.449 100.132ZM128.582 99.8581L127.621 98.0397L128.582 99.8581ZM157.64 84.5113L156.68 82.6929V82.6929L157.64 84.5113ZM134.73 50.1045L136.161 51.5823L136.161 51.5823L134.73 50.1045ZM138.318 46.6328L136.888 45.1549L136.888 45.155L138.318 46.6328ZM138.678 46.6357L140.133 45.1816V45.1816L138.678 46.6357ZM163.454 71.4117L162 72.8658L162 72.8658L163.454 71.4117ZM163.442 71.7869L162.088 70.2392V70.2392L163.442 71.7869ZM159.744 75.0225L161.098 76.5702L161.098 76.5701L159.744 75.0225ZM159.394 75.0112L157.943 76.4691L157.943 76.4691L159.394 75.0112ZM134.728 50.4715L136.178 49.0136L136.178 49.0136L134.728 50.4715ZM52.9644 200.288L51.1322 199.355L51.1322 199.355L52.9644 200.288ZM35.3899 235.43L33.372 235.034L33.372 235.034L35.3899 235.43ZM35.5679 235.714L36.1516 233.742L36.1515 233.742L35.5679 235.714ZM51.0761 240.304L51.6598 238.332L51.6597 238.332L51.0761 240.304ZM51.3916 240.143L49.4598 239.438L49.4598 239.438L51.3916 240.143ZM67.1161 209.317L68.8207 210.467L68.8207 210.467L67.1161 209.317ZM67.0432 208.954L68.1515 207.221L68.1513 207.221L67.0432 208.954ZM53.334 200.185L54.4421 198.452L54.442 198.452L53.334 200.185ZM94.6909 208.951L93.6105 207.202L93.6105 207.202L94.6909 208.951ZM108.896 200.181L109.976 201.931L109.976 201.931L108.896 200.181ZM109.264 200.292L111.114 199.395L111.114 199.395L109.264 200.292ZM126.104 235.347L124.24 236.217L124.24 236.217L126.104 235.347ZM125.916 235.708L125.553 233.684L125.553 233.684L125.916 235.708ZM109.36 238.673L108.998 236.649L108.998 236.649L109.36 238.673ZM109.069 238.495L107.109 239.117L107.109 239.117L109.069 238.495ZM94.6186 209.322L96.2936 208.129L96.2936 208.129L94.6186 209.322ZM111.789 257.575L111.503 255.538H111.503L111.789 257.575ZM127.413 255.378L127.699 257.414H127.699L127.413 255.378ZM127.849 255.788L129.904 255.876V255.876L127.849 255.788ZM127.902 287.982L129.959 287.971V287.971L127.902 287.982ZM111.586 287.968L109.537 287.802L109.537 287.803L111.586 287.968ZM111.581 258.525L109.525 258.565L109.525 258.565L111.581 258.525ZM111.568 257.837L113.624 257.797L113.624 257.797L111.568 257.837ZM48.7536 255.569L50.81 255.577V255.577L48.7536 255.569ZM48.7475 287.985L50.8033 287.931V287.931L48.7475 287.985ZM32.2815 287.987L34.3375 287.947L32.2815 287.987ZM32.272 255.551L34.3249 255.673V255.673L32.272 255.551ZM140.845 38.7168L139.39 40.1709L139.391 40.1709L140.845 38.7168ZM141.888 39.76L140.434 41.2141V41.2141L141.888 39.76ZM141.883 40.1279L140.465 38.6384L140.465 38.6384L141.883 40.1279ZM128.972 52.4185L127.554 50.9289L127.554 50.929L128.972 52.4185ZM128.62 52.4212L127.226 53.9323L128.62 52.4212ZM127.342 51.2414L125.947 52.7525L125.948 52.7525L127.342 51.2414ZM127.342 50.8638L128.738 52.3738V52.3738L127.342 50.8638ZM140.488 38.7098L139.092 37.1997L139.092 37.1998L140.488 38.7098ZM67.2653 184.813H69.3218V183.293L67.8691 182.847L67.2653 184.813ZM67.2653 200.67H65.2089V200.811L65.228 200.95L67.2653 200.67ZM75.3079 209.096L75.2015 211.15L75.2182 211.15L75.235 211.151L75.3079 209.096ZM86.4086 200.059L88.4202 200.486V200.486L86.4086 200.059ZM86.4144 184.201L85.687 182.277L84.3579 182.78V184.201H86.4144ZM104.145 155.096C104.145 162.794 101.162 170.167 95.8678 175.595L98.8123 178.467C104.866 172.26 108.258 163.852 108.258 155.096H104.145ZM56.0246 175.595C50.7304 170.167 47.7473 162.794 47.7473 155.096H43.6343C43.6343 163.852 47.0264 172.26 53.0802 178.467L56.0246 175.595ZM47.7473 155.096V101.097H43.6343V155.096H47.7473ZM45.9479 102.897H105.818V98.7836H45.9479V102.897ZM104.018 101.101L104.145 155.1L108.258 155.091L108.131 101.092L104.018 101.101ZM32.7761 104.301L44.1136 101.254L43.0459 97.2816L31.7084 100.329L32.7761 104.301ZM41.8471 99.5158V119.331H45.96V99.5158H41.8471ZM44.4169 117.703C40.6234 115.904 38.3779 114.218 36.9128 112.059C35.434 109.88 34.5825 106.973 34.0992 102.377L30.0088 102.808C30.5179 107.649 31.4661 111.357 33.5095 114.369C35.5666 117.4 38.5657 119.48 42.6542 121.419L44.4169 117.703ZM127.959 99.5606L113.183 95.6201L112.123 99.5942L126.899 103.535L127.959 99.5606ZM110.273 97.8555V119.918H114.386V97.8555H110.273ZM113.143 122.163C118.025 120.956 121.844 119.347 124.603 116.117C127.331 112.925 128.767 108.445 129.653 102.12L125.58 101.549C124.725 107.653 123.424 111.166 121.476 113.446C119.561 115.688 116.768 117.03 112.157 118.17L113.143 122.163ZM22.2867 147.781L37.1515 118.302L33.479 116.45L18.6142 145.93L22.2867 147.781ZM34.2602 118.75C36.1512 120.685 37.218 121.571 38.6209 122.322L40.5626 118.696C39.7118 118.24 38.9921 117.707 37.2014 115.875L34.2602 118.75ZM37.8671 119.93L23.3624 148.689L27.0347 150.541L41.5394 121.782L37.8671 119.93ZM26.389 148.401C25.7802 147.608 25.1034 146.861 24.1714 146.284C23.2332 145.703 22.1864 145.385 20.9584 145.198L20.3382 149.264C21.2254 149.399 21.6897 149.585 22.0058 149.781C22.3281 149.98 22.6487 150.283 23.1275 150.907L26.389 148.401ZM15.9477 209.11H20.7953V204.997H15.9477V209.11ZM23.1089 206.796V169.651H18.9959V206.796H23.1089ZM20.7953 167.337H15.9477V171.45H20.7953V167.337ZM13.6342 169.651V206.796H17.7472V169.651H13.6342ZM8.63338 211.157L26.3746 211.53L26.4609 207.417L8.71965 207.045L8.63338 211.157ZM24.613 209.731V211.264H28.7259V209.731H24.613ZM26.4124 209.465H8.67112V213.578H26.4124V209.465ZM10.4705 211.264V209.358H6.35758V211.264H10.4705ZM28.7138 292.216H49.9018V288.103H28.7138V292.216ZM48.1024 290.417V293.86H52.2154V290.417H48.1024ZM49.9018 292.061H28.7137V296.174H49.9018V292.061ZM30.5132 293.86V290.417H26.4002V293.86H30.5132ZM24.118 298.472H54.6253V294.359H24.118V298.472ZM52.8258 296.672V303.818H56.9388V296.672H52.8258ZM54.6253 302.018H24.118V306.131H54.6253V302.018ZM25.9174 303.818V296.672H21.8044V303.818H25.9174ZM109.65 292.089H130.838V287.976H109.65V292.089ZM129.039 290.289V293.86H133.152V290.289H129.039ZM130.838 292.061H109.65V296.174H130.838V292.061ZM111.45 293.86V290.289H107.337V293.86H111.45ZM104.927 298.344H135.434V294.231H104.927V298.344ZM133.635 296.545V303.818H137.748V296.545H133.635ZM135.434 302.018H104.927V306.131H135.434V302.018ZM106.726 303.818V296.545H102.613V303.818H106.726ZM156.068 85.3472C157.001 87.9524 157.776 89.3108 159.191 90.5284L161.874 87.411C161.242 86.8671 160.772 86.2823 159.94 83.96L156.068 85.3472ZM159.543 87.5784L128.8 103.45L130.687 107.105L161.43 91.2331L159.543 87.5784ZM131.394 104.72L130.471 99.7563L126.427 100.509L127.351 105.472L131.394 104.72ZM129.542 101.677L158.6 86.3298L156.68 82.6929L127.621 98.0397L129.542 101.677ZM136.161 51.5823L139.748 48.1106L136.888 45.155L133.3 48.6267L136.161 51.5823ZM137.224 48.0899L162 72.8658L164.909 69.9575L140.133 45.1816L137.224 48.0899ZM162.088 70.2392L158.39 73.4748L161.098 76.5701L164.796 73.3345L162.088 70.2392ZM160.844 73.5534L136.178 49.0136L133.277 51.9294L157.943 76.4691L160.844 73.5534ZM51.1322 199.355C45.7447 209.925 41.591 217.555 38.6397 223.166C37.1706 225.96 35.9896 228.272 35.1182 230.178C34.2581 232.059 33.6396 233.671 33.372 235.034L37.4079 235.826C37.5785 234.957 38.0274 233.706 38.8588 231.888C39.6789 230.094 40.8137 227.869 42.28 225.081C45.1994 219.53 49.3947 211.821 54.7966 201.222L51.1322 199.355ZM34.9842 237.685L50.4924 242.276L51.6597 238.332L36.1516 233.742L34.9842 237.685ZM53.3233 240.848C57.8508 228.448 61.2043 221.753 68.8207 210.467L65.4114 208.166C57.6034 219.736 54.0991 226.731 49.4598 239.438L53.3233 240.848ZM68.1513 207.221L54.4421 198.452L52.2259 201.917L65.9351 210.686L68.1513 207.221ZM95.7712 210.701L109.976 201.931L107.815 198.432L93.6105 207.202L95.7712 210.701ZM107.414 201.19C117.161 221.292 121.062 229.401 124.24 236.217L127.967 234.478C124.774 227.629 120.859 219.491 111.114 199.395L107.414 201.19ZM125.553 233.684L108.998 236.649L109.723 240.697L126.278 237.732L125.553 233.684ZM111.029 237.874C107.356 226.287 104.471 219.61 96.2936 208.129L92.9436 210.515C100.834 221.594 103.543 227.87 107.109 239.117L111.029 237.874ZM112.075 259.611L127.699 257.414L127.127 253.341L111.503 255.538L112.075 259.611ZM125.795 255.701C125.7 257.916 125.735 267.525 125.846 287.993L129.959 287.971C129.848 267.406 129.815 257.961 129.904 255.876L125.795 255.701ZM127.645 286.189H111.844V290.302H127.645V286.189ZM113.636 288.134C114.102 282.371 113.927 273.439 113.637 258.485L109.525 258.565C109.817 273.643 109.982 282.301 109.537 287.802L113.636 288.134ZM113.637 258.485L113.624 257.797L109.512 257.877L109.525 258.565L113.637 258.485ZM32.5286 257.365H48.4965V253.252H32.5286V257.365ZM46.6971 255.56C46.6317 271.472 46.5532 282.761 46.6917 288.039L50.8033 287.931C50.6669 282.735 50.7444 271.55 50.81 255.577L46.6971 255.56ZM48.4901 286.189H32.5386V290.302H48.4901V286.189ZM34.3375 287.947C33.8861 264.796 34.0206 260.799 34.3249 255.673L30.2192 255.429C29.9042 260.734 29.774 264.878 30.2254 288.027L34.3375 287.947ZM139.391 40.1709L140.434 41.2141L143.342 38.3058L142.299 37.2626L139.391 40.1709ZM140.465 38.6384L127.554 50.9289L130.39 53.908L143.301 41.6174L140.465 38.6384ZM130.015 50.91L128.737 49.7303L125.948 52.7525L127.226 53.9323L130.015 50.91ZM128.738 52.3738L141.884 40.2198L139.092 37.1998L125.946 49.3538L128.738 52.3738ZM67.8691 182.847C63.4409 181.487 59.3605 179.015 56.0246 175.595L53.0802 178.467C56.8963 182.38 61.5736 185.216 66.6616 186.779L67.8691 182.847ZM65.2089 184.813V200.67H69.3218V184.813H65.2089ZM65.228 200.95C65.5835 203.536 65.9979 206.15 67.5094 208.055C69.1589 210.134 71.7202 210.969 75.2015 211.15L75.4144 207.042C72.3782 206.885 71.2886 206.201 70.7313 205.499C70.0362 204.623 69.688 203.193 69.3027 200.39L65.228 200.95ZM75.235 211.151C78.6339 211.272 81.6449 211.009 83.9903 209.229C86.3406 207.445 87.5695 204.489 88.4202 200.486L84.3971 199.631C83.5902 203.428 82.6157 205.109 81.5036 205.953C80.3865 206.801 78.6759 207.158 75.3809 207.041L75.235 211.151ZM95.8678 175.595C92.9541 178.583 89.4723 180.846 85.687 182.277L87.1417 186.125C91.4889 184.481 95.4792 181.884 98.8123 178.467L95.8678 175.595ZM88.4708 200.005V184.201H84.3579V200.005H88.4708ZM88.4202 200.486C88.4529 200.332 88.4708 200.171 88.4708 200.005H84.3579C84.3579 199.875 84.3718 199.75 84.3971 199.631L88.4202 200.486ZM128.737 49.7303C129.509 50.4424 129.509 51.6611 128.738 52.3738L125.946 49.3538C124.955 50.2701 124.956 51.8369 125.947 52.7525L128.737 49.7303ZM127.554 50.929C128.241 50.2748 129.318 50.2666 130.015 50.91L127.226 53.9323C128.122 54.7596 129.506 54.749 130.39 53.908L127.554 50.929ZM140.434 41.2141C139.719 40.4991 139.733 39.3355 140.465 38.6384L143.301 41.6175C144.243 40.7211 144.261 39.225 143.342 38.3058L140.434 41.2141ZM142.299 37.2627C141.42 36.384 140.005 36.3564 139.092 37.1997L141.884 40.2199C141.175 40.8757 140.074 40.8543 139.39 40.1709L142.299 37.2627ZM32.5386 286.189C33.5784 286.189 34.3196 287.028 34.3375 287.947L30.2254 288.027C30.2487 289.226 31.2188 290.302 32.5386 290.302V286.189ZM46.6917 288.039C46.664 286.982 47.5236 286.189 48.4901 286.189V290.302C49.7463 290.302 50.8386 289.278 50.8033 287.931L46.6917 288.039ZM48.4965 257.365C47.4788 257.365 46.6931 256.536 46.6971 255.56L50.81 255.577C50.8152 254.317 49.799 253.252 48.4965 253.252V257.365ZM32.5286 253.252C31.2961 253.252 30.2912 254.215 30.2192 255.429L34.3249 255.673C34.2689 256.616 33.4891 257.365 32.5286 257.365V253.252ZM111.844 286.189C112.875 286.189 113.722 287.068 113.636 288.134L109.537 287.803C109.426 289.169 110.511 290.302 111.844 290.302V286.189ZM125.846 287.993C125.841 287.043 126.601 286.189 127.645 286.189V290.302C128.974 290.302 129.966 289.207 129.959 287.971L125.846 287.993ZM127.699 257.414C126.969 257.517 126.484 257.164 126.295 256.985C126.102 256.801 125.766 256.373 125.795 255.701L129.904 255.876C129.941 254.996 129.49 254.348 129.129 254.004C128.771 253.664 128.063 253.21 127.127 253.341L127.699 257.414ZM111.503 255.538C110.319 255.705 109.49 256.732 109.512 257.877L113.624 257.797C113.641 258.682 113.002 259.481 112.075 259.611L111.503 255.538ZM108.998 236.649C109.911 236.485 110.763 237.036 111.029 237.874L107.109 239.117C107.453 240.202 108.555 240.907 109.723 240.697L108.998 236.649ZM124.24 236.217C123.735 235.134 124.404 233.889 125.553 233.684L126.278 237.732C127.759 237.467 128.615 235.867 127.967 234.478L124.24 236.217ZM109.976 201.931C109.026 202.518 107.857 202.103 107.414 201.19L111.114 199.395C110.539 198.208 109.024 197.685 107.815 198.432L109.976 201.931ZM93.6105 207.202C92.4398 207.924 92.1898 209.457 92.9436 210.516L96.2936 208.129C96.8747 208.945 96.6888 210.135 95.7712 210.701L93.6105 207.202ZM68.8207 210.467C69.5298 209.416 69.2735 207.939 68.1515 207.221L65.9349 210.686C65.0564 210.124 64.864 208.978 65.4114 208.166L68.8207 210.467ZM50.4923 242.276C51.6906 242.631 52.9139 241.97 53.3233 240.848L49.4598 239.438C49.7761 238.571 50.7221 238.054 51.6598 238.332L50.4923 242.276ZM33.372 235.034C33.1264 236.285 33.9251 237.372 34.9844 237.685L36.1515 233.742C36.9622 233.981 37.6035 234.83 37.4079 235.826L33.372 235.034ZM54.7966 201.222C54.3347 202.128 53.1598 202.514 52.2259 201.917L54.442 198.452C53.2522 197.691 51.7321 198.178 51.1322 199.355L54.7966 201.222ZM158.39 73.4747C159.102 72.8522 160.174 72.8864 160.844 73.5533L157.943 76.4691C158.805 77.3266 160.183 77.3706 161.098 76.5702L158.39 73.4747ZM162 72.8658C161.264 72.1297 161.304 70.9246 162.088 70.2392L164.796 73.3345C165.803 72.4533 165.855 70.9039 164.909 69.9575L162 72.8658ZM139.748 48.1106C139.042 48.7936 137.919 48.7845 137.224 48.0899L140.133 45.1816C139.24 44.2885 137.795 44.2767 136.888 45.1549L139.748 48.1106ZM133.3 48.6267C132.37 49.5272 132.36 51.0161 133.277 51.9294L136.178 49.0136C136.892 49.7239 136.884 50.882 136.161 51.5823L133.3 48.6267ZM130.471 99.7563C130.615 100.531 130.239 101.309 129.542 101.677L127.621 98.0397C126.726 98.5126 126.242 99.513 126.427 100.509L130.471 99.7563ZM128.8 103.45C129.872 102.896 131.174 103.534 131.394 104.72L127.351 105.472C127.634 106.997 129.308 107.816 130.687 107.104L128.8 103.45ZM159.191 90.5284C158.283 89.7465 158.35 88.1942 159.543 87.5784L161.43 91.2331C162.954 90.446 163.066 88.4365 161.874 87.411L159.191 90.5284ZM159.94 83.9599C159.469 82.6463 157.937 82.0289 156.68 82.6929L158.6 86.3298C157.621 86.847 156.432 86.3649 156.068 85.3472L159.94 83.9599ZM104.927 302.018C105.92 302.018 106.726 302.824 106.726 303.818H102.613C102.613 305.096 103.649 306.131 104.927 306.131V302.018ZM133.635 303.818C133.635 302.824 134.44 302.018 135.434 302.018V306.131C136.712 306.131 137.748 305.096 137.748 303.818H133.635ZM135.434 298.344C134.44 298.344 133.635 297.538 133.635 296.545H137.748C137.748 295.267 136.712 294.231 135.434 294.231V298.344ZM104.927 294.231C103.649 294.231 102.613 295.267 102.613 296.545H106.726C106.726 297.538 105.921 298.344 104.927 298.344V294.231ZM109.65 292.061C110.644 292.061 111.45 292.867 111.45 293.86H107.337C107.337 295.138 108.372 296.174 109.65 296.174V292.061ZM129.039 293.86C129.039 292.867 129.844 292.061 130.838 292.061V296.174C132.116 296.174 133.152 295.138 133.152 293.86H129.039ZM130.838 292.089C129.844 292.089 129.039 291.283 129.039 290.289H133.152C133.152 289.012 132.116 287.976 130.838 287.976V292.089ZM109.65 287.976C108.372 287.976 107.337 289.012 107.337 290.289H111.45C111.45 291.283 110.644 292.089 109.65 292.089V287.976ZM24.118 302.018C25.1117 302.018 25.9174 302.824 25.9174 303.818H21.8044C21.8044 305.096 22.8404 306.131 24.118 306.131V302.018ZM52.8258 303.818C52.8258 302.824 53.6316 302.018 54.6253 302.018V306.131C55.9029 306.131 56.9388 305.096 56.9388 303.818H52.8258ZM54.6253 298.472C53.6312 298.472 52.8258 297.666 52.8258 296.672H56.9388C56.9388 295.395 55.9032 294.359 54.6253 294.359V298.472ZM24.118 294.359C22.84 294.359 21.8044 295.395 21.8044 296.672H25.9174C25.9174 297.666 25.112 298.472 24.118 298.472V294.359ZM28.7137 292.061C29.7076 292.061 30.5132 292.867 30.5132 293.86H26.4002C26.4002 295.138 27.4359 296.174 28.7137 296.174V292.061ZM48.1024 293.86C48.1024 292.867 48.908 292.061 49.9018 292.061V296.174C51.1796 296.174 52.2154 295.138 52.2154 293.86H48.1024ZM49.9018 292.216C48.9081 292.216 48.1024 291.411 48.1024 290.417H52.2154C52.2154 289.139 51.1795 288.103 49.9018 288.103V292.216ZM28.7138 288.103C27.4361 288.103 26.4002 289.139 26.4002 290.417H30.5132C30.5132 291.411 29.7074 292.216 28.7138 292.216V288.103ZM8.67112 209.465C9.66498 209.465 10.4705 210.271 10.4705 211.264H6.35758C6.35758 212.542 7.39332 213.578 8.67112 213.578V209.465ZM24.613 211.264C24.613 210.271 25.4185 209.465 26.4124 209.465V213.578C27.6902 213.578 28.7259 212.542 28.7259 211.264H24.613ZM26.3747 211.53C25.3958 211.509 24.613 210.71 24.613 209.731H28.7259C28.7259 208.472 27.7195 207.444 26.4609 207.417L26.3747 211.53ZM8.71985 207.045C7.42318 207.018 6.35758 208.062 6.35758 209.358H10.4705C10.4705 210.367 9.64175 211.179 8.63317 211.157L8.71985 207.045ZM15.9477 167.337C14.67 167.337 13.6342 168.373 13.6342 169.651H17.7472C17.7472 170.644 16.9416 171.45 15.9477 171.45V167.337ZM23.1089 169.651C23.1089 168.373 22.0731 167.337 20.7953 167.337V171.45C19.8015 171.45 18.9959 170.644 18.9959 169.651H23.1089ZM20.7953 209.11C22.073 209.11 23.1089 208.074 23.1089 206.796H18.9959C18.9959 205.802 19.8017 204.997 20.7953 204.997V209.11ZM15.9477 204.997C16.9414 204.997 17.7472 205.802 17.7472 206.796H13.6342C13.6342 208.074 14.6701 209.11 15.9477 209.11V204.997ZM23.3624 148.689C23.9776 147.469 25.6089 147.385 26.389 148.401L23.1276 150.907C24.1414 152.226 26.2467 152.103 27.0347 150.541L23.3624 148.689ZM38.621 122.322C37.7856 121.875 37.4161 120.824 37.8671 119.93L41.5394 121.782C42.1179 120.635 41.6473 119.277 40.5625 118.696L38.621 122.322ZM37.1515 118.302C36.5867 119.422 35.1081 119.618 34.2602 118.75L37.2013 115.875C36.1063 114.755 34.2031 115.014 33.479 116.45L37.1515 118.302ZM18.6142 145.93C17.8804 147.385 18.8339 149.034 20.3382 149.264L20.9584 145.198C22.1115 145.374 22.8606 146.643 22.2867 147.781L18.6142 145.93ZM110.273 119.918C110.273 121.454 111.718 122.515 113.143 122.163L112.157 118.17C113.259 117.897 114.386 118.715 114.386 119.918H110.273ZM113.182 95.6201C111.714 95.2285 110.273 96.3355 110.273 97.8555H114.386C114.386 99.0378 113.265 99.8988 112.123 99.5942L113.182 95.6201ZM126.899 103.535C125.986 103.291 125.459 102.415 125.58 101.549L129.653 102.12C129.811 100.998 129.123 99.8708 127.959 99.5605L126.899 103.535ZM41.8471 119.331C41.8471 117.975 43.2528 117.151 44.4169 117.703L42.6542 121.419C44.1578 122.132 45.96 121.063 45.96 119.331H41.8471ZM44.1136 101.254C42.9704 101.561 41.8471 100.7 41.8471 99.5158H45.96C45.96 97.9938 44.5157 96.8865 43.0459 97.2816L44.1136 101.254ZM31.7084 100.329C30.5861 100.631 29.8925 101.702 30.0088 102.808L34.0992 102.377C34.1891 103.232 33.6551 104.065 32.7762 104.301L31.7084 100.329ZM105.818 102.897C104.825 102.897 104.02 102.094 104.018 101.101L108.131 101.092C108.128 99.8161 107.093 98.7836 105.818 98.7836V102.897ZM47.7473 101.097C47.7473 102.091 46.9417 102.897 45.9479 102.897V98.7836C44.6701 98.7836 43.6343 99.8194 43.6343 101.097H47.7473Z" fill="#331813" mask="url(#path-11-outside-1_830_382)"/>
<circle cx="42.881" cy="246.117" r="10.4612" fill="#5A5D65" stroke="#331813" stroke-width="2.05648"/>
<circle cx="42.8798" cy="246.117" r="4.07816" fill="#D9D9D9" stroke="#331813" stroke-width="2.05648"/>
<circle cx="118.201" cy="247.649" r="10.4612" fill="#5A5D65" stroke="#331813" stroke-width="2.05648"/>
<circle cx="118.2" cy="247.649" r="4.07816" fill="#D9D9D9" stroke="#331813" stroke-width="2.05648"/>
<circle cx="95.2238" cy="197.351" r="10.4612" fill="#5A5D65" stroke="#331813" stroke-width="2.05648"/>
<circle cx="95.2236" cy="197.351" r="4.07816" fill="#D9D9D9" stroke="#331813" stroke-width="2.05648"/>
<circle cx="17.3507" cy="158.543" r="10.4612" fill="#5A5D65" stroke="#331813" stroke-width="2.05648"/>
<circle cx="17.3505" cy="158.542" r="4.07816" fill="#D9D9D9" stroke="#331813" stroke-width="2.05648"/>
<rect x="52.2288" y="132.229" width="43.4236" height="14.5988" rx="1.2853" fill="#4C0505"/>
<path d="M60.0967 143.028V142.227L60.6865 142.102V138.27L60.0967 138.145V137.341H64.6396V138.981H63.6045L63.5732 138.395H62.0576V139.563H63.874V140.614H62.0576V141.97H63.6475L63.6787 141.356H64.7021V143.028H60.0967ZM65.2139 143.028V142.227L65.8037 142.102V138.27L65.2139 138.145V137.337H68.0107C68.4613 137.337 68.8519 137.408 69.1826 137.552C69.5133 137.695 69.7686 137.899 69.9482 138.165C70.1279 138.428 70.2178 138.74 70.2178 139.102C70.2178 139.436 70.1266 139.746 69.9443 140.032C69.7646 140.319 69.5173 140.549 69.2021 140.723C68.887 140.895 68.5277 140.98 68.124 140.977L67.1748 140.966V142.102L67.7646 142.227V143.028H65.2139ZM68.8154 143.028L68.0498 140.809L69.2412 140.403L69.9326 142.095L70.4717 142.231V143.028H68.8154ZM67.1748 139.915H68.0264C68.292 139.915 68.4964 139.854 68.6396 139.731C68.7829 139.606 68.8545 139.427 68.8545 139.192C68.8545 138.95 68.7816 138.756 68.6357 138.61C68.4899 138.462 68.2816 138.388 68.0107 138.388H67.1748V139.915ZM70.7686 143.028V142.227L71.3584 142.102V138.27L70.7686 138.145V137.337H73.5654C74.016 137.337 74.4066 137.408 74.7373 137.552C75.068 137.695 75.3232 137.899 75.5029 138.165C75.6826 138.428 75.7725 138.74 75.7725 139.102C75.7725 139.436 75.6813 139.746 75.499 140.032C75.3193 140.319 75.0719 140.549 74.7568 140.723C74.4417 140.895 74.0824 140.98 73.6787 140.977L72.7295 140.966V142.102L73.3193 142.227V143.028H70.7686ZM74.3701 143.028L73.6045 140.809L74.7959 140.403L75.4873 142.095L76.0264 142.231V143.028H74.3701ZM72.7295 139.915H73.5811C73.8467 139.915 74.0511 139.854 74.1943 139.731C74.3376 139.606 74.4092 139.427 74.4092 139.192C74.4092 138.95 74.3363 138.756 74.1904 138.61C74.0446 138.462 73.8363 138.388 73.5654 138.388H72.7295V139.915ZM79.1084 143.11C78.7152 143.11 78.3532 143.039 78.0225 142.895C77.6943 142.749 77.4092 142.546 77.167 142.286C76.9248 142.026 76.7373 141.721 76.6045 141.372C76.4743 141.02 76.4092 140.639 76.4092 140.227V140.138C76.4092 139.729 76.4743 139.35 76.6045 139.001C76.7373 138.652 76.9235 138.347 77.1631 138.087C77.4053 137.826 77.6904 137.623 78.0186 137.477C78.3467 137.332 78.7074 137.259 79.1006 137.259C79.486 137.259 79.8441 137.332 80.1748 137.477C80.5055 137.623 80.7946 137.826 81.042 138.087C81.292 138.347 81.486 138.652 81.624 139.001C81.762 139.35 81.8311 139.729 81.8311 140.138V140.227C81.8311 140.639 81.762 141.02 81.624 141.372C81.486 141.721 81.2933 142.026 81.0459 142.286C80.7985 142.546 80.5094 142.749 80.1787 142.895C79.848 143.039 79.4912 143.11 79.1084 143.11ZM79.1084 142.071C79.3949 142.071 79.6396 141.994 79.8428 141.841C80.0459 141.687 80.2008 141.472 80.3076 141.196C80.4144 140.92 80.4678 140.597 80.4678 140.227V140.13C80.4678 139.768 80.4131 139.45 80.3037 139.177C80.1969 138.901 80.042 138.686 79.8389 138.532C79.6357 138.378 79.3896 138.302 79.1006 138.302C78.7959 138.302 78.5459 138.377 78.3506 138.528C78.1579 138.679 78.0146 138.891 77.9209 139.165C77.8271 139.438 77.7803 139.76 77.7803 140.13V140.227C77.7803 140.597 77.8271 140.921 77.9209 141.2C78.0173 141.476 78.1631 141.691 78.3584 141.845C78.5563 141.996 78.8063 142.071 79.1084 142.071ZM82.2061 143.028V142.227L82.7959 142.102V138.27L82.2061 138.145V137.337H85.0029C85.4535 137.337 85.8441 137.408 86.1748 137.552C86.5055 137.695 86.7607 137.899 86.9404 138.165C87.1201 138.428 87.21 138.74 87.21 139.102C87.21 139.436 87.1188 139.746 86.9365 140.032C86.7568 140.319 86.5094 140.549 86.1943 140.723C85.8792 140.895 85.5199 140.98 85.1162 140.977L84.167 140.966V142.102L84.7568 142.227V143.028H82.2061ZM85.8076 143.028L85.042 140.809L86.2334 140.403L86.9248 142.095L87.4639 142.231V143.028H85.8076ZM84.167 139.915H85.0186C85.2842 139.915 85.4886 139.854 85.6318 139.731C85.7751 139.606 85.8467 139.427 85.8467 139.192C85.8467 138.95 85.7738 138.756 85.6279 138.61C85.4821 138.462 85.2738 138.388 85.0029 138.388H84.167V139.915Z" fill="white"/>
<rect x="52.2288" y="132.229" width="43.4236" height="14.5988" rx="1.2853" stroke="#331813" stroke-width="1.54236"/>
<path d="M86.6691 184.469C79.2023 185.866 74.3738 186.218 66.7541 185.107M96.6266 213.831C104.81 213.107 108.312 211.155 112.967 205.405M101.35 222.256C108.969 222.105 112.501 220.604 116.669 213.831M104.797 228.639C112.079 230.039 115.841 229.357 121.265 222.256M47.7328 207.831C52.8642 213.686 56.4338 215.312 63.818 215.873M44.0307 215.873C48.8964 222.496 52.3969 223.96 59.7328 223.278M39.1796 224.682C43.0062 230.517 46.3097 232.386 55.2647 231.958M31.0093 260.171C39.0179 264.196 43.0969 264.393 49.52 260.554M31.0093 269.746C38.9011 273.282 42.9734 273.357 49.52 269.746M31.0093 279.065C38.9458 282.68 42.9903 282.456 49.52 277.916M110.669 262.98C117.272 265.394 121.149 265.56 128.542 262.469M110.669 271.15C118.288 274.312 122.07 274.09 128.542 271.15M110.669 279.703C118.023 283.563 121.988 284.089 128.542 279.703M133.393 96.5112C135.983 99.5327 136.437 100.922 136.074 103.022M139.776 93.192C142.624 94.7845 143.367 96.264 143.733 99.575M145.137 90.0005C148.265 92.106 148.951 93.5915 149.223 96.5112M150.882 86.9367C154.064 88.9177 155.029 90.2998 155.478 93.192M155.478 72.0004C159.324 71.1384 160.519 70.1191 160.584 67.1494M150.882 68.043C154.784 66.0151 155.893 64.7762 156.499 62.4259M145.137 62.4259C149.297 61.5054 150.782 60.5177 150.882 57.3195M142.074 58.8515C145.715 57.8966 146.847 56.856 147.052 53.7451M137.223 54.7663C141.311 54.4609 142.962 53.6492 143.095 49.4046M32.4136 120.384C34.5327 123.71 35.9825 124.642 38.9242 124.979M29.7327 125.745C31.1894 128.639 32.5668 129.586 36.1157 129.958M26.9242 131.235C28.9958 134.351 30.4421 135.11 33.4349 135.192M24.4987 136.596C25.9614 139.584 27.3577 140.418 30.754 140.299M21.6901 141.83C23.1121 144.856 24.4252 145.807 27.6902 146.171M14.2859 173.746C17.3453 175.716 19.1307 175.842 22.4561 173.746M14.2859 180.384C17.4786 182.388 19.2613 182.335 22.4561 180.384M14.2859 186.639C17.3447 188.544 19.1577 188.597 22.4561 186.639M14.2859 192.895C17.7327 195.073 19.5349 195.153 22.4561 192.895M14.2859 200.299C17.2009 202.99 19.0096 202.796 22.4561 200.299M33.0519 111.575L14.2859 148.469M10.4561 166.597V207.831M122.414 98.9367L158.669 79.7877M169.138 71.1068L140.542 42.7663" stroke="#331813" stroke-width="0.77118"/>
<path d="M116.895 79.7761C117.179 83.6011 107.31 86.4199 96.2138 91.0101C90.2504 92.9554 85.7981 93.8027 80.001 94.5631C79.4731 99.278 78.1529 100.843 73.4903 101.223C68.7597 100.665 68.0929 98.9944 67.7456 95.4316C58.6315 95.4488 54.115 94.7224 51.7881 91.7761C44.1507 71.6928 44.5708 68.7028 43.1072 59.4781C42.3286 43.2308 43.5093 37.4994 47.703 31.6482C55.3 21.5369 62.109 17.6864 80.5116 15.3077C94.5197 15.4939 102.729 15.2631 107.959 23.7333C113.23 39.5756 114.425 54.4284 116.895 79.7761Z" fill="#D9D9D9"/>
<path d="M67.7456 95.4316C58.6315 95.4488 54.115 94.7224 51.7881 91.7761C44.1507 71.6928 44.5708 68.7028 43.1072 59.4781C42.3286 43.2308 43.5093 37.4994 47.703 31.6482C55.3 21.5369 62.109 17.6864 80.5116 15.3077C94.5197 15.4939 102.729 15.2631 107.959 23.7333C113.23 39.5756 114.425 54.4284 116.895 79.7761C117.179 83.6011 107.31 86.4199 96.2138 91.0101C90.2504 92.9554 85.7981 93.8027 80.001 94.5631M67.7456 95.4316C69.4871 95.4283 71.3964 95.3979 73.4903 95.3506C75.8922 95.0715 78.0247 94.8224 80.001 94.5631M67.7456 95.4316C68.0929 98.9944 68.7597 100.665 73.4903 101.223C78.1529 100.843 79.4731 99.278 80.001 94.5631" stroke="#331813" stroke-width="2.05648"/>
<path d="M90.4697 31.3935C94.6049 24.0221 99.2732 23.7671 108.087 24.1168C113.018 42.8503 114.869 55.0317 116.64 79.3931C117.223 83.9734 107.151 86.3051 96.3421 90.6272C91.0366 74.0393 88.143 64.8023 88.0442 52.2015C88.0305 41.5358 88.0932 35.7416 90.4697 31.3935Z" fill="#747577" stroke="#331813" stroke-width="1.02824"/>
<path d="M51.6501 17.5154L51.655 17.4931L51.6585 17.4705C52.3297 13.1684 55.3796 9.45859 59.1932 7.01603C63.0193 4.5655 67.4418 3.4999 70.702 4.28181L70.71 4.28373L70.718 4.28548C73.4681 4.88338 75.7721 7.15317 77.1641 10.4695C78.5516 13.7752 78.9846 18.0293 78.0406 22.371C77.1252 26.5816 73.8481 30.2197 69.9661 32.6565C66.064 35.1059 61.7671 36.2085 58.9728 35.601C56.2227 35.003 53.9186 32.7333 52.5267 29.417C51.1391 26.1112 50.7062 21.8571 51.6501 17.5154Z" fill="#D9D9D9" stroke="#331813" stroke-width="1.54236"/>
<path d="M74.0832 22.4666C73.143 26.7908 70.5793 30.455 67.5047 32.8737C64.415 35.3044 60.903 36.4102 58.0805 35.7966C55.2733 35.1862 53.023 32.9592 51.7008 29.7135C50.38 26.4712 50.0185 22.2738 50.9696 17.8992C51.9097 13.575 54.4735 9.91072 57.548 7.49199C60.6377 5.06131 64.1497 3.95551 66.9722 4.56916C69.7795 5.1795 72.0297 7.40657 73.3519 10.6522C74.6728 13.8945 75.0343 18.0919 74.0832 22.4666Z" fill="#D9D9D9" stroke="#331813" stroke-width="1.2853"/>
<path d="M62.5113 18.2439C62.5113 20.0505 60.6548 21.5622 58.2994 21.5622C55.944 21.5622 54.0875 20.0505 54.0875 18.2439C54.0875 16.4373 55.944 14.9256 58.2994 14.9256C60.6548 14.9256 62.5113 16.4373 62.5113 18.2439Z" fill="#A31E2B" stroke="url(#paint0_angular_830_382)" stroke-width="0.25706"/>
<path d="M71.4483 82.3292C77.532 80.6809 79.2032 79.5325 78.7249 76.5845L55.6185 79.393C56.2705 81.9105 57.3142 82.7565 60.2142 83.3505C63.5898 83.9955 65.9449 83.8696 71.4483 82.3292Z" fill="#363737"/>
<path d="M82.4271 49.5206L50.2568 47.478C47.8119 48.8658 46.9605 49.6825 45.9163 51.1802C45.2673 56.4704 46.6063 58.0923 50.2568 59.9887C55.0013 60.0611 58.0315 60.0707 64.1717 59.9887C70.5865 59.8348 73.64 58.9005 78.7249 56.6696C81.2365 54.5588 82.3608 53.194 82.4271 49.5206Z" fill="#363737"/>
<path d="M71.4483 82.3292C77.532 80.6809 79.2032 79.5325 78.7249 76.5845L55.6185 79.393C56.2705 81.9105 57.3142 82.7565 60.2142 83.3505C63.5898 83.9955 65.9449 83.8696 71.4483 82.3292Z" stroke="#331813" stroke-width="1.02824"/>
<path d="M82.4271 49.5206L50.2568 47.478C47.8119 48.8658 46.9605 49.6825 45.9163 51.1802C45.2673 56.4704 46.6063 58.0923 50.2568 59.9887C55.0013 60.0611 58.0315 60.0707 64.1717 59.9887C70.5865 59.8348 73.64 58.9005 78.7249 56.6696C81.2365 54.5588 82.3608 53.194 82.4271 49.5206Z" stroke="#331813" stroke-width="1.02824"/>
<path d="M64.8101 44.4136C56.9727 44.7023 52.4679 44.775 49.1079 48.6264C47.7217 51.8354 48.2249 53.422 50.5122 56.0312C51.816 56.8683 53.8709 56.8623 58.0441 56.6695C64.668 56.5622 67.8464 56.1848 73.108 55.2653C80.0765 54.1606 82.0836 52.6792 82.5548 48.6264C80.8249 42.9459 74.7317 43.7377 64.8101 44.4136Z" fill="#4C0505"/>
<path d="M66.2142 74.4143C60.0737 74.737 57.4277 75.5055 55.7461 79.1377C57.3004 81.4999 62.6387 80.6593 72.2143 79.1377C76.2814 79.1775 78.1275 78.8783 78.7249 76.3292C76.5574 73.8761 73.0872 73.9147 66.2142 74.4143Z" fill="#4C0505"/>
<path d="M64.8101 44.4136C56.9727 44.7023 52.4679 44.775 49.1079 48.6264C47.7217 51.8354 48.2249 53.422 50.5122 56.0312C51.816 56.8683 53.8709 56.8623 58.0441 56.6695C64.668 56.5622 67.8464 56.1848 73.108 55.2653C80.0765 54.1606 82.0836 52.6792 82.5548 48.6264C80.8249 42.9459 74.7317 43.7377 64.8101 44.4136Z" stroke="#311611" stroke-width="1.02824"/>
<path d="M66.2142 74.4143C60.0737 74.737 57.4277 75.5055 55.7461 79.1377C57.3004 81.4999 62.6387 80.6593 72.2143 79.1377C76.2814 79.1775 78.1275 78.8783 78.7249 76.3292C76.5574 73.8761 73.0872 73.9147 66.2142 74.4143Z" stroke="#311611" stroke-width="1.02824"/>
<path d="M79.2329 49.6774C79.2231 51.1022 78.4928 52.2602 77.345 53.0771C76.183 53.904 74.6045 54.3691 72.9803 54.3691C71.4038 54.3691 69.7367 53.6169 68.4585 52.4664C67.1777 51.3136 66.3446 49.8143 66.3446 48.3717C66.3446 46.9217 66.9584 45.9946 67.9502 45.4073C68.9719 44.8024 70.4221 44.5445 72.0867 44.5445C73.7746 44.5445 75.3778 44.6757 76.6487 45.3745C77.8826 46.0528 78.8608 47.3007 79.2329 49.6774Z" fill="#FAEE32" stroke="#380A15" stroke-width="0.77118"/>
<circle cx="72.7252" cy="48.8822" r="0.6383" fill="#331813"/>
<path d="M55.8737 45.9483H55.8977L55.9215 45.9453C57.4563 45.7536 58.9538 45.6757 60.1549 46.2029C61.306 46.7081 62.2647 47.8099 62.6369 50.1869C62.6254 51.6158 61.768 53.1022 60.4626 54.2496C59.1516 55.402 57.4514 56.1554 55.8736 56.1554C54.2655 56.1554 52.6907 55.6039 51.5242 54.6836C50.36 53.765 49.6209 52.4967 49.6209 51.0521C49.6209 49.6075 50.36 48.339 51.5243 47.4203C52.6907 46.4999 54.2656 45.9483 55.8737 45.9483Z" fill="#FAEE32" stroke="#380A15" stroke-width="0.77118"/>
<circle cx="55.6188" cy="50.6687" r="0.6383" fill="#331813"/>
<circle cx="55.4905" cy="90.6272" r="1.2766" fill="#331813"/>
<circle cx="62.1291" cy="91.9038" r="1.2766" fill="#331813"/>
<circle cx="71.8303" cy="91.9038" r="1.2766" fill="#331813"/>
<circle cx="81.7893" cy="90.6272" r="1.2766" fill="#331813"/>
<circle cx="91.2356" cy="88.8398" r="1.2766" fill="#331813"/>
<circle cx="98.5432" cy="86.2982" r="1.2766" fill="#331813"/>
<circle cx="105.851" cy="83.7565" r="1.2766" fill="#331813"/>
<circle cx="112.331" cy="80.6811" r="1.2766" fill="#331813"/>
<circle cx="63.8196" cy="181.277" r="1.2766" fill="#331813"/>
<circle cx="70.2034" cy="182.554" r="1.2766" fill="#331813"/>
<circle cx="76.5842" cy="182.554" r="1.2766" fill="#331813"/>
<circle cx="82.4573" cy="182.043" r="1.2766" fill="#331813"/>
<circle cx="88.3293" cy="180.767" r="1.2766" fill="#331813"/>
<circle cx="93.9475" cy="177.447" r="1.2766" fill="#331813"/>
<circle cx="98.2883" cy="172.596" r="1.2766" fill="#331813"/>
<circle cx="101.607" cy="167.235" r="1.2766" fill="#331813"/>
<circle cx="58.7141" cy="177.447" r="1.2766" fill="#331813"/>
<circle cx="54.883" cy="173.873" r="1.2766" fill="#331813"/>
<circle cx="51.3088" cy="168.511" r="1.2766" fill="#331813"/>
<circle cx="48.7551" cy="162.384" r="1.2766" fill="#331813"/>
<circle cx="47.4787" cy="154.724" r="1.2766" fill="#331813"/>
<circle cx="47.4787" cy="148.341" r="1.2766" fill="#331813"/>
<circle cx="47.4787" cy="141.958" r="1.2766" fill="#331813"/>
<circle cx="47.4787" cy="135.575" r="1.2766" fill="#331813"/>
<circle cx="47.4787" cy="129.192" r="1.2766" fill="#331813"/>
<circle cx="47.4787" cy="122.809" r="1.2766" fill="#331813"/>
<circle cx="47.4787" cy="116.426" r="1.2766" fill="#331813"/>
<circle cx="47.4787" cy="110.043" r="1.2766" fill="#331813"/>
<circle cx="47.4787" cy="103.66" r="1.2766" fill="#331813"/>
<circle cx="53.0959" cy="103.66" r="1.2766" fill="#331813"/>
<circle cx="58.7141" cy="103.66" r="1.2766" fill="#331813"/>
<circle cx="64.3293" cy="103.66" r="1.2766" fill="#331813"/>
<circle cx="69.9475" cy="103.66" r="1.2766" fill="#331813"/>
<circle cx="75.5637" cy="103.66" r="1.2766" fill="#331813"/>
<circle cx="81.1809" cy="103.66" r="1.2766" fill="#331813"/>
<circle cx="86.7991" cy="103.66" r="1.2766" fill="#331813"/>
<circle cx="92.4153" cy="103.66" r="1.2766" fill="#331813"/>
<circle cx="98.0325" cy="103.66" r="1.2766" fill="#331813"/>
<circle cx="103.65" cy="103.66" r="1.2766" fill="#331813"/>
<circle cx="103.65" cy="110.043" r="1.2766" fill="#331813"/>
<circle cx="103.65" cy="116.426" r="1.2766" fill="#331813"/>
<circle cx="103.65" cy="122.809" r="1.2766" fill="#331813"/>
<circle cx="103.65" cy="129.192" r="1.2766" fill="#331813"/>
<circle cx="103.65" cy="135.575" r="1.2766" fill="#331813"/>
<circle cx="103.65" cy="141.958" r="1.2766" fill="#331813"/>
<circle cx="103.65" cy="148.341" r="1.2766" fill="#331813"/>
<circle cx="103.65" cy="154.724" r="1.2766" fill="#331813"/>
<circle cx="103.65" cy="161.107" r="1.2766" fill="#331813"/>
<path d="M105.804 13.7873L113.119 32.1307C112.843 35.273 111.826 36.6146 109.068 38.5453C106.136 40.2607 104.372 40.2556 101.078 38.5453C97.9625 36.3969 97.3325 34.968 98.0394 32.1307L105.804 13.7873Z" fill="white" stroke="#331813" stroke-width="1.02824"/>
<defs>
<radialGradient id="paint0_angular_830_382" cx="0" cy="0" r="1" gradientUnits="userSpaceOnUse" gradientTransform="translate(58.2994 18.2439) rotate(90) scale(3.44682 4.34044)">
<stop stop-color="#4F1D1D" stop-opacity="0.71"/>
<stop offset="1" stop-color="#4F1D1D" stop-opacity="0.66"/>
</radialGradient>
</defs>
</svg>
