<svg width="201" height="277" viewBox="0 0 201 277" fill="none" xmlns="http://www.w3.org/2000/svg">
<path d="M129.594 276.443H112.533C112.448 276.443 112.381 276.371 112.389 276.287C112.802 271.486 115.686 267.214 117.204 264.793C118.675 262.446 124.483 263.889 124.959 264.012C124.982 264.018 124.999 264.028 125.017 264.044C128.061 266.874 129.393 271.084 129.739 276.288C129.745 276.372 129.678 276.443 129.594 276.443Z" fill="#661C64" stroke="#361311" stroke-width="1.07729"/>
<path d="M132.578 276.443H149.639C149.724 276.443 149.791 276.371 149.783 276.287C149.37 271.486 146.485 267.214 144.968 264.793C143.497 262.446 137.689 263.889 137.213 264.012C137.19 264.018 137.172 264.028 137.155 264.044C134.11 266.874 132.779 271.084 132.433 276.288C132.427 276.372 132.494 276.443 132.578 276.443Z" fill="#661C64" stroke="#361311" stroke-width="1.07729"/>
<path d="M118.454 50.6698L118.493 50.6686L118.531 50.6622C130.102 48.7117 140.744 54.2764 148.636 63.5501C156.528 72.8248 161.604 85.7438 162.021 98.3C162.59 115.446 154.943 126.041 144.197 132.483C133.408 138.95 119.469 141.24 107.518 141.637C95.6766 142.03 87.6198 138.187 82.3931 131.192C77.1373 124.159 74.6788 113.857 74.2589 101.216C73.8431 88.6954 78.9691 76.2475 87.1831 66.8268C95.3982 57.4048 106.656 51.0617 118.454 50.6698Z" fill="#90278E" stroke="#361311" stroke-width="1.14821"/>
<path d="M76.2935 111.907C80.1866 102.74 80.4436 95.8969 78.0633 83.8637C77.9479 83.2803 77.144 83.2453 76.9847 83.8182C74.3905 93.146 73.9215 99.8871 75.2378 111.743C75.3017 112.318 76.0674 112.44 76.2935 111.907Z" fill="#B469B4" stroke="#361311" stroke-width="1.14821"/>
<path d="M93.8389 73.8114C93.992 68.2038 93.1787 66.5116 88.0184 69.8416C87.9901 69.8599 87.9616 69.882 87.937 69.9051C85.6147 72.0765 84.5126 73.3961 82.9074 75.7584C80.3441 80.0688 80.2146 81.7539 81.9212 83.4675C81.9868 83.5334 82.0694 83.5823 82.1599 83.6034C84.8149 84.2213 88.1013 80.4493 93.6924 74.1801C93.7822 74.0795 93.8352 73.9461 93.8389 73.8114Z" fill="#C892C7" stroke="#922C90" stroke-width="1.14821"/>
<path d="M160.94 110.463C153.302 131.343 139.994 136.287 113.686 141.317C121.791 139.117 126.52 137.331 136.2 130.272C146.667 118.962 146.331 107.856 143.199 86.108C139.296 69.18 135.527 62.8471 126.852 55.4956C125.399 56.3815 123.698 57.2195 121.452 58.2289L121.201 50.6904C123.183 50.922 128.965 50.2038 131.524 51.4906C139.274 54.2547 143.212 57.5739 149.807 64.6091C160.108 80.899 162.105 90.4441 160.94 110.463Z" fill="#651B63"/>
<path d="M115.944 50.6961C112.77 47.8864 111.048 46.2997 109.687 44.5452C109.483 44.2819 109.558 43.9022 109.841 43.7261C114.837 40.6147 117.563 38.8015 119.567 36.6666C119.816 36.402 119.74 35.9775 119.422 35.8015C115.794 33.7892 113.702 32.9093 111.368 32.4097C110.846 32.2981 110.704 31.5932 111.156 31.3101C114.567 29.1751 116.834 27.7373 120.351 24.9228" stroke="#361311" stroke-width="1.72232"/>
<path d="M109.617 18.4302L109.598 18.3769L109.575 18.3256C108.439 15.8666 108.093 13.2273 108.541 10.9999C108.985 8.79103 110.192 7.02866 112.165 6.11753C113.917 5.30815 115.962 5.4434 117.97 6.40202C119.968 7.35572 121.862 9.10077 123.212 11.3697C124.306 13.7713 124.548 16.5748 124.031 18.991C123.507 21.4444 122.254 23.3052 120.563 24.0861C118.681 24.9551 116.505 25.1121 114.551 24.3111C112.62 23.5192 110.763 21.7307 109.617 18.4302Z" fill="#90278D" stroke="#361311" stroke-width="2.29643"/>
<path d="M95.1745 59.3342C112.347 63.1043 120.61 61.4278 132.903 51.6744" stroke="#361311" stroke-width="1.14821"/>
<path d="M94.3982 134.709C93.0292 128.859 91.7359 125.534 88.9469 120.366C88.7387 119.98 89.0277 119.509 89.4659 119.511C114.046 119.609 125.091 117.262 138.915 108.678C142.276 106.823 141.071 118.753 141.816 127.682C141.834 127.897 141.732 128.102 141.55 128.216C140.894 128.629 140.246 129.025 139.603 129.406C127.653 136.49 117.77 138.097 98.3951 135.627C97.2558 135.482 96.0837 135.323 94.8765 135.15C94.642 135.116 94.4522 134.94 94.3982 134.709Z" fill="#661B65"/>
<path d="M98.3951 135.627C97.2558 135.482 96.0837 135.323 94.8765 135.15C94.642 135.116 94.4522 134.94 94.3982 134.709C93.0292 128.859 91.7359 125.534 88.9469 120.366C88.7387 119.98 89.0277 119.509 89.4659 119.511C114.046 119.609 125.091 117.262 138.915 108.678C142.276 106.823 141.071 118.753 141.816 127.682C141.834 127.897 141.732 128.102 141.55 128.216C140.894 128.629 140.246 129.025 139.603 129.406M98.3951 135.627L99.1528 126.2C99.1804 125.857 99.5062 125.616 99.8437 125.682C112.961 128.23 119.67 126.943 129.995 120.638C130.22 120.501 130.513 120.531 130.702 120.715L139.603 129.406M98.3951 135.627C117.77 138.097 127.653 136.49 139.603 129.406" stroke="#361311" stroke-width="1.14821"/>
<path d="M133.983 83.2022L89.143 81.8474C85.8065 83.8906 84.6601 85.0658 83.2768 87.1972C82.6186 94.5854 84.5558 96.7795 89.7209 99.2486C96.3236 99.1302 100.539 99.0035 109.075 98.6058C117.991 98.0953 122.195 96.6547 129.164 93.3168C132.56 90.2649 134.061 88.3146 133.983 83.2022Z" fill="#330E32" stroke="#2C0D16" stroke-width="1.78405"/>
<path d="M109.244 76.9124C98.3561 77.6759 92.0936 77.9852 87.5981 83.4974C85.8183 88.0248 86.5915 90.2084 89.8934 93.7319C91.7457 94.8359 94.6036 94.7327 100.399 94.2718C109.607 93.8164 114.011 93.1448 121.287 91.6228C130.928 89.7642 133.652 87.611 134.12 81.9522C131.451 74.1311 123.013 75.5139 109.244 76.9124Z" fill="#570B07" stroke="#2C0D16" stroke-width="1.78405"/>
<path d="M129.417 83.5814C129.464 85.5084 128.529 87.1113 127 88.2778C125.447 89.4626 123.3 90.1752 121.064 90.2495C118.911 90.321 116.589 89.3679 114.777 87.8428C112.96 86.3139 111.759 84.2993 111.694 82.3421C111.629 80.3721 112.417 79.0983 113.73 78.2608C115.093 77.3908 117.07 76.9669 119.376 76.8903C121.723 76.8123 123.928 76.9231 125.696 77.8197C127.398 78.6832 128.794 80.3318 129.417 83.5814Z" fill="#FAEE32" stroke="#380A15" stroke-width="1.33804"/>
<circle cx="120.459" cy="82.7615" r="0.888307" transform="rotate(-1.90232 120.459 82.7615)" fill="#331813"/>
<path d="M96.8893 79.5924L96.9309 79.591L96.972 79.5845C99.0989 79.2468 101.145 79.0766 102.802 79.7393C104.372 80.367 105.733 81.8071 106.356 85.0573C106.4 86.9918 105.303 89.0602 103.561 90.6979C101.808 92.3447 99.5074 93.4532 97.352 93.5248C95.144 93.5982 92.9575 92.9123 91.3173 91.7043C89.681 90.4992 88.6212 88.8041 88.556 86.8434C88.4909 84.8828 89.436 83.1208 90.9887 81.8096C92.5452 80.4953 94.6814 79.6657 96.8893 79.5924Z" fill="#FAEE32" stroke="#380A15" stroke-width="1.33804"/>
<circle cx="96.7474" cy="86.0372" r="0.888307" transform="rotate(-1.90232 96.7474 86.0372)" fill="#331813"/>
<path d="M147.555 93.2893C145.108 80.4061 145.73 74.3904 150.736 67.3267C150.974 66.9911 151.479 67.0227 151.686 67.3781C160.108 81.8569 162.792 91.0271 161.429 108.746C161.399 109.133 161 109.384 160.642 109.233C153.083 106.042 149.78 102.845 147.555 93.2893Z" fill="#90278D" stroke="#361311" stroke-width="1.14821"/>
<circle cx="149.185" cy="80.4216" r="0.914743" transform="rotate(-1.90232 149.185 80.4216)" fill="#591A42"/>
<circle cx="150.875" cy="89.9752" r="0.914743" transform="rotate(-1.90232 150.875 89.9752)" fill="#591A42"/>
<circle cx="153.413" cy="98.1195" r="0.914743" transform="rotate(-1.90232 153.413 98.1195)" fill="#591A42"/>
<circle cx="157.801" cy="103.274" r="0.914743" transform="rotate(-1.90232 157.801 103.274)" fill="#591A42"/>
<circle cx="77.0766" cy="93.1129" r="0.686057" transform="rotate(-1.90232 77.0766 93.1129)" fill="#733D5F"/>
<circle cx="76.4057" cy="100.457" r="0.686057" transform="rotate(-1.90232 76.4057 100.457)" fill="#733D5F"/>
<circle cx="98.5491" cy="64.4847" r="3.14323" transform="rotate(-1.90232 98.5491 64.4847)" fill="#C892C7" stroke="#90278E" stroke-width="0.574107"/>
<path d="M120.962 9.93909C117.852 6.73684 115.907 6.19435 113.019 6.92597C112.532 7.04925 112.471 7.69803 112.905 7.95059C117.007 10.3382 119.395 12.7243 122.086 18.1905C122.34 18.7055 123.106 18.5886 123.153 18.0165C123.448 14.4293 122.804 12.4945 121.017 10.004C121 9.98139 120.982 9.95904 120.962 9.93909Z" fill="#651B63" stroke="#651B63" stroke-width="1.14821"/>
<path d="M137.936 173.174C133.01 179.16 130.05 178.728 124.759 173.613C124.653 173.51 124.589 173.367 124.584 173.219L124.368 166.707L124.144 159.965L123.886 152.194L123.643 144.88L123.5 140.572C123.49 140.289 123.689 140.041 123.968 139.99C128.242 139.201 131.099 138.826 135.707 136.8C136.083 136.635 136.512 136.898 136.526 137.308L136.725 143.301L137.11 151.754L137.463 159.522L138.067 172.783C138.073 172.924 138.025 173.065 137.936 173.174Z" fill="#6F7173"/>
<path d="M123.643 144.88L123.5 140.572C123.49 140.289 123.689 140.041 123.968 139.99C128.242 139.201 131.099 138.826 135.707 136.8C136.083 136.635 136.512 136.898 136.526 137.308L136.725 143.301M123.643 144.88C128.966 145.292 131.845 145.004 136.725 143.301M123.643 144.88L123.886 152.194M136.725 143.301L137.11 151.754M123.886 152.194C129.298 153.781 132.218 153.759 137.11 151.754M123.886 152.194L124.144 159.965M137.11 151.754L137.463 159.522M124.144 159.965C129.527 161.224 132.415 161.088 137.463 159.522M124.144 159.965L124.368 166.707M137.463 159.522L138.067 172.783C138.073 172.924 138.025 173.065 137.936 173.174C133.01 179.16 130.05 178.728 124.759 173.613C124.653 173.51 124.589 173.367 124.584 173.219L124.368 166.707M124.368 166.707C130.2 170.064 133.111 170.025 137.687 166.265" stroke="#361311" stroke-width="1.14821"/>
<path d="M115.599 266.383C120.566 269.954 123.24 269.745 127.596 266.381C127.748 266.263 127.838 266.08 127.838 265.887V258.869V251.546V243.106V235.163V230.475C127.838 230.171 127.619 229.911 127.32 229.858C123.426 229.174 120.792 228.861 116.584 226.911C116.162 226.715 115.673 227.019 115.673 227.484V233.922L115.577 243.106L115.489 251.546L115.339 265.87C115.337 266.072 115.434 266.265 115.599 266.383Z" fill="#B362B1"/>
<path d="M127.838 235.163V230.475C127.838 230.171 127.619 229.911 127.32 229.858C123.426 229.174 120.792 228.861 116.584 226.911C116.162 226.715 115.673 227.019 115.673 227.484V233.922M127.838 235.163C122.921 235.802 120.245 235.593 115.673 233.922M127.838 235.163V243.106M115.673 233.922L115.577 243.106M127.838 243.106C122.874 245.024 120.169 245.105 115.577 243.106M127.838 243.106V251.546M115.577 243.106L115.489 251.546M127.838 251.546C122.891 253.107 120.212 253.063 115.489 251.546M127.838 251.546V258.869M115.489 251.546L115.339 265.87C115.337 266.072 115.434 266.265 115.599 266.383C120.566 269.954 123.24 269.745 127.596 266.381C127.748 266.263 127.838 266.08 127.838 265.887V258.869M127.838 258.869C122.54 262.722 119.842 262.784 115.489 258.869" stroke="#361311" stroke-width="1.25549"/>
<path d="M146.577 266.383C141.609 269.954 138.936 269.745 134.58 266.381C134.428 266.263 134.338 266.08 134.338 265.887V258.869V251.546V243.106V235.163V230.475C134.338 230.171 134.556 229.911 134.856 229.858C138.75 229.174 141.384 228.861 145.592 226.911C146.014 226.715 146.502 227.019 146.502 227.484V233.922L146.599 243.106L146.687 251.546L146.837 265.87C146.839 266.072 146.741 266.265 146.577 266.383Z" fill="#B362B1"/>
<path d="M134.338 235.163V230.475C134.338 230.171 134.556 229.911 134.856 229.858C138.75 229.174 141.384 228.861 145.592 226.911C146.014 226.715 146.502 227.019 146.502 227.484V233.922M134.338 235.163C139.255 235.802 141.931 235.593 146.502 233.922M134.338 235.163V243.106M146.502 233.922L146.599 243.106M134.338 243.106C139.301 245.024 142.006 245.105 146.599 243.106M134.338 243.106V251.546M146.599 243.106L146.687 251.546M134.338 251.546C139.285 253.107 141.964 253.063 146.687 251.546M134.338 251.546V258.869M146.687 251.546L146.837 265.87C146.839 266.072 146.741 266.265 146.577 266.383C141.609 269.954 138.936 269.745 134.58 266.381C134.428 266.263 134.338 266.08 134.338 265.887V258.869M134.338 258.869C139.636 262.722 142.334 262.784 146.687 258.869" stroke="#361311" stroke-width="1.25549"/>
<mask id="path-33-inside-1_830_18" fill="white">
<path d="M105.978 174.964C96.4727 174.964 87.2114 171.955 79.5216 166.368C71.8318 160.78 66.1082 152.902 63.1712 143.862L74.0364 140.332C76.2279 147.078 80.4988 152.956 86.2368 157.125C91.9748 161.294 98.8853 163.54 105.978 163.54L105.978 174.964Z"/>
</mask>
<path d="M105.978 174.964C96.4727 174.964 87.2114 171.955 79.5216 166.368C71.8318 160.78 66.1082 152.902 63.1712 143.862L74.0364 140.332C76.2279 147.078 80.4988 152.956 86.2368 157.125C91.9748 161.294 98.8853 163.54 105.978 163.54L105.978 174.964Z" fill="#B362B1" stroke="#361311" stroke-width="1.25549" mask="url(#path-33-inside-1_830_18)"/>
<path d="M66.3242 150.709C70.6379 151.091 72.9647 150.755 76.5763 146.958M70.5751 157.21C74.549 156.149 76.5196 154.897 79.5769 151.459M76.8264 163.962C80.9379 162.658 82.8079 161.208 84.828 156.46M82.8276 168.213C86.9005 166.345 88.481 164.558 89.829 159.711M88.8288 171.213C93.8356 169.588 95.3197 167.694 94.8301 161.961" stroke="#361311" stroke-width="1.25549"/>
<path d="M103.025 160.421C108.759 155.773 112.251 155.37 118.18 158.401C118.629 158.63 118.619 159.268 118.166 159.491C110.929 163.061 106.056 164.713 106.7 177.443C106.715 177.74 106.522 178.02 106.232 178.09C103.513 178.746 102.16 178.346 100.55 176.306C100.502 176.245 100.465 176.173 100.443 176.098C98.4531 169.329 98.5452 165.783 102.938 160.507C102.964 160.476 102.994 160.446 103.025 160.421Z" fill="#661C64"/>
<path d="M146.237 156.959C151.719 152.222 159.188 151.961 163.694 157.897C163.724 157.937 163.751 157.984 163.771 158.031C166.952 165.576 166.034 169.413 161.27 175.674C161.25 175.7 161.227 175.725 161.204 175.748C157.8 178.987 155.092 180.215 151.488 179.429C145.62 180.265 144.784 183.571 146.987 193.718C150.288 208.925 150.353 217.997 147.017 225.159C146.997 225.203 146.972 225.243 146.942 225.281C144.099 228.868 140.322 230.883 129.341 230.262C129.005 230.243 128.74 229.959 128.748 229.622L130.229 170.4C130.232 170.278 130.27 170.16 130.339 170.059L137.849 159.157C137.937 159.03 138.068 158.939 138.218 158.903L146.237 156.959Z" fill="#661C64"/>
<path d="M146.237 156.959C151.719 152.222 159.188 151.961 163.694 157.897C163.724 157.937 163.751 157.984 163.771 158.031C166.952 165.576 166.034 169.413 161.27 175.674C161.25 175.7 161.227 175.725 161.204 175.748C157.8 178.987 155.092 180.215 151.488 179.429M146.237 156.959C140.759 161.691 139.496 170.386 144.669 176.386C144.713 176.437 144.767 176.482 144.825 176.516C147.448 178.045 149.592 179.016 151.488 179.429M146.237 156.959L138.218 158.903C138.068 158.939 137.937 159.03 137.849 159.157L130.339 170.059C130.27 170.16 130.232 170.278 130.229 170.4L128.748 229.622C128.74 229.959 129.005 230.243 129.341 230.262C140.322 230.883 144.099 228.868 146.942 225.281C146.972 225.243 146.997 225.203 147.017 225.159C150.353 217.997 150.288 208.925 146.987 193.718C144.784 183.571 145.62 180.265 151.488 179.429M106.232 178.09C103.513 178.746 102.16 178.346 100.55 176.306C100.502 176.245 100.465 176.173 100.443 176.098C98.4531 169.329 98.5452 165.783 102.938 160.507C102.964 160.476 102.994 160.446 103.025 160.421C108.759 155.773 112.251 155.37 118.18 158.401C118.629 158.63 118.619 159.268 118.166 159.491C110.929 163.061 106.056 164.713 106.7 177.443C106.715 177.74 106.522 178.02 106.232 178.09Z" stroke="#361311" stroke-width="1.25549"/>
<path d="M145.376 156.46H134.532C134.5 156.46 134.469 156.463 134.437 156.467L119.824 158.697C119.762 158.706 119.701 158.725 119.645 158.752C109.466 163.643 106.522 166.918 106.479 173.714C108.245 199.53 107.553 221.694 113.98 226.224C122.68 232.152 129.733 231.726 136.235 227.725C142.731 223.727 137.549 200.87 133.742 173.771C133.737 173.733 133.735 173.694 133.737 173.655C134.089 165.87 138.214 162.564 145.719 157.618C146.24 157.274 146 156.46 145.376 156.46Z" fill="#90278E" stroke="#361311" stroke-width="1.25549"/>
<path d="M165.394 164.492C165.374 164.089 165.436 163.63 165.526 163.137C165.553 162.992 165.583 162.84 165.613 162.686C165.68 162.346 165.748 161.996 165.788 161.685C165.816 161.461 165.836 161.22 165.823 160.983C165.863 161 165.903 161.018 165.943 161.037C166.21 161.166 166.349 161.263 166.592 161.433C166.677 161.493 166.774 161.561 166.895 161.643C167.347 161.95 168.053 162.396 169.495 163.166C173.053 165.067 176.106 167.789 178.403 171.105C179.139 172.167 179.791 173.281 180.353 174.435C181.548 176.885 182.344 179.518 182.703 182.236C182.878 183.555 182.948 184.882 182.914 186.204C182.847 188.89 182.354 191.556 181.445 194.102C181.184 194.835 180.889 195.554 180.563 196.257C179.198 199.197 177.281 201.855 174.907 204.084C171.966 206.844 168.409 208.865 164.532 209.978C163.865 210.169 163.388 210.35 163.042 210.519C162.297 210.884 161.619 210.748 160.995 210.288C160.347 209.811 159.782 208.992 159.391 208.074L157.61 203.896C157.328 203.233 157.272 202.704 157.35 202.276C157.427 201.851 157.646 201.475 158.001 201.13C158.735 200.419 159.994 199.895 161.513 199.459C163.211 198.972 164.802 198.178 166.207 197.122C166.628 196.806 167.032 196.467 167.417 196.105C168.547 195.044 169.496 193.812 170.23 192.458C170.584 191.807 170.888 191.127 171.138 190.424C171.62 189.073 171.897 187.663 171.963 186.24C172.003 185.385 171.967 184.525 171.854 183.671C171.663 182.224 171.254 180.82 170.647 179.504C170.298 178.749 169.884 178.024 169.407 177.336C168.916 176.627 168.364 175.965 167.759 175.359C166.914 174.511 165.964 173.77 164.932 173.154C164.933 173.154 164.934 173.154 164.934 173.154C164.961 173.144 165.012 173.122 165.068 173.08C165.118 173.042 165.229 172.943 165.263 172.768C165.3 172.573 165.218 172.423 165.155 172.347C165.098 172.278 165.037 172.24 165.009 172.225C164.95 172.191 164.895 172.174 164.871 172.168C164.84 172.159 164.809 172.152 164.783 172.147C164.73 172.137 164.67 172.129 164.61 172.122C164.49 172.11 164.343 172.102 164.194 172.103C164.15 172.103 164.105 172.104 164.058 172.106C164.074 172.034 164.102 171.943 164.144 171.829C164.212 171.646 164.307 171.436 164.422 171.199C164.486 171.066 164.558 170.922 164.633 170.773C164.812 170.413 165.009 170.019 165.169 169.641C165.394 169.11 165.591 168.512 165.564 167.962L165.394 164.492ZM164.241 160.089L164.236 160.165L164.241 160.089Z" fill="#B362B1" stroke="#361311" stroke-width="1.00814"/>
<mask id="path-39-inside-2_830_18" fill="white">
<path d="M145.738 217.502C147.584 219.522 150.103 220.801 152.823 221.098C155.543 221.396 158.279 220.692 160.518 219.118C162.757 217.544 164.345 215.208 164.986 212.548C165.627 209.887 165.277 207.085 164.001 204.664C162.725 202.243 160.61 200.37 158.053 199.396C155.496 198.421 152.671 198.412 150.108 199.37C147.544 200.328 145.417 202.187 144.126 204.599C142.834 207.012 142.465 209.812 143.089 212.477L149.584 210.956C149.33 209.871 149.48 208.731 150.006 207.748C150.532 206.766 151.398 206.009 152.442 205.619C153.486 205.228 154.636 205.232 155.678 205.629C156.719 206.026 157.58 206.789 158.1 207.774C158.62 208.76 158.762 209.902 158.501 210.985C158.24 212.069 157.593 213.02 156.682 213.661C155.77 214.302 154.656 214.588 153.548 214.467C152.44 214.346 151.414 213.825 150.663 213.003L145.738 217.502Z"/>
</mask>
<path d="M145.738 217.502C147.584 219.522 150.103 220.801 152.823 221.098C155.543 221.396 158.279 220.692 160.518 219.118C162.757 217.544 164.345 215.208 164.986 212.548C165.627 209.887 165.277 207.085 164.001 204.664C162.725 202.243 160.61 200.37 158.053 199.396C155.496 198.421 152.671 198.412 150.108 199.37C147.544 200.328 145.417 202.187 144.126 204.599C142.834 207.012 142.465 209.812 143.089 212.477L149.584 210.956C149.33 209.871 149.48 208.731 150.006 207.748C150.532 206.766 151.398 206.009 152.442 205.619C153.486 205.228 154.636 205.232 155.678 205.629C156.719 206.026 157.58 206.789 158.1 207.774C158.62 208.76 158.762 209.902 158.501 210.985C158.24 212.069 157.593 213.02 156.682 213.661C155.77 214.302 154.656 214.588 153.548 214.467C152.44 214.346 151.414 213.825 150.663 213.003L145.738 217.502Z" fill="#B362B1" stroke="#361311" stroke-width="1.53328" mask="url(#path-39-inside-2_830_18)"/>
<mask id="path-40-inside-3_830_18" fill="white">
<path d="M63.832 124.848C61.4196 125.492 59.2899 126.92 57.778 128.907C56.2662 130.894 55.4581 133.327 55.4809 135.824C55.5038 138.321 56.3563 140.739 57.9043 142.698C59.4522 144.657 61.6078 146.046 64.0315 146.645C66.4552 147.245 69.0096 147.021 71.2924 146.01C73.5751 144.998 75.4568 143.257 76.641 141.058C77.8252 138.86 78.2448 136.331 77.8338 133.868C77.4227 131.405 76.2043 129.149 74.3703 127.455L69.8437 132.355C70.5906 133.045 71.0868 133.964 71.2542 134.966C71.4216 135.969 71.2507 136.999 70.7684 137.895C70.2862 138.79 69.5199 139.499 68.5903 139.911C67.6606 140.323 66.6204 140.414 65.6334 140.17C64.6463 139.926 63.7685 139.36 63.1381 138.562C62.5077 137.764 62.1606 136.78 62.1513 135.763C62.142 134.746 62.4711 133.755 63.0867 132.946C63.7024 132.137 64.5697 131.555 65.5521 131.293L63.832 124.848Z"/>
</mask>
<path d="M63.832 124.848C61.4196 125.492 59.2899 126.92 57.778 128.907C56.2662 130.894 55.4581 133.327 55.4809 135.824C55.5038 138.321 56.3563 140.739 57.9043 142.698C59.4522 144.657 61.6078 146.046 64.0315 146.645C66.4552 147.245 69.0096 147.021 71.2924 146.01C73.5751 144.998 75.4568 143.257 76.641 141.058C77.8252 138.86 78.2448 136.331 77.8338 133.868C77.4227 131.405 76.2043 129.149 74.3703 127.455L69.8437 132.355C70.5906 133.045 71.0868 133.964 71.2542 134.966C71.4216 135.969 71.2507 136.999 70.7684 137.895C70.2862 138.79 69.5199 139.499 68.5903 139.911C67.6606 140.323 66.6204 140.414 65.6334 140.17C64.6463 139.926 63.7685 139.36 63.1381 138.562C62.5077 137.764 62.1606 136.78 62.1513 135.763C62.142 134.746 62.4711 133.755 63.0867 132.946C63.7024 132.137 64.5697 131.555 65.5521 131.293L63.832 124.848Z" fill="#B362B1" stroke="#361311" stroke-width="1.53328" mask="url(#path-40-inside-3_830_18)"/>
<path d="M130.161 121.137C120.379 127.05 113.619 128.082 99.7458 126.041C99.6088 126.021 99.4796 126.12 99.4682 126.258L98.745 135.027C98.7342 135.157 98.8342 135.273 98.9646 135.285C119.469 137.259 128.013 135.792 138.55 129.505C138.684 129.424 138.708 129.237 138.596 129.127L130.455 121.169C130.377 121.093 130.255 121.08 130.161 121.137Z" fill="#360635" stroke="#361311" stroke-width="0.479282"/>
<circle cx="120.489" cy="182.418" r="8.68658" fill="#94548B"/>
<circle cx="127.457" cy="182.513" r="0.954569" fill="#733D5F"/>
<circle cx="113.139" cy="182.704" r="0.954569" fill="#733D5F"/>
<circle cx="120.584" cy="174.877" r="0.954569" fill="#733D5F"/>
<circle cx="120.776" cy="189.768" r="0.954569" fill="#733D5F"/>
<circle cx="115.622" cy="187.668" r="0.954569" fill="#733D5F"/>
<circle cx="115.24" cy="177.549" r="0.954569" fill="#733D5F"/>
<circle cx="125.548" cy="177.549" r="0.954569" fill="#733D5F"/>
<circle cx="125.548" cy="187.668" r="0.954569" fill="#733D5F"/>
<path d="M30.7644 114.097C16.8354 114.097 5.54345 102.805 5.54345 88.8757C5.54345 74.9466 16.8354 63.6548 30.7644 63.6548C44.6936 63.6548 55.9854 74.9466 55.9854 88.8757C55.9854 92.9103 55.038 96.7235 53.3536 100.105C52.906 101.004 52.757 102.031 53.0165 103.001L54.5187 108.615C55.1708 111.052 52.9412 113.282 50.504 112.63L44.8897 111.128C43.9198 110.868 42.8926 111.017 41.994 111.465C38.6122 113.149 34.799 114.097 30.7644 114.097Z" fill="#FAEE32" stroke="#2C0D16" stroke-width="2"/>
<path d="M32.6813 89.258C32.5787 89.6118 32.4455 89.8972 32.4231 90.1873C32.337 91.3265 32.087 92.4598 32.3051 93.6144C32.3782 94.0059 32.2544 94.1687 31.8935 94.322C31.739 94.3888 31.5777 94.4387 31.4124 94.4706C30.2824 94.7017 29.1141 94.6653 28.0006 94.3644C27.6817 94.2541 27.3738 94.1143 27.0808 93.947C26.7081 93.763 26.5678 93.454 26.5654 93.0389C26.5654 91.4515 26.5029 89.8654 26.5348 88.2792C26.5501 87.5079 26.6999 86.7378 26.8237 85.9725C26.9266 85.435 27.1482 84.9274 27.4723 84.4865C27.9617 84.3238 28.4688 84.378 28.97 84.3851C29.9174 84.403 30.8623 84.2838 31.7756 84.0313C32.2061 83.9134 32.5882 83.7058 32.837 83.3049C32.9524 83.1377 33.0189 82.9416 33.0291 82.7387C33.0394 82.5358 32.9928 82.3341 32.8948 82.1562C32.3311 81.0594 31.482 80.6302 30.3027 80.9675C28.5962 81.4545 27.2883 82.4416 26.5678 84.1186C26.2234 84.9205 25.9781 85.0349 25.1774 84.8179C24.979 84.7751 24.7885 84.7019 24.6125 84.6009C23.7657 84.0466 22.9237 83.4853 22.0935 82.9062C21.8234 82.7187 21.7644 82.4463 21.8446 82.102C21.9761 81.5417 22.2253 81.0158 22.5758 80.5594C23.7231 79.0521 25.1009 77.7351 26.6586 76.6571C27.5395 76.0391 28.5585 75.8033 29.5821 75.5768C30.8487 75.2961 32.1035 75.2289 33.3948 75.5202C34.657 75.7877 35.8031 76.4453 36.6709 77.4C37.2181 77.9968 37.7323 78.6253 38.2312 79.2645C38.8882 80.1256 39.3359 81.1277 39.539 82.1916C40.0874 84.8002 39.1428 86.8003 37.1674 88.4419C36.448 89.0387 35.6166 89.2321 34.7215 89.2545C34.0835 89.271 33.4432 89.258 32.6813 89.258ZM31.1919 93.4092C31.2202 93.1969 31.2603 92.9693 31.2791 92.7393C31.3381 92.0318 31.3723 91.3242 31.4501 90.6166C31.5162 90.0128 31.6341 89.4149 31.719 88.8134C31.7697 88.4596 31.9867 88.278 32.3087 88.2238C32.5072 88.1859 32.7092 88.1685 32.9113 88.1719C33.5198 88.186 34.1272 88.2061 34.7333 88.2426C35.1369 88.283 35.544 88.215 35.9126 88.0457C37.1438 87.4254 38.0767 86.5126 38.4293 85.1587C38.7312 84.003 38.7442 82.8237 38.2807 81.675C38.0264 81.0125 37.6733 80.3922 37.2335 79.8353C36.7841 79.2858 36.362 78.7126 35.8867 78.1843C35.1484 77.3706 34.2734 76.7609 33.1743 76.4931C31.1966 76.0049 29.3073 76.3316 27.4829 77.1948C27.3042 77.2906 27.1338 77.401 26.9735 77.525C25.6078 78.485 24.4509 79.6655 23.4025 80.9521C23.1324 81.2835 22.8341 81.6267 22.8211 82.089C23.6103 82.9047 24.5633 83.5441 25.6172 83.9653L26.1208 83.1221C26.5218 82.4522 26.9463 81.7965 27.5973 81.3425C28.5502 80.6773 29.6021 80.1797 30.7425 80.0075C32.3322 79.7716 33.554 80.5747 34.034 82.3178C34.1275 82.6823 34.0959 83.0677 33.9444 83.4122C33.6448 84.1363 33.1625 84.6481 32.3912 84.8946C31.556 85.1693 30.6818 85.3067 29.8026 85.3014C29.2708 85.3014 28.733 85.2448 28.2353 85.3521C27.8131 85.9418 27.7636 86.5975 27.7306 87.239C27.6457 88.8181 27.5902 90.3984 27.5336 91.9787C27.5384 92.2288 27.5573 92.4784 27.5902 92.7264C28.8226 93.5991 29.7955 93.7819 31.1919 93.4092Z" fill="#2C0D16"/>
<path d="M29.4769 102.492C28.7968 102.518 28.126 102.328 27.5596 101.951C26.9931 101.574 26.5598 101.028 26.3211 100.391C26.1615 100.016 26.0983 99.6081 26.1371 99.2031C26.2798 98.1028 26.6937 97.1476 27.5251 96.3574C28.2917 95.6274 29.1137 95.447 30.1196 95.71C30.7812 95.8834 31.4239 96.0437 31.9381 96.5296C32.6988 97.2466 33.1092 98.0863 32.9169 99.1559C32.8875 99.3222 32.8721 99.4909 32.8438 99.6571C32.5313 101.497 31.3449 102.495 29.4769 102.492ZM29.688 101.512C29.9253 101.479 30.1595 101.426 30.3885 101.355C31.3025 101.029 32.1115 99.722 32.0006 98.7691C31.9695 98.6059 31.9175 98.4474 31.8461 98.2974C31.3744 97.098 30.3602 96.7171 29.1974 96.6063C28.9637 96.5872 28.7302 96.6461 28.5334 96.7737C27.8259 97.2808 27.3093 97.9731 27.1678 98.8246C26.9343 100.235 28.0782 101.543 29.688 101.512Z" fill="#2C0D16"/>
<path d="M31.192 93.4093C29.7957 93.7819 28.8228 93.5992 27.5904 92.7265C27.5593 92.4768 27.5423 92.2256 27.5397 91.9741C27.5963 90.3938 27.6517 88.8135 27.7367 87.2344C27.772 86.5976 27.8192 85.9478 28.2414 85.3475C28.7391 85.2402 29.2768 85.2944 29.8087 85.2968C30.6879 85.3021 31.5621 85.1647 32.3973 84.8899C33.1686 84.6376 33.6509 84.1316 33.9504 83.4075C34.102 83.0631 34.1336 82.6777 34.0401 82.3131C33.5542 80.5748 32.3324 79.767 30.7427 80.0076C29.5953 80.1798 28.5504 80.6774 27.5975 81.3461C26.9453 81.8001 26.522 82.4558 26.121 83.1257L25.6174 83.9689C24.5631 83.5467 23.6102 82.906 22.8213 82.0891C22.8343 81.6268 23.1326 81.2836 23.4027 80.9522C24.4511 79.6656 25.608 78.4851 26.9736 77.5251C27.134 77.4011 27.3044 77.2907 27.4831 77.1949C29.3075 76.3317 31.1968 76.005 33.1922 76.4956C34.2854 76.7633 35.1604 77.373 35.9046 78.1867C36.3763 78.7103 36.802 79.2835 37.2513 79.8378C37.6912 80.3947 38.0443 81.0149 38.2986 81.6775C38.762 82.8261 38.7491 84.0055 38.4472 85.1612C38.0934 86.5115 37.1617 87.4278 35.9305 88.0481C35.5619 88.2174 35.1548 88.2854 34.7512 88.2451C34.145 88.2085 33.5377 88.1885 32.9292 88.1743C32.727 88.171 32.5251 88.1884 32.3265 88.2262C31.9987 88.2852 31.7817 88.4621 31.7369 88.8159C31.652 89.4173 31.534 90.0152 31.468 90.619C31.3902 91.3266 31.3501 92.0342 31.297 92.7418C31.2604 92.9694 31.2203 93.197 31.192 93.4093Z" fill="white"/>
<path d="M29.6882 101.512C28.0784 101.545 26.9345 100.238 27.168 98.8271C27.3095 97.9744 27.826 97.281 28.5336 96.7739C28.7296 96.6442 28.9632 96.5832 29.1976 96.6005C30.3604 96.7114 31.371 97.0923 31.8463 98.2917C31.9177 98.4417 31.9696 98.6002 32.0008 98.7634C32.1116 99.7163 31.3026 101.023 30.3887 101.35C30.1599 101.422 29.9256 101.477 29.6882 101.512Z" fill="white"/>
</svg>
