<svg width="1143" height="816" viewBox="0 0 1143 816" fill="none" xmlns="http://www.w3.org/2000/svg">
<g filter="url(#filter0_dd_116_2)">
<path d="M1072 197.3C1072 197.3 1062 126.9 1031.4 95.9C992.6 55.2 949 55 929.1 52.6C786.1 42.3 571.7 42.3 571.7 42.3H571.3C571.3 42.3 356.9 42.3 213.9 52.6C194 55 150.4 55.2 111.6 95.9C81 126.9 71 197.3 71 197.3C71 197.3 60.8 279.9 60.8 362.6V440.1C60.8 522.8 71 605.4 71 605.4C71 605.4 81 675.8 111.6 706.8C150.5 747.5 201.5 746.2 224.2 750.5C305.9 758.3 571.5 760.8 571.5 760.8C571.5 760.8 786.1 760.5 929.1 750.1C949.1 747.7 992.6 747.5 1031.4 706.8C1062 675.8 1072 605.4 1072 605.4C1072 605.4 1082.2 522.7 1082.2 440.1V362.6C1082.2 279.9 1072 197.3 1072 197.3ZM466 534V247L742 391L466 534Z" fill="url(#paint0_linear_116_2)"/>
<path d="M466 534L742 391L466 247V534Z" fill="white"/>
<path opacity="0.12" d="M466 247L708 408.6L742 391L466 247Z" fill="#420000"/>
</g>
<defs>
<filter id="filter0_dd_116_2" x="0.800003" y="0.299988" width="1141.4" height="815.5" filterUnits="userSpaceOnUse" color-interpolation-filters="sRGB">
<feFlood flood-opacity="0" result="BackgroundImageFix"/>
<feColorMatrix in="SourceAlpha" type="matrix" values="0 0 0 0 0 0 0 0 0 0 0 0 0 0 0 0 0 0 127 0" result="hardAlpha"/>
<feOffset dx="-20" dy="-2"/>
<feGaussianBlur stdDeviation="20"/>
<feColorMatrix type="matrix" values="0 0 0 0 0 0 0 0 0 0 0 0 0 0 0 0 0 0 0.3 0"/>
<feBlend mode="normal" in2="BackgroundImageFix" result="effect1_dropShadow_116_2"/>
<feColorMatrix in="SourceAlpha" type="matrix" values="0 0 0 0 0 0 0 0 0 0 0 0 0 0 0 0 0 0 127 0" result="hardAlpha"/>
<feOffset dx="20" dy="15"/>
<feGaussianBlur stdDeviation="20"/>
<feColorMatrix type="matrix" values="0 0 0 0 0 0 0 0 0 0 0 0 0 0 0 0 0 0 0.3 0"/>
<feBlend mode="normal" in2="effect1_dropShadow_116_2" result="effect2_dropShadow_116_2"/>
<feBlend mode="normal" in="SourceGraphic" in2="effect2_dropShadow_116_2" result="shape"/>
</filter>
<linearGradient id="paint0_linear_116_2" x1="571.5" y1="42.3" x2="571.5" y2="760.8" gradientUnits="userSpaceOnUse">
<stop stop-color="#3FBDBC"/>
<stop offset="1" stop-color="#3AB4B5"/>
</linearGradient>
</defs>
</svg>
