<svg width="128" height="143" viewBox="0 0 128 143" fill="none" xmlns="http://www.w3.org/2000/svg">
<path d="M0.808594 26.1914C0.621094 25.8164 0.609375 25.3008 0.773438 24.6445C0.9375 23.9883 1.17188 23.3086 1.47656 22.6055C1.80469 21.9023 2.14453 21.2227 2.49609 20.5664C2.84766 19.9102 3.11719 19.3711 3.30469 18.9492C3.375 18.8086 3.42188 18.6914 3.44531 18.5977C3.49219 18.5039 3.52734 18.3984 3.55078 18.2812C3.59766 18.1641 3.64453 18.0352 3.69141 17.8945C3.73828 17.7539 3.82031 17.5547 3.9375 17.2969C4.07812 16.9922 4.30078 16.5234 4.60547 15.8906C4.93359 15.2344 5.29688 14.5078 5.69531 13.7109C6.09375 12.8906 6.50391 12.0352 6.92578 11.1445C7.37109 10.2539 7.78125 9.41016 8.15625 8.61328C8.55469 7.79297 8.90625 7.06641 9.21094 6.43359C9.53906 5.77734 9.77344 5.29687 9.91406 4.99219V4.18359C9.49219 4.11328 9.08203 4.13672 8.68359 4.25391C8.28516 4.37109 7.89844 4.53516 7.52344 4.74609C7.17188 4.95703 6.82031 5.20312 6.46875 5.48438C6.14062 5.74219 5.83594 5.97656 5.55469 6.1875C5.22656 6.11719 5.03906 5.96484 4.99219 5.73047C4.94531 5.49609 4.96875 5.25 5.0625 4.99219C5.15625 4.73437 5.28516 4.5 5.44922 4.28906C5.63672 4.05469 5.80078 3.89062 5.94141 3.79688C8.37891 2.27344 10.9922 1.26562 13.7812 0.773438C16.5703 0.257813 19.3945 0.210938 22.2539 0.632812C23.9883 1.5 25.1719 2.42578 25.8047 3.41016C26.4375 4.37109 26.6602 5.35547 26.4727 6.36328C26.3086 7.37109 25.793 8.36719 24.9258 9.35156C24.082 10.3359 23.0273 11.2852 21.7617 12.1992C20.5195 13.0898 19.1367 13.9219 17.6133 14.6953C16.1133 15.4688 14.6133 16.1367 13.1133 16.6992C11.6367 17.2617 10.2305 17.707 8.89453 18.0352C7.55859 18.3398 6.44531 18.4922 5.55469 18.4922C5.10938 19.1953 4.74609 19.7812 4.46484 20.25C4.18359 20.6953 3.96094 21.0938 3.79688 21.4453C3.63281 21.7734 3.49219 22.0898 3.375 22.3945C3.28125 22.6758 3.17578 23.0039 3.05859 23.3789C2.96484 23.7305 2.83594 24.1641 2.67188 24.6797C2.50781 25.1953 2.28516 25.8398 2.00391 26.6133L1.61719 27C1.52344 26.9531 1.37109 26.8359 1.16016 26.6484C0.972656 26.4375 0.855469 26.2852 0.808594 26.1914ZM6.75 16.4883C7.73438 16.6523 8.77734 16.6289 9.87891 16.418C10.9805 16.1836 12.0703 15.8555 13.1484 15.4336C14.25 15.0117 15.3047 14.543 16.3125 14.0273C17.3203 13.4883 18.2344 12.9961 19.0547 12.5508C21.0234 11.4492 22.4883 10.3828 23.4492 9.35156C24.4336 8.29688 25.0312 7.32422 25.2422 6.43359C25.4531 5.51953 25.3477 4.71094 24.9258 4.00781C24.5273 3.30469 23.918 2.74219 23.0977 2.32031C22.3008 1.875 21.3633 1.59375 20.2852 1.47656C19.2305 1.35937 18.1523 1.44141 17.0508 1.72266C15.9727 2.00391 14.9414 2.50781 13.957 3.23438C12.9727 3.96094 12.1523 4.94531 11.4961 6.1875C11.2617 6.63281 10.9805 7.18359 10.6523 7.83984C10.3242 8.47266 9.98438 9.14062 9.63281 9.84375C9.28125 10.5469 8.92969 11.25 8.57812 11.9531C8.22656 12.6328 7.91016 13.2539 7.62891 13.8164C7.37109 14.3555 7.16016 14.8008 6.99609 15.1523C6.83203 15.5039 6.75 15.6914 6.75 15.7148V16.4883ZM22.3945 26.6133C22.3477 26.5898 22.3477 26.3203 22.3945 25.8047C22.4648 25.2656 22.5586 24.5977 22.6758 23.8008C22.793 23.0039 22.9453 22.125 23.1328 21.1641C23.3203 20.2031 23.5195 19.2891 23.7305 18.4219C23.9414 17.5312 24.1641 16.7578 24.3984 16.1016C24.6562 15.4219 24.9023 14.9531 25.1367 14.6953C25.3008 14.5312 25.4648 14.5312 25.6289 14.6953C25.793 14.8359 25.957 15.0234 26.1211 15.2578C26.2852 15.4688 26.4492 15.668 26.6133 15.8555C26.7773 16.0195 26.9531 16.0312 27.1406 15.8906C27.7969 14.9766 28.5117 14.1094 29.2852 13.2891C30.082 12.4453 30.9609 11.7188 31.9219 11.1094C32.0156 11.0391 32.2734 10.9336 32.6953 10.793C33.1172 10.6289 33.5977 10.4766 34.1367 10.3359C34.6758 10.1719 35.2266 10.043 35.7891 9.94922C36.375 9.83203 36.8672 9.78516 37.2656 9.80859C37.6875 9.80859 37.9688 9.91406 38.1094 10.125C38.2734 10.3125 38.2031 10.6406 37.8984 11.1094C36.4922 11.1328 35.1797 11.543 33.9609 12.3398C32.7422 13.1367 31.6172 14.1211 30.5859 15.293C29.5547 16.4648 28.6172 17.7422 27.7734 19.125C26.9297 20.4844 26.1914 21.75 25.5586 22.9219C24.9492 24.0938 24.4336 25.0664 24.0117 25.8398C23.6133 26.6133 23.3203 27 23.1328 27C23.1094 27 23.0039 26.9531 22.8164 26.8594C22.6289 26.7422 22.4883 26.6602 22.3945 26.6133ZM41.2383 26.6133C40.2539 26.2148 39.6328 25.6172 39.375 24.8203C39.1406 24.0234 39.1523 23.1445 39.4102 22.1836C39.668 21.1992 40.1133 20.1914 40.7461 19.1602C41.3789 18.1055 42.082 17.1445 42.8555 16.2773C43.6289 15.4102 44.4023 14.6836 45.1758 14.0977C45.9727 13.4883 46.6523 13.1484 47.2148 13.0781C48.668 12.8906 49.8047 12.9961 50.625 13.3945C51.4688 13.7695 52.043 14.3203 52.3477 15.0469C52.6523 15.7734 52.7344 16.6289 52.5938 17.6133C52.4531 18.5742 52.1367 19.5469 51.6445 20.5312C51.1758 21.5156 50.5547 22.4648 49.7812 23.3789C49.0312 24.293 48.1875 25.0664 47.25 25.6992C46.3359 26.3086 45.3633 26.7188 44.332 26.9297C43.3008 27.1172 42.2695 27.0117 41.2383 26.6133ZM40.8516 24.6094C41.0391 25.3594 41.4375 25.7812 42.0469 25.875C42.6562 25.9453 43.3594 25.793 44.1562 25.418C44.9766 25.0195 45.832 24.457 46.7227 23.7305C47.6133 22.9805 48.4219 22.1719 49.1484 21.3047C49.8984 20.4375 50.5078 19.5703 50.9766 18.7031C51.4688 17.8125 51.7031 17.0391 51.6797 16.3828C51.6797 15.7266 51.3633 15.2344 50.7305 14.9062C50.1211 14.5547 49.0898 14.4844 47.6367 14.6953C47.3086 15 46.8867 15.375 46.3711 15.8203C45.8555 16.2422 45.3164 16.7109 44.7539 17.2266C44.2148 17.7422 43.6758 18.3047 43.1367 18.9141C42.5977 19.5 42.1289 20.1094 41.7305 20.7422C41.332 21.375 41.0391 22.0195 40.8516 22.6758C40.6875 23.332 40.6875 23.9766 40.8516 24.6094ZM45.0703 39.3047C44.4844 39.0469 43.8984 38.6953 43.3125 38.25C42.7031 37.8047 42.2344 37.3125 41.9062 36.7734C41.5547 36.2344 41.4141 35.6602 41.4844 35.0508C41.5312 34.4648 41.9297 33.8906 42.6797 33.3281C42.8438 33.3516 42.9609 33.4688 43.0312 33.6797C43.1016 33.8906 43.1602 34.1484 43.207 34.4531C43.2305 34.7578 43.2656 35.0859 43.3125 35.4375C43.3359 35.7891 43.418 36.1289 43.5586 36.457C43.6758 36.7852 43.8516 37.0664 44.0859 37.3008C44.3203 37.5352 44.6484 37.6758 45.0703 37.7227C46.1484 37.8867 47.1211 37.7109 47.9883 37.1953C48.8555 36.7031 49.6406 35.9883 50.3438 35.0508C51.0234 34.1133 51.6445 33.0117 52.207 31.7461C52.7695 30.5039 53.2852 29.2148 53.7539 27.8789C54.2227 26.543 54.6445 25.207 55.0195 23.8711C55.3945 22.5352 55.7578 21.3281 56.1094 20.25C56.4609 19.1719 56.8008 18.2695 57.1289 17.543C57.457 16.8164 57.8086 16.3828 58.1836 16.2422C58.4883 16.3594 58.6289 16.8164 58.6055 17.6133C58.6055 18.4102 58.4648 19.4297 58.1836 20.6719C57.9258 21.8906 57.5508 23.2617 57.0586 24.7852C56.5664 26.2852 55.9922 27.7852 55.3359 29.2852C54.6797 30.8086 53.9531 32.2617 53.1562 33.6445C52.3359 35.0273 51.4922 36.1992 50.625 37.1602C49.7344 38.1445 48.8203 38.8477 47.8828 39.2695C46.9453 39.6914 46.0078 39.7031 45.0703 39.3047ZM58.1836 10.3008C57.8555 9.87891 57.7617 9.55078 57.9023 9.31641C58.043 9.05859 58.2422 8.94141 58.5 8.96484C58.7578 8.98828 59.0039 9.17578 59.2383 9.52734C59.4727 9.85547 59.5195 10.3828 59.3789 11.1094C59.2617 11.1797 59.1328 11.1797 58.9922 11.1094C58.8516 11.0391 58.7227 10.9453 58.6055 10.8281C58.4883 10.7109 58.3828 10.5938 58.2891 10.4766C58.2188 10.3594 58.1836 10.3008 58.1836 10.3008ZM63.1055 26.6133C62.4023 26.3789 61.8633 26.0273 61.4883 25.5586C61.1367 25.0664 60.9023 24.5273 60.7852 23.9414C60.668 23.3555 60.6445 22.7461 60.7148 22.1133C60.8086 21.457 60.9492 20.8359 61.1367 20.25C61.8398 19.5 62.625 18.6445 63.4922 17.6836C64.3828 16.6992 65.3203 15.7383 66.3047 14.8008C67.2891 13.8633 68.3086 12.9961 69.3633 12.1992C70.4414 11.3789 71.5312 10.7578 72.6328 10.3359C73.0078 10.1719 73.3008 10.1836 73.5117 10.3711C73.7461 10.5352 73.9102 10.8047 74.0039 11.1797C74.0977 11.5547 74.1328 11.9883 74.1094 12.4805C74.1094 12.9727 74.0742 13.4531 74.0039 13.9219C73.9336 14.3906 73.8398 14.8125 73.7227 15.1875C73.6055 15.5625 73.4883 15.8203 73.3711 15.9609C73.0898 16.2891 72.5391 16.6758 71.7188 17.1211C70.9219 17.5664 70.0312 18.0586 69.0469 18.5977C68.0625 19.1133 67.0781 19.6523 66.0938 20.2148C65.1094 20.7773 64.3008 21.3398 63.668 21.9023C63.0352 22.4414 62.6602 22.9805 62.543 23.5195C62.4258 24.0586 62.7539 24.5508 63.5273 24.9961C64.3242 25.0898 65.2852 25.0547 66.4102 24.8906C67.5586 24.7031 68.7188 24.4688 69.8906 24.1875C71.0859 23.8828 72.2344 23.5781 73.3359 23.2734C74.4375 22.9453 75.3398 22.6875 76.043 22.5L76.4648 22.8867C75.9492 23.5664 75.1055 24.1875 73.9336 24.75C72.7617 25.3125 71.4961 25.7812 70.1367 26.1562C68.7773 26.5078 67.4531 26.7422 66.1641 26.8594C64.875 26.9531 63.8555 26.8711 63.1055 26.6133ZM71.5078 13.1836C71.4844 13.1602 71.3086 13.2656 70.9805 13.5C70.6523 13.7109 70.2422 14.0039 69.75 14.3789C69.2812 14.7305 68.7656 15.1289 68.2031 15.5742C67.6641 15.9961 67.1602 16.3945 66.6914 16.7695C66.2461 17.1445 65.8711 17.4727 65.5664 17.7539C65.2617 18.0117 65.1328 18.1406 65.1797 18.1406C65.5547 18.2109 66.0352 18.1641 66.6211 18C67.2305 17.8125 67.8516 17.5547 68.4844 17.2266C69.1406 16.8984 69.7617 16.5352 70.3477 16.1367C70.9336 15.7148 71.3906 15.3047 71.7188 14.9062C72.0703 14.5078 72.2461 14.1562 72.2461 13.8516C72.2695 13.5469 72.0234 13.3242 71.5078 13.1836ZM78.9961 26.6133C77.8008 26.2148 77.0039 25.5938 76.6055 24.75C76.2305 23.9062 76.125 22.957 76.2891 21.9023C76.4766 20.8242 76.8867 19.6992 77.5195 18.5273C78.1523 17.332 78.9023 16.1953 79.7695 15.1172C80.6367 14.0391 81.5508 13.0664 82.5117 12.1992C83.4727 11.332 84.375 10.6758 85.2188 10.2305C86.0859 9.78516 86.8242 9.60938 87.4336 9.70312C88.043 9.79688 88.418 10.2656 88.5586 11.1094C88.6289 11.4844 88.582 11.8945 88.418 12.3398C88.2773 12.7852 88.0664 13.2188 87.7852 13.6406C87.5273 14.0391 87.2227 14.4141 86.8711 14.7656C86.543 15.0938 86.2148 15.3398 85.8867 15.5039C85.582 15.668 85.3008 15.7266 85.043 15.6797C84.8086 15.6328 84.6562 15.4336 84.5859 15.082C84.8672 14.6133 85.1836 14.1445 85.5352 13.6758C85.8867 13.1836 86.2266 12.7266 86.5547 12.3047C86.4141 12.0469 86.1445 11.9883 85.7461 12.1289C85.3477 12.2695 84.8672 12.5508 84.3047 12.9727C83.7422 13.3945 83.1445 13.9336 82.5117 14.5898C81.9023 15.2227 81.3047 15.9141 80.7188 16.6641C80.1328 17.4141 79.6055 18.1992 79.1367 19.0195C78.6914 19.8164 78.3633 20.5898 78.1523 21.3398C77.9414 22.0898 77.8828 22.793 77.9766 23.4492C78.0938 24.082 78.4336 24.5977 78.9961 24.9961C79.7695 25.0664 80.6602 24.9961 81.668 24.7852C82.6758 24.5508 83.707 24.2578 84.7617 23.9062C85.8164 23.5547 86.8594 23.1797 87.8906 22.7812C88.9453 22.3594 89.8945 21.9727 90.7383 21.6211C91.6055 21.2695 92.332 21 92.918 20.8125C93.5273 20.6016 93.9258 20.543 94.1133 20.6367C94.5586 20.8711 94.582 21.2109 94.1836 21.6562C93.8086 22.1016 93.1641 22.582 92.25 23.0977C91.3359 23.6133 90.2461 24.1289 88.9805 24.6445C87.7383 25.1367 86.4844 25.5703 85.2188 25.9453C83.9531 26.2969 82.7578 26.5547 81.6328 26.7188C80.5078 26.8594 79.6289 26.8242 78.9961 26.6133ZM98.2617 26.6133C98.2383 26.5664 98.2266 26.4375 98.2266 26.2266C98.2266 26.0156 98.2383 25.875 98.2617 25.8047C98.332 25.5469 98.4609 25.1016 98.6484 24.4688C98.8359 23.8125 99.0352 23.1328 99.2461 22.4297C99.457 21.7031 99.6562 21.0234 99.8438 20.3906C100.031 19.7578 100.16 19.3125 100.23 19.0547C100.324 18.7266 100.43 18.3516 100.547 17.9297C100.664 17.4844 100.688 17.0625 100.617 16.6641C100.266 16.6172 99.832 16.6641 99.3164 16.8047C98.8008 16.9219 98.2852 17.0273 97.7695 17.1211C97.2773 17.1914 96.8086 17.1914 96.3633 17.1211C95.9414 17.0273 95.6367 16.7461 95.4492 16.2773C95.7305 15.6914 96.1523 15.3164 96.7148 15.1523C97.2773 14.9648 97.8867 14.8359 98.543 14.7656C99.1992 14.6953 99.8203 14.5898 100.406 14.4492C101.016 14.3086 101.496 13.9922 101.848 13.5C102.059 12.8906 102.305 12.1523 102.586 11.2852C102.891 10.3945 103.207 9.46875 103.535 8.50781C103.863 7.54687 104.215 6.59766 104.59 5.66016C104.988 4.72266 105.398 3.89062 105.82 3.16406C106.078 3 106.289 2.98828 106.453 3.12891C106.617 3.26953 106.734 3.48047 106.805 3.76172C106.898 4.01953 106.957 4.28906 106.98 4.57031C107.004 4.85156 107.004 5.03906 106.98 5.13281C106.84 5.74219 106.594 6.39844 106.242 7.10156C105.914 7.78125 105.598 8.47266 105.293 9.17578C105.012 9.87891 104.777 10.582 104.59 11.2852C104.426 11.9883 104.426 12.6562 104.59 13.2891H112.148C112.172 13.2891 112.23 13.3711 112.324 13.5352C112.418 13.6758 112.5 13.793 112.57 13.8867C112.688 14.2148 112.559 14.4375 112.184 14.5547C111.809 14.6719 111.305 14.7539 110.672 14.8008C110.039 14.8242 109.312 14.8477 108.492 14.8711C107.695 14.8711 106.922 14.9297 106.172 15.0469C105.445 15.1406 104.789 15.3164 104.203 15.5742C103.617 15.8086 103.219 16.1719 103.008 16.6641C102.398 18.2344 101.836 19.8164 101.32 21.4102C100.805 22.9805 100.312 24.5742 99.8438 26.1914C99.7969 26.2617 99.7031 26.3789 99.5625 26.543C99.4219 26.6836 99.2695 26.8125 99.1055 26.9297C98.9414 27.0234 98.7773 27.0586 98.6133 27.0352C98.4727 27.0117 98.3555 26.8711 98.2617 26.6133ZM2.77734 61.6133C1.79297 61.2148 1.17188 60.6172 0.914062 59.8203C0.679688 59.0234 0.691406 58.1445 0.949219 57.1836C1.20703 56.1992 1.65234 55.1914 2.28516 54.1602C2.91797 53.1055 3.62109 52.1445 4.39453 51.2773C5.16797 50.4102 5.94141 49.6836 6.71484 49.0977C7.51172 48.4883 8.19141 48.1484 8.75391 48.0781C10.207 47.8906 11.3438 47.9961 12.1641 48.3945C13.0078 48.7695 13.582 49.3203 13.8867 50.0469C14.1914 50.7734 14.2734 51.6289 14.1328 52.6133C13.9922 53.5742 13.6758 54.5469 13.1836 55.5312C12.7148 56.5156 12.0938 57.4648 11.3203 58.3789C10.5703 59.293 9.72656 60.0664 8.78906 60.6992C7.875 61.3086 6.90234 61.7188 5.87109 61.9297C4.83984 62.1172 3.80859 62.0117 2.77734 61.6133ZM2.39062 59.6094C2.57812 60.3594 2.97656 60.7812 3.58594 60.875C4.19531 60.9453 4.89844 60.793 5.69531 60.418C6.51562 60.0195 7.37109 59.457 8.26172 58.7305C9.15234 57.9805 9.96094 57.1719 10.6875 56.3047C11.4375 55.4375 12.0469 54.5703 12.5156 53.7031C13.0078 52.8125 13.2422 52.0391 13.2188 51.3828C13.2188 50.7266 12.9023 50.2344 12.2695 49.9062C11.6602 49.5547 10.6289 49.4844 9.17578 49.6953C8.84766 50 8.42578 50.375 7.91016 50.8203C7.39453 51.2422 6.85547 51.7109 6.29297 52.2266C5.75391 52.7422 5.21484 53.3047 4.67578 53.9141C4.13672 54.5 3.66797 55.1094 3.26953 55.7422C2.87109 56.375 2.57812 57.0195 2.39062 57.6758C2.22656 58.332 2.22656 58.9766 2.39062 59.6094ZM16.5234 61.1914C16.4766 61.1445 16.4531 61.0156 16.4531 60.8047C16.4531 60.5938 16.4766 60.4648 16.5234 60.418L19.4766 53.6328H16.1367C16.0664 53.6328 15.9961 53.5859 15.9258 53.4922C15.8789 53.3984 15.832 53.293 15.7852 53.1758C15.7617 53.0352 15.7383 52.9062 15.7148 52.7891C15.6914 52.6484 15.7031 52.543 15.75 52.4727C15.8203 52.4492 15.9492 52.4023 16.1367 52.332C16.3242 52.2617 16.5234 52.1797 16.7344 52.0859C16.9453 51.9922 17.1445 51.9102 17.332 51.8398C17.5195 51.7695 17.6484 51.7109 17.7188 51.6641C17.7891 51.6406 17.9766 51.5703 18.2812 51.4531C18.6094 51.3359 18.9492 51.2188 19.3008 51.1016C19.6758 50.9609 20.0156 50.832 20.3203 50.7148C20.625 50.5977 20.8125 50.5156 20.8828 50.4688C21.1641 50.2812 21.4922 49.8242 21.8672 49.0977C22.2656 48.3477 22.7109 47.457 23.2031 46.4258C23.6953 45.3945 24.2344 44.293 24.8203 43.1211C25.4062 41.9258 26.0391 40.7891 26.7188 39.7109C27.3984 38.6094 28.1133 37.6367 28.8633 36.793C29.6133 35.9258 30.3867 35.3164 31.1836 34.9648C32.0039 34.5898 32.8477 34.5312 33.7148 34.7891C34.582 35.0469 35.4727 35.7383 36.3867 36.8633C36.5508 37.0977 36.668 37.3555 36.7383 37.6367C36.8086 37.8945 36.8203 38.1641 36.7734 38.4453C36.5625 38.5625 36.3516 38.5859 36.1406 38.5156C35.9297 38.4453 35.7305 38.3281 35.543 38.1641C35.3789 38 35.2266 37.8359 35.0859 37.6719C34.9453 37.4844 34.8516 37.3438 34.8047 37.25C33.2344 36.9922 31.9805 37.0625 31.043 37.4609C30.1289 37.8359 29.3672 38.4219 28.7578 39.2188C28.1719 39.9922 27.6562 40.918 27.2109 41.9961C26.7656 43.0742 26.25 44.1875 25.6641 45.3359C25.5 45.6172 25.3008 45.9805 25.0664 46.4258C24.8555 46.8711 24.6445 47.3047 24.4336 47.7266C24.2227 48.1484 24.0352 48.5117 23.8711 48.8164C23.7305 49.1211 23.6602 49.2734 23.6602 49.2734V49.6953C23.6602 49.7891 23.9531 49.8594 24.5391 49.9062C25.125 49.9531 25.7812 50.0234 26.5078 50.1172C27.2578 50.2109 27.9727 50.3516 28.6523 50.5391C29.3555 50.7031 29.8125 50.9492 30.0234 51.2773L29.6367 51.6641C28.3008 51.5938 27.1758 51.5703 26.2617 51.5938C25.3477 51.6172 24.5508 51.7695 23.8711 52.0508C23.1914 52.332 22.5938 52.7891 22.0781 53.4219C21.5625 54.0312 21.0352 54.8984 20.4961 56.0234C20.3086 56.4219 20.0625 56.9375 19.7578 57.5703C19.4531 58.1797 19.1484 58.7891 18.8438 59.3984C18.5391 59.9844 18.2812 60.5 18.0703 60.9453C17.8594 61.3672 17.7422 61.5898 17.7188 61.6133L17.2969 62C17.2266 61.9531 17.0859 61.8359 16.875 61.6484C16.6875 61.4375 16.5703 61.2852 16.5234 61.1914ZM53.7539 61.6133C53.7305 61.5664 53.7188 61.4375 53.7188 61.2266C53.7188 61.0156 53.7305 60.875 53.7539 60.8047C53.8242 60.5469 53.9531 60.1016 54.1406 59.4688C54.3281 58.8125 54.5273 58.1328 54.7383 57.4297C54.9492 56.7031 55.1484 56.0234 55.3359 55.3906C55.5234 54.7578 55.6523 54.3125 55.7227 54.0547C55.8164 53.7266 55.9219 53.3516 56.0391 52.9297C56.1562 52.4844 56.1797 52.0625 56.1094 51.6641C55.7578 51.6172 55.3242 51.6641 54.8086 51.8047C54.293 51.9219 53.7773 52.0273 53.2617 52.1211C52.7695 52.1914 52.3008 52.1914 51.8555 52.1211C51.4336 52.0273 51.1289 51.7461 50.9414 51.2773C51.2227 50.6914 51.6445 50.3164 52.207 50.1523C52.7695 49.9648 53.3789 49.8359 54.0352 49.7656C54.6914 49.6953 55.3125 49.5898 55.8984 49.4492C56.5078 49.3086 56.9883 48.9922 57.3398 48.5C57.5508 47.8906 57.7969 47.1523 58.0781 46.2852C58.3828 45.3945 58.6992 44.4688 59.0273 43.5078C59.3555 42.5469 59.707 41.5977 60.082 40.6602C60.4805 39.7227 60.8906 38.8906 61.3125 38.1641C61.5703 38 61.7812 37.9883 61.9453 38.1289C62.1094 38.2695 62.2266 38.4805 62.2969 38.7617C62.3906 39.0195 62.4492 39.2891 62.4727 39.5703C62.4961 39.8516 62.4961 40.0391 62.4727 40.1328C62.332 40.7422 62.0859 41.3984 61.7344 42.1016C61.4062 42.7812 61.0898 43.4727 60.7852 44.1758C60.5039 44.8789 60.2695 45.582 60.082 46.2852C59.918 46.9883 59.918 47.6562 60.082 48.2891H67.6406C67.6641 48.2891 67.7227 48.3711 67.8164 48.5352C67.9102 48.6758 67.9922 48.793 68.0625 48.8867C68.1797 49.2148 68.0508 49.4375 67.6758 49.5547C67.3008 49.6719 66.7969 49.7539 66.1641 49.8008C65.5312 49.8242 64.8047 49.8477 63.9844 49.8711C63.1875 49.8711 62.4141 49.9297 61.6641 50.0469C60.9375 50.1406 60.2812 50.3164 59.6953 50.5742C59.1094 50.8086 58.7109 51.1719 58.5 51.6641C57.8906 53.2344 57.3281 54.8164 56.8125 56.4102C56.2969 57.9805 55.8047 59.5742 55.3359 61.1914C55.2891 61.2617 55.1953 61.3789 55.0547 61.543C54.9141 61.6836 54.7617 61.8125 54.5977 61.9297C54.4336 62.0234 54.2695 62.0586 54.1055 62.0352C53.9648 62.0117 53.8477 61.8711 53.7539 61.6133ZM66.0586 61.1914C66.0352 61.1445 66.0234 61.0859 66.0234 61.0156C66.0234 60.9219 66.0352 60.8516 66.0586 60.8047C66.1523 60.6172 66.3047 60.3008 66.5156 59.8555C66.75 59.3867 66.9844 58.9062 67.2188 58.4141C67.4766 57.8984 67.7227 57.418 67.957 56.9727C68.1914 56.5273 68.3555 56.2109 68.4492 56.0234C68.4961 55.9531 68.6133 55.7539 68.8008 55.4258C69.0117 55.0977 69.2578 54.6992 69.5391 54.2305C69.8438 53.7383 70.1602 53.1992 70.4883 52.6133C70.8398 52.0273 71.1797 51.4531 71.5078 50.8906C71.8594 50.3281 72.1758 49.8008 72.457 49.3086C72.7617 48.8164 73.0078 48.4062 73.1953 48.0781C73.6641 47.3047 74.2031 46.3906 74.8125 45.3359C75.4453 44.2812 76.0898 43.2148 76.7461 42.1367C77.4023 41.0586 78.0469 40.0156 78.6797 39.0078C79.3359 38 79.9336 37.168 80.4727 36.5117C81.0117 35.8555 81.4688 35.4219 81.8438 35.2109C82.2188 35 82.4766 35.1406 82.6172 35.6328V36.7578C82.4531 37.0156 82.2305 37.3555 81.9492 37.7773C81.668 38.1758 81.375 38.6094 81.0703 39.0781C80.7891 39.5234 80.5078 39.957 80.2266 40.3789C79.9453 40.8008 79.7344 41.1289 79.5938 41.3633C79.3828 41.6914 79.043 42.2188 78.5742 42.9453C78.1055 43.6719 77.5781 44.4922 76.9922 45.4062C76.4062 46.3203 75.8086 47.2812 75.1992 48.2891C74.5898 49.2734 74.0391 50.1992 73.5469 51.0664C73.0547 51.9336 72.6562 52.6836 72.3516 53.3164C72.0703 53.9258 71.9648 54.3125 72.0352 54.4766C72.5977 54.3125 73.1953 54.0195 73.8281 53.5977C74.4844 53.1523 75.1406 52.6836 75.7969 52.1914C76.4531 51.6992 77.1094 51.2305 77.7656 50.7852C78.4219 50.3164 79.0312 49.9531 79.5938 49.6953C80.1562 49.7656 80.6484 49.9766 81.0703 50.3281C81.4922 50.6797 81.7969 51.125 81.9844 51.6641C81.9609 51.875 81.9375 52.2734 81.9141 52.8594C81.9141 53.4219 81.9141 54.0195 81.9141 54.6523C81.9141 55.2852 81.9141 55.8828 81.9141 56.4453C81.9375 57.0078 81.9609 57.3945 81.9844 57.6055C82.0078 57.8633 82.125 58.1914 82.3359 58.5898C82.5469 58.9648 82.7695 59.3516 83.0039 59.75C83.2617 60.125 83.4844 60.4531 83.6719 60.7344C83.8828 61.0156 83.9766 61.168 83.9531 61.1914C83.4844 61.3555 83.0391 61.3672 82.6172 61.2266C82.1953 61.0625 81.8203 60.8164 81.4922 60.4883C81.1875 60.1367 80.9297 59.75 80.7188 59.3281C80.5312 58.8828 80.4141 58.4492 80.3672 58.0273C80.3438 57.8164 80.3086 57.4297 80.2617 56.8672C80.2148 56.2812 80.168 55.6719 80.1211 55.0391C80.0977 54.4062 80.0625 53.8086 80.0156 53.2461C79.9922 52.6836 79.9805 52.2969 79.9805 52.0859L79.1719 51.6641C79.0312 51.5938 78.7852 51.6523 78.4336 51.8398C78.1055 52.0273 77.7188 52.2852 77.2734 52.6133C76.8281 52.9414 76.3594 53.3164 75.8672 53.7383C75.375 54.1602 74.9062 54.5586 74.4609 54.9336C74.0391 55.3086 73.6758 55.6367 73.3711 55.918C73.0664 56.1992 72.8789 56.375 72.8086 56.4453C72.6211 56.6328 72.2812 56.9727 71.7891 57.4648C71.2969 57.9336 70.7695 58.4492 70.207 59.0117C69.668 59.5508 69.1523 60.0664 68.6602 60.5586C68.1914 61.0508 67.8633 61.4023 67.6758 61.6133C67.3477 61.6836 67.0312 61.7188 66.7266 61.7188C66.4453 61.6953 66.2227 61.5195 66.0586 61.1914ZM88.1367 61.6133C87.4336 61.3789 86.8945 61.0273 86.5195 60.5586C86.168 60.0664 85.9336 59.5273 85.8164 58.9414C85.6992 58.3555 85.6758 57.7461 85.7461 57.1133C85.8398 56.457 85.9805 55.8359 86.168 55.25C86.8711 54.5 87.6562 53.6445 88.5234 52.6836C89.4141 51.6992 90.3516 50.7383 91.3359 49.8008C92.3203 48.8633 93.3398 47.9961 94.3945 47.1992C95.4727 46.3789 96.5625 45.7578 97.6641 45.3359C98.0391 45.1719 98.332 45.1836 98.543 45.3711C98.7773 45.5352 98.9414 45.8047 99.0352 46.1797C99.1289 46.5547 99.1641 46.9883 99.1406 47.4805C99.1406 47.9727 99.1055 48.4531 99.0352 48.9219C98.9648 49.3906 98.8711 49.8125 98.7539 50.1875C98.6367 50.5625 98.5195 50.8203 98.4023 50.9609C98.1211 51.2891 97.5703 51.6758 96.75 52.1211C95.9531 52.5664 95.0625 53.0586 94.0781 53.5977C93.0938 54.1133 92.1094 54.6523 91.125 55.2148C90.1406 55.7773 89.332 56.3398 88.6992 56.9023C88.0664 57.4414 87.6914 57.9805 87.5742 58.5195C87.457 59.0586 87.7852 59.5508 88.5586 59.9961C89.3555 60.0898 90.3164 60.0547 91.4414 59.8906C92.5898 59.7031 93.75 59.4688 94.9219 59.1875C96.1172 58.8828 97.2656 58.5781 98.3672 58.2734C99.4688 57.9453 100.371 57.6875 101.074 57.5L101.496 57.8867C100.98 58.5664 100.137 59.1875 98.9648 59.75C97.793 60.3125 96.5273 60.7812 95.168 61.1562C93.8086 61.5078 92.4844 61.7422 91.1953 61.8594C89.9062 61.9531 88.8867 61.8711 88.1367 61.6133ZM96.5391 48.1836C96.5156 48.1602 96.3398 48.2656 96.0117 48.5C95.6836 48.7109 95.2734 49.0039 94.7812 49.3789C94.3125 49.7305 93.7969 50.1289 93.2344 50.5742C92.6953 50.9961 92.1914 51.3945 91.7227 51.7695C91.2773 52.1445 90.9023 52.4727 90.5977 52.7539C90.293 53.0117 90.1641 53.1406 90.2109 53.1406C90.5859 53.2109 91.0664 53.1641 91.6523 53C92.2617 52.8125 92.8828 52.5547 93.5156 52.2266C94.1719 51.8984 94.793 51.5352 95.3789 51.1367C95.9648 50.7148 96.4219 50.3047 96.75 49.9062C97.1016 49.5078 97.2773 49.1562 97.2773 48.8516C97.3008 48.5469 97.0547 48.3242 96.5391 48.1836ZM21.8672 96.1914C21.6094 95.8867 21.457 95.5469 21.4102 95.1719C21.3867 94.7734 21.4102 94.3867 21.4805 94.0117C21.5742 93.6133 21.6914 93.2383 21.832 92.8867C21.9961 92.5117 22.1484 92.1719 22.2891 91.8672C22.3828 91.6328 22.5703 91.2109 22.8516 90.6016C23.1562 89.9688 23.4727 89.3125 23.8008 88.6328C24.1523 87.9531 24.4805 87.3203 24.7852 86.7344C25.0898 86.125 25.3008 85.7031 25.418 85.4688V84.6953C25.1836 84.5781 24.7031 84.7422 23.9766 85.1875C23.25 85.6094 22.4062 86.207 21.4453 86.9805C20.4844 87.7305 19.4648 88.5742 18.3867 89.5117C17.3086 90.4492 16.2891 91.3516 15.3281 92.2188C14.3906 93.0625 13.5703 93.8242 12.8672 94.5039C12.1641 95.1602 11.7188 95.5938 11.5312 95.8047C11.0156 95.9688 10.6758 95.8633 10.5117 95.4883C10.3711 95.0898 10.3359 94.5508 10.4062 93.8711C10.4766 93.168 10.6172 92.3945 10.8281 91.5508C11.0391 90.6836 11.25 89.875 11.4609 89.125C11.6953 88.3516 11.8945 87.6953 12.0586 87.1562C12.2461 86.6172 12.3281 86.3242 12.3047 86.2773C11.8359 86.1133 11.3438 86.1719 10.8281 86.4531C10.3125 86.7344 9.78516 87.1562 9.24609 87.7188C8.70703 88.2578 8.16797 88.9023 7.62891 89.6523C7.08984 90.3789 6.55078 91.1172 6.01172 91.8672C5.47266 92.5938 4.95703 93.2969 4.46484 93.9766C3.97266 94.6328 3.50391 95.1719 3.05859 95.5938C2.61328 96.0156 2.19141 96.2617 1.79297 96.332C1.41797 96.4023 1.08984 96.2266 0.808594 95.8047C0.785156 95.7812 0.773438 95.7227 0.773438 95.6289C0.773438 95.5352 0.785156 95.4648 0.808594 95.418C0.925781 95.1836 1.10156 94.8203 1.33594 94.3281C1.59375 93.8125 1.875 93.2383 2.17969 92.6055C2.48438 91.9727 2.8125 91.3164 3.16406 90.6367C3.51562 89.9336 3.84375 89.2773 4.14844 88.668C4.47656 88.0352 4.75781 87.4727 4.99219 86.9805C5.25 86.4883 5.44922 86.125 5.58984 85.8906C5.70703 85.6562 5.87109 85.3633 6.08203 85.0117C6.29297 84.6367 6.50391 84.2852 6.71484 83.957C6.92578 83.6055 7.11328 83.3125 7.27734 83.0781C7.44141 82.8203 7.52344 82.6914 7.52344 82.6914H8.36719C8.53125 83.2305 8.50781 83.7344 8.29688 84.2031C8.08594 84.6719 7.82812 85.1289 7.52344 85.5742C7.24219 86.0195 6.99609 86.4648 6.78516 86.9102C6.59766 87.332 6.59766 87.7891 6.78516 88.2812C8.80078 86.5 10.3477 85.1875 11.4258 84.3438C12.5273 83.5 13.3008 83.0195 13.7461 82.9023C14.1914 82.7852 14.4023 82.9609 14.3789 83.4297C14.3555 83.8984 14.25 84.5312 14.0625 85.3281C13.8984 86.125 13.7227 87.0391 13.5352 88.0703C13.3711 89.0781 13.3594 90.0625 13.5 91.0234H13.9219C14.0625 90.9297 14.2969 90.7539 14.625 90.4961C14.9531 90.2383 15.3047 89.957 15.6797 89.6523C16.0781 89.3477 16.4414 89.0664 16.7695 88.8086C17.1211 88.5508 17.3672 88.375 17.5078 88.2812C17.7656 88.0703 18.1406 87.7773 18.6328 87.4023C19.125 87.0273 19.6172 86.6523 20.1094 86.2773C20.625 85.8789 21.082 85.5391 21.4805 85.2578C21.9023 84.9531 22.1719 84.7656 22.2891 84.6953C22.3828 84.625 22.582 84.4844 22.8867 84.2734C23.2148 84.0391 23.5664 83.793 23.9414 83.5352C24.3398 83.2773 24.7148 83.043 25.0664 82.832C25.418 82.5977 25.6758 82.4219 25.8398 82.3047C26.1914 82.0703 26.5195 81.9648 26.8242 81.9883C27.1289 82.0117 27.375 82.1289 27.5625 82.3398C27.7734 82.5273 27.9023 82.7969 27.9492 83.1484C27.9961 83.4766 27.9492 83.8516 27.8086 84.2734C27.2461 85.3281 26.6836 86.3594 26.1211 87.3672C25.582 88.375 25.0781 89.3945 24.6094 90.4258C24.1641 91.4336 23.7891 92.4766 23.4844 93.5547C23.2031 94.6328 23.0508 95.7812 23.0273 97C22.9102 97.0703 22.7812 97.0703 22.6406 97C22.5234 96.9297 22.4062 96.8359 22.2891 96.7188C22.1719 96.6016 22.0664 96.4844 21.9727 96.3672C21.9023 96.25 21.8672 96.1914 21.8672 96.1914ZM31.7812 96.6133C30.7969 96.2148 30.1758 95.6172 29.918 94.8203C29.6836 94.0234 29.6953 93.1445 29.9531 92.1836C30.2109 91.1992 30.6562 90.1914 31.2891 89.1602C31.9219 88.1055 32.625 87.1445 33.3984 86.2773C34.1719 85.4102 34.9453 84.6836 35.7188 84.0977C36.5156 83.4883 37.1953 83.1484 37.7578 83.0781C39.2109 82.8906 40.3477 82.9961 41.168 83.3945C42.0117 83.7695 42.5859 84.3203 42.8906 85.0469C43.1953 85.7734 43.2773 86.6289 43.1367 87.6133C42.9961 88.5742 42.6797 89.5469 42.1875 90.5312C41.7188 91.5156 41.0977 92.4648 40.3242 93.3789C39.5742 94.293 38.7305 95.0664 37.793 95.6992C36.8789 96.3086 35.9062 96.7188 34.875 96.9297C33.8438 97.1172 32.8125 97.0117 31.7812 96.6133ZM31.3945 94.6094C31.582 95.3594 31.9805 95.7812 32.5898 95.875C33.1992 95.9453 33.9023 95.793 34.6992 95.418C35.5195 95.0195 36.375 94.457 37.2656 93.7305C38.1562 92.9805 38.9648 92.1719 39.6914 91.3047C40.4414 90.4375 41.0508 89.5703 41.5195 88.7031C42.0117 87.8125 42.2461 87.0391 42.2227 86.3828C42.2227 85.7266 41.9062 85.2344 41.2734 84.9062C40.6641 84.5547 39.6328 84.4844 38.1797 84.6953C37.8516 85 37.4297 85.375 36.9141 85.8203C36.3984 86.2422 35.8594 86.7109 35.2969 87.2266C34.7578 87.7422 34.2188 88.3047 33.6797 88.9141C33.1406 89.5 32.6719 90.1094 32.2734 90.7422C31.875 91.375 31.582 92.0195 31.3945 92.6758C31.2305 93.332 31.2305 93.9766 31.3945 94.6094ZM57.832 96.6133C57.7617 95.8398 57.8203 95.0781 58.0078 94.3281C58.2188 93.5547 58.4883 92.8047 58.8164 92.0781C59.168 91.3281 59.5312 90.5898 59.9062 89.8633C60.3047 89.1133 60.6445 88.3867 60.9258 87.6836C61.207 86.957 61.4062 86.2539 61.5234 85.5742C61.6406 84.8711 61.5938 84.1797 61.3828 83.5C60.7969 83.2891 60.1172 83.3359 59.3438 83.6406C58.5938 83.9453 57.7969 84.4141 56.9531 85.0469C56.1094 85.6562 55.2305 86.3828 54.3164 87.2266C53.4258 88.0469 52.5469 88.8906 51.6797 89.7578C50.8359 90.6016 50.0273 91.4102 49.2539 92.1836C48.4805 92.957 47.7773 93.6016 47.1445 94.1172C46.5352 94.6094 46.0195 94.9258 45.5977 95.0664C45.1758 95.1836 44.8945 95.0312 44.7539 94.6094C44.7305 94.5859 44.8594 94.293 45.1406 93.7305C45.4453 93.1445 45.8086 92.418 46.2305 91.5508C46.6758 90.6836 47.1562 89.7461 47.6719 88.7383C48.2109 87.7305 48.7148 86.793 49.1836 85.9258C49.6523 85.0352 50.0625 84.2852 50.4141 83.6758C50.7656 83.0664 50.9883 82.7383 51.082 82.6914C51.5742 83.0195 51.8203 83.3828 51.8203 83.7812C51.8438 84.1562 51.7852 84.5547 51.6445 84.9766C51.5039 85.375 51.3398 85.7852 51.1523 86.207C50.9883 86.6289 50.9648 87.0508 51.082 87.4727C51.457 87.2148 51.9727 86.8633 52.6289 86.418C53.3086 85.9492 54.0352 85.4688 54.8086 84.9766C55.6055 84.4844 56.4258 84.0039 57.2695 83.5352C58.1367 83.0664 58.9453 82.7031 59.6953 82.4453C60.4453 82.1641 61.1133 82.0117 61.6992 81.9883C62.3086 81.9648 62.7539 82.1406 63.0352 82.5156C63.3164 82.8906 63.3984 83.5117 63.2812 84.3789C63.1875 85.2227 62.8242 86.3828 62.1914 87.8594C62.1211 88.0234 61.9453 88.4219 61.6641 89.0547C61.4062 89.6641 61.1133 90.332 60.7852 91.0586C60.4805 91.7617 60.1875 92.4297 59.9062 93.0625C59.6484 93.6719 59.4844 94.0586 59.4141 94.2227C59.3906 94.3164 59.3555 94.4922 59.3086 94.75C59.2852 94.9844 59.25 95.2539 59.2031 95.5586C59.1562 95.8398 59.0859 96.1211 58.9922 96.4023C58.8984 96.6602 58.7812 96.8594 58.6406 97C58.5 97.1406 58.3359 97.1289 58.1484 96.9648C57.9609 96.7773 57.8555 96.6602 57.832 96.6133ZM67.5703 96.6133C67.5469 96.5664 67.5352 96.4375 67.5352 96.2266C67.5352 96.0156 67.5469 95.875 67.5703 95.8047C67.6406 95.5469 67.7695 95.1016 67.957 94.4688C68.1445 93.8125 68.3438 93.1328 68.5547 92.4297C68.7656 91.7031 68.9648 91.0234 69.1523 90.3906C69.3398 89.7578 69.4688 89.3125 69.5391 89.0547C69.6328 88.7266 69.7383 88.3516 69.8555 87.9297C69.9727 87.4844 69.9961 87.0625 69.9258 86.6641C69.5742 86.6172 69.1406 86.6641 68.625 86.8047C68.1094 86.9219 67.5938 87.0273 67.0781 87.1211C66.5859 87.1914 66.1172 87.1914 65.6719 87.1211C65.25 87.0273 64.9453 86.7461 64.7578 86.2773C65.0391 85.6914 65.4609 85.3164 66.0234 85.1523C66.5859 84.9648 67.1953 84.8359 67.8516 84.7656C68.5078 84.6953 69.1289 84.5898 69.7148 84.4492C70.3242 84.3086 70.8047 83.9922 71.1562 83.5C71.3672 82.8906 71.6133 82.1523 71.8945 81.2852C72.1992 80.3945 72.5156 79.4688 72.8438 78.5078C73.1719 77.5469 73.5234 76.5977 73.8984 75.6602C74.2969 74.7227 74.707 73.8906 75.1289 73.1641C75.3867 73 75.5977 72.9883 75.7617 73.1289C75.9258 73.2695 76.043 73.4805 76.1133 73.7617C76.207 74.0195 76.2656 74.2891 76.2891 74.5703C76.3125 74.8516 76.3125 75.0391 76.2891 75.1328C76.1484 75.7422 75.9023 76.3984 75.5508 77.1016C75.2227 77.7812 74.9062 78.4727 74.6016 79.1758C74.3203 79.8789 74.0859 80.582 73.8984 81.2852C73.7344 81.9883 73.7344 82.6562 73.8984 83.2891H81.457C81.4805 83.2891 81.5391 83.3711 81.6328 83.5352C81.7266 83.6758 81.8086 83.793 81.8789 83.8867C81.9961 84.2148 81.8672 84.4375 81.4922 84.5547C81.1172 84.6719 80.6133 84.7539 79.9805 84.8008C79.3477 84.8242 78.6211 84.8477 77.8008 84.8711C77.0039 84.8711 76.2305 84.9297 75.4805 85.0469C74.7539 85.1406 74.0977 85.3164 73.5117 85.5742C72.9258 85.8086 72.5273 86.1719 72.3164 86.6641C71.707 88.2344 71.1445 89.8164 70.6289 91.4102C70.1133 92.9805 69.6211 94.5742 69.1523 96.1914C69.1055 96.2617 69.0117 96.3789 68.8711 96.543C68.7305 96.6836 68.5781 96.8125 68.4141 96.9297C68.25 97.0234 68.0859 97.0586 67.9219 97.0352C67.7812 97.0117 67.6641 96.8711 67.5703 96.6133ZM79.875 96.1914C79.8516 96.1445 79.8398 96.0859 79.8398 96.0156C79.8398 95.9219 79.8516 95.8516 79.875 95.8047C79.9688 95.6172 80.1211 95.3008 80.332 94.8555C80.5664 94.3867 80.8008 93.9062 81.0352 93.4141C81.293 92.8984 81.5391 92.418 81.7734 91.9727C82.0078 91.5273 82.1719 91.2109 82.2656 91.0234C82.3125 90.9531 82.4297 90.7539 82.6172 90.4258C82.8281 90.0977 83.0742 89.6992 83.3555 89.2305C83.6602 88.7383 83.9766 88.1992 84.3047 87.6133C84.6562 87.0273 84.9961 86.4531 85.3242 85.8906C85.6758 85.3281 85.9922 84.8008 86.2734 84.3086C86.5781 83.8164 86.8242 83.4062 87.0117 83.0781C87.4805 82.3047 88.0195 81.3906 88.6289 80.3359C89.2617 79.2812 89.9062 78.2148 90.5625 77.1367C91.2188 76.0586 91.8633 75.0156 92.4961 74.0078C93.1523 73 93.75 72.168 94.2891 71.5117C94.8281 70.8555 95.2852 70.4219 95.6602 70.2109C96.0352 70 96.293 70.1406 96.4336 70.6328V71.7578C96.2695 72.0156 96.0469 72.3555 95.7656 72.7773C95.4844 73.1758 95.1914 73.6094 94.8867 74.0781C94.6055 74.5234 94.3242 74.957 94.043 75.3789C93.7617 75.8008 93.5508 76.1289 93.4102 76.3633C93.1992 76.6914 92.8594 77.2188 92.3906 77.9453C91.9219 78.6719 91.3945 79.4922 90.8086 80.4062C90.2227 81.3203 89.625 82.2812 89.0156 83.2891C88.4062 84.2734 87.8555 85.1992 87.3633 86.0664C86.8711 86.9336 86.4727 87.6836 86.168 88.3164C85.8867 88.9258 85.7812 89.3125 85.8516 89.4766C86.4141 89.3125 87.0117 89.0195 87.6445 88.5977C88.3008 88.1523 88.957 87.6836 89.6133 87.1914C90.2695 86.6992 90.9258 86.2305 91.582 85.7852C92.2383 85.3164 92.8477 84.9531 93.4102 84.6953C93.9727 84.7656 94.4648 84.9766 94.8867 85.3281C95.3086 85.6797 95.6133 86.125 95.8008 86.6641C95.7773 86.875 95.7539 87.2734 95.7305 87.8594C95.7305 88.4219 95.7305 89.0195 95.7305 89.6523C95.7305 90.2852 95.7305 90.8828 95.7305 91.4453C95.7539 92.0078 95.7773 92.3945 95.8008 92.6055C95.8242 92.8633 95.9414 93.1914 96.1523 93.5898C96.3633 93.9648 96.5859 94.3516 96.8203 94.75C97.0781 95.125 97.3008 95.4531 97.4883 95.7344C97.6992 96.0156 97.793 96.168 97.7695 96.1914C97.3008 96.3555 96.8555 96.3672 96.4336 96.2266C96.0117 96.0625 95.6367 95.8164 95.3086 95.4883C95.0039 95.1367 94.7461 94.75 94.5352 94.3281C94.3477 93.8828 94.2305 93.4492 94.1836 93.0273C94.1602 92.8164 94.125 92.4297 94.0781 91.8672C94.0312 91.2812 93.9844 90.6719 93.9375 90.0391C93.9141 89.4062 93.8789 88.8086 93.832 88.2461C93.8086 87.6836 93.7969 87.2969 93.7969 87.0859L92.9883 86.6641C92.8477 86.5938 92.6016 86.6523 92.25 86.8398C91.9219 87.0273 91.5352 87.2852 91.0898 87.6133C90.6445 87.9414 90.1758 88.3164 89.6836 88.7383C89.1914 89.1602 88.7227 89.5586 88.2773 89.9336C87.8555 90.3086 87.4922 90.6367 87.1875 90.918C86.8828 91.1992 86.6953 91.375 86.625 91.4453C86.4375 91.6328 86.0977 91.9727 85.6055 92.4648C85.1133 92.9336 84.5859 93.4492 84.0234 94.0117C83.4844 94.5508 82.9688 95.0664 82.4766 95.5586C82.0078 96.0508 81.6797 96.4023 81.4922 96.6133C81.1641 96.6836 80.8477 96.7188 80.543 96.7188C80.2617 96.6953 80.0391 96.5195 79.875 96.1914Z" fill="#FFCE0C"/>
<path d="M126 119.804L96.9231 126.661L109.771 129.779V141L126 119.804Z" fill="#FFCE0C" stroke="#FFCE0C"/>
<path d="M111.462 130.926C106.727 131.031 103.127 133.745 98.28 133.745C94.7746 133.745 90.9123 133.68 87.5969 134.607C84.0474 135.6 79.9285 135.155 76.1815 135.155C73.4109 135.155 67.6623 136.15 65.5415 134.607C64.6057 133.926 63.0629 134.11 62.44 133.04C61.2546 131.005 59.8325 131.845 58.3908 130.534C56.06 128.415 54.0613 126.094 51.7569 123.876C48.963 121.186 47.1046 117.419 47.1046 113.341C47.1046 111.229 46.8242 105.87 45.5538 104.137" stroke="#FFCE0C" stroke-linecap="round" stroke-linejoin="round"/>
</svg>
