<svg width="182" height="235" viewBox="0 0 182 235" fill="none" xmlns="http://www.w3.org/2000/svg">
<path d="M71.5945 190.179H92.3895V223.636C92.3895 229.378 87.7344 234.033 81.992 234.033C76.2496 234.033 71.5945 229.378 71.5945 223.636V190.179Z" fill="#26A9E0" stroke="#39110F" stroke-width="1.82963"/>
<path d="M103.791 190.179H124.586V223.636C124.586 229.378 119.931 234.033 114.188 234.033C108.446 234.033 103.791 229.378 103.791 223.636V190.179Z" fill="#26A9E0" stroke="#39110F" stroke-width="1.82963"/>
<path d="M135.861 107.14C135.33 104.57 136.757 100.739 134.156 101.089C133.578 101.167 133.286 101.279 134.002 101.22C134.931 101.144 135.886 101.112 136.777 101.383C137.99 101.752 137.897 102.078 142.216 103.585C147.692 105.497 152.635 108.686 156.634 112.887C157.915 114.233 159.088 115.671 160.144 117.186C162.384 120.401 164.099 123.966 165.213 127.747C165.753 129.583 166.147 131.453 166.394 133.339C166.893 137.169 166.784 141.066 166.058 144.885C165.849 145.985 165.591 147.072 165.283 148.143C163.997 152.622 161.862 156.825 158.984 160.517C155.418 165.092 150.814 168.752 145.552 171.194C144.687 171.595 144.102 171.931 143.702 172.21C141.272 173.909 138.642 171.908 137.073 169.392L133.684 163.959C131.317 160.164 134.402 157.791 138.459 155.908C140.64 154.896 142.612 153.495 144.28 151.78C144.779 151.267 145.251 150.725 145.694 150.158C146.99 148.495 148.006 146.639 148.709 144.665C149.048 143.714 149.314 142.736 149.504 141.739C149.868 139.822 149.944 137.868 149.734 135.941C149.608 134.782 149.379 133.634 149.048 132.508C148.487 130.604 147.643 128.802 146.549 127.16C145.922 126.219 145.213 125.33 144.428 124.505C143.618 123.655 142.737 122.882 141.796 122.193C140.233 121.049 138.504 120.138 136.662 119.495C133.713 118.466 139.636 118.291 136.541 118.722C134.143 119.056 137.344 114.309 136.853 111.937L135.861 107.14Z" fill="#6D6E70"/>
<path d="M158.984 160.517C155.418 165.092 150.814 168.752 145.552 171.194C144.687 171.595 144.102 171.931 143.702 172.21C141.272 173.909 138.642 171.908 137.073 169.392L133.684 163.959C131.317 160.164 134.402 157.791 138.459 155.908V155.908C140.64 154.896 142.612 153.495 144.28 151.78M158.984 160.517C161.862 156.825 163.997 152.622 165.283 148.143M158.984 160.517C151.331 160.637 148.192 158.525 144.28 151.78M141.796 122.193C142.737 122.882 143.618 123.655 144.428 124.505C145.213 125.33 145.922 126.219 146.549 127.16M141.796 122.193C140.233 121.049 138.504 120.138 136.662 119.495C133.713 118.466 139.636 118.291 136.541 118.722V118.722C134.143 119.056 137.344 114.309 136.853 111.937L135.861 107.14C135.33 104.57 136.757 100.739 134.156 101.089C133.578 101.167 133.286 101.279 134.002 101.22C134.931 101.144 135.886 101.112 136.777 101.383C137.99 101.752 137.897 102.078 142.216 103.585C147.692 105.497 152.635 108.686 156.634 112.887C157.915 114.233 159.088 115.671 160.144 117.186M141.796 122.193C148.41 119.577 150.211 116.361 150.558 107.978M146.549 127.16C147.643 128.802 148.487 130.604 149.048 132.508C149.379 133.634 149.608 134.782 149.734 135.941M146.549 127.16C154.007 126.285 157.101 124.267 160.144 117.186M160.144 117.186C162.384 120.401 164.099 123.966 165.213 127.747C165.753 129.583 166.147 131.453 166.394 133.339M149.734 135.941C149.944 137.868 149.868 139.822 149.504 141.739C149.314 142.736 149.048 143.714 148.709 144.665M149.734 135.941C158.294 138.128 161.87 137.444 166.394 133.339M166.394 133.339C166.893 137.169 166.784 141.066 166.058 144.885C165.849 145.985 165.591 147.072 165.283 148.143M148.709 144.665C148.006 146.639 146.99 148.495 145.694 150.158C145.251 150.725 144.779 151.267 144.28 151.78M148.709 144.665C154.335 150.924 157.9 152.057 165.283 148.143" stroke="#39110F" stroke-width="1.82963"/>
<path d="M69.8363 130.418C71.9194 132.013 73.347 135.844 75.0847 133.878C75.4713 133.441 75.6183 133.165 75.1151 133.678C74.4626 134.343 73.7618 134.992 72.9103 135.37C71.7509 135.885 71.608 135.578 67.3562 137.263C61.9638 139.401 56.1397 140.223 50.3662 139.662C48.5166 139.482 46.6892 139.162 44.8992 138.707C41.1018 137.742 37.4725 136.168 34.1559 134.037C32.5458 133.003 31.0247 131.846 29.6046 130.581C26.7204 128.012 24.253 124.993 22.3034 121.63C21.742 120.662 21.2267 119.67 20.7584 118.659C18.7999 114.43 17.6646 109.855 17.4253 105.18C17.1287 99.3865 18.2163 93.6061 20.5981 88.317C20.9895 87.4479 21.2125 86.8113 21.3321 86.3382C22.0585 83.4637 25.3565 83.2562 28.1891 84.1319L34.3071 86.0234C38.5803 87.3445 37.7999 91.1579 35.9634 95.2362C34.976 97.4289 34.4015 99.7783 34.2622 102.167C34.2205 102.882 34.2177 103.6 34.2545 104.318C34.3623 106.424 34.8077 108.492 35.5677 110.446C35.9337 111.386 36.3725 112.3 36.8818 113.178C37.8605 114.866 39.0815 116.393 40.5008 117.714C41.3539 118.507 42.2786 119.226 43.2653 119.86C44.9357 120.934 46.7532 121.744 48.6544 122.27C49.7447 122.572 50.8626 122.78 51.9959 122.89C53.1643 123.003 54.3365 123.012 55.4987 122.917C57.4298 122.759 59.3334 122.316 61.1464 121.598C64.0507 120.446 59.6859 124.454 61.7438 122.104C63.3391 120.281 64.0243 125.966 65.9469 127.439L69.8363 130.418Z" fill="#6D6E70"/>
<path d="M17.4253 105.18C17.1287 99.3865 18.2163 93.6061 20.5981 88.317C20.9895 87.4479 21.2125 86.8113 21.3321 86.3382C22.0585 83.4637 25.3565 83.2562 28.1891 84.1319L34.3071 86.0234C38.5803 87.3445 37.7999 91.1579 35.9634 95.2362V95.2362C34.976 97.4289 34.4015 99.7783 34.2622 102.167M17.4253 105.18C17.6646 109.855 18.7999 114.43 20.7584 118.659M17.4253 105.18C23.1345 100.081 26.8906 99.6252 34.2622 102.167M48.6544 122.27C46.7532 121.744 44.9357 120.934 43.2653 119.86C42.2786 119.226 41.3539 118.507 40.5008 117.714M48.6544 122.27C49.7447 122.572 50.8626 122.78 51.9959 122.89C53.1643 123.003 54.3365 123.012 55.4987 122.917C57.4298 122.759 59.3334 122.316 61.1464 121.598C64.0507 120.446 59.6859 124.454 61.7438 122.104V122.104C63.3391 120.281 64.0243 125.966 65.9469 127.439L69.8363 130.418C71.9194 132.013 73.347 135.844 75.0847 133.878C75.4713 133.441 75.6183 133.165 75.1151 133.678C74.4626 134.343 73.7618 134.992 72.9103 135.37C71.7509 135.885 71.608 135.578 67.3562 137.263C61.9638 139.401 56.1397 140.223 50.3662 139.662C48.5166 139.482 46.6892 139.162 44.8992 138.707M48.6544 122.27C43.5874 127.811 42.5675 131.362 44.8992 138.707M44.8992 138.707C41.1018 137.742 37.4725 136.168 34.1559 134.037C32.5458 133.003 31.0247 131.846 29.6046 130.581M40.5008 117.714C39.0815 116.393 37.8605 114.866 36.8818 113.178C36.3725 112.3 35.9337 111.386 35.5677 110.446M40.5008 117.714C32.5969 121.66 30.3391 124.517 29.6046 130.581M29.6046 130.581C26.7204 128.012 24.253 124.993 22.3034 121.63C21.742 120.662 21.2267 119.67 20.7584 118.659M35.5677 110.446C34.8077 108.492 34.3623 106.424 34.2545 104.318C34.2177 103.6 34.2205 102.882 34.2622 102.167M35.5677 110.446C27.2179 109.393 23.781 110.868 20.7584 118.659" stroke="#39110F" stroke-width="1.82963"/>
<path d="M120.71 185.12C123.721 187.533 127.508 188.766 131.363 188.588C135.217 188.411 138.875 186.835 141.652 184.155C144.428 181.476 146.133 177.876 146.447 174.031C146.761 170.185 145.664 166.356 143.359 163.261C141.055 160.167 137.701 158.018 133.927 157.217C130.152 156.416 126.215 157.017 122.852 158.909C119.49 160.801 116.931 163.854 115.657 167.496C114.382 171.138 114.478 175.119 115.927 178.696L124.644 175.164C124.054 173.708 124.015 172.086 124.534 170.603C125.053 169.12 126.095 167.877 127.464 167.106C128.834 166.336 130.437 166.091 131.974 166.417C133.511 166.743 134.877 167.618 135.815 168.879C136.754 170.139 137.201 171.698 137.073 173.264C136.945 174.83 136.251 176.296 135.12 177.388C133.989 178.479 132.5 179.121 130.93 179.193C129.36 179.265 127.818 178.763 126.592 177.78L120.71 185.12Z" fill="#26A9E0" stroke="#39110F" stroke-width="1.82963"/>
<path d="M56.8015 157.744C56.8015 181.859 77.1206 200.988 101.191 199.534C123.154 198.208 140.342 180.108 140.532 158.107L141.039 99.6065C141.082 94.6671 137.542 90.4238 132.682 89.7009C107.094 85.8944 89.735 86.1923 64.858 90.687C60.17 91.5341 56.8015 95.6641 56.8015 100.454V157.744Z" fill="#26A9E0" stroke="#39110F" stroke-width="1.82963"/>
<path d="M141.12 97.2424C141.12 98.2645 140.297 99.4864 138.174 100.78C136.104 102.04 133.047 103.208 129.19 104.202C121.489 106.185 110.801 107.422 98.9605 107.422C87.12 107.422 76.4318 106.185 68.7309 104.202C64.8736 103.208 61.8174 102.04 59.7475 100.78C57.6238 99.4864 56.8015 98.2645 56.8015 97.2424C56.8015 96.2203 57.6238 94.9985 59.7475 93.7052C61.8174 92.4446 64.8736 91.2767 68.7309 90.2831C76.4318 88.2996 87.12 87.0625 98.9605 87.0625C110.801 87.0625 121.489 88.2996 129.19 90.2831C133.047 91.2767 136.104 92.4446 138.174 93.7052C140.297 94.9985 141.12 96.2203 141.12 97.2424Z" fill="#155D7B" stroke="#39110F" stroke-width="1.82963"/>
<path d="M60.3061 55.0943C62.8338 31.0152 85.068 14.0012 108.971 17.8554C130.678 21.3555 146.056 40.9436 144.302 62.8613L141.775 94.4552C141.678 95.6647 140.798 96.6639 139.619 96.9013C106.747 103.524 80.5957 100.606 58.4014 90.7441C57.354 90.2786 56.7283 89.1765 56.8506 88.0118L60.3061 55.0943Z" fill="#26A9E0" stroke="#39110F" stroke-width="1.82963"/>
<rect x="86.2852" y="46.9455" width="33.9369" height="2.35448" transform="rotate(11.4645 86.2852 46.9455)" fill="#380E0C"/>
<circle cx="103.031" cy="50.5835" r="12.5953" transform="rotate(17.1963 103.031 50.5835)" fill="#19546E"/>
<circle cx="103.031" cy="50.5835" r="12.5953" transform="rotate(17.1963 103.031 50.5835)" fill="#19546E"/>
<circle cx="103.031" cy="50.5835" r="12.5953" transform="rotate(17.1963 103.031 50.5835)" stroke="#431310" stroke-width="0.914815"/>
<circle cx="103.031" cy="50.5835" r="12.5953" transform="rotate(17.1963 103.031 50.5835)" fill="#19546E" stroke="#431310" stroke-width="0.914815"/>
<circle cx="103.031" cy="50.5835" r="9.16123" transform="rotate(17.1963 103.031 50.5835)" fill="#1C3341" stroke="#431310" stroke-width="0.821466"/>
<circle cx="103.353" cy="49.5445" r="8.12018" transform="rotate(17.1963 103.353 49.5445)" fill="#441917" stroke="#431310" stroke-width="0.728118"/>
<circle cx="103.031" cy="50.5838" r="2.61053" transform="rotate(17.1963 103.031 50.5838)" fill="url(#paint0_radial_830_527)"/>
<path d="M89.75 73.0511L108.663 73.6016L106.932 84.4631C106.096 89.7058 101.115 93.2377 95.8913 92.2918C90.7442 91.3598 87.3272 86.4317 88.2592 81.2846L89.75 73.0511Z" fill="#0E4059" stroke="#431310" stroke-width="0.914815"/>
<path d="M93.6635 73.5057L108.791 73.4011L106.727 86.0147C106.046 90.1746 102.088 92.969 97.94 92.218C93.8413 91.4758 91.1203 87.5515 91.8624 83.4528L93.6635 73.5057Z" fill="#FDF533" stroke="#431310" stroke-width="0.914815"/>
<path d="M96.9295 73.688L108.789 73.8457L106.468 87.7204C105.927 90.9477 102.853 93.1103 99.6328 92.5273C96.4702 91.9546 94.3563 88.9449 94.8908 85.7756L96.9295 73.688Z" fill="#F5921E" stroke="#431310" stroke-width="0.914815"/>
<circle cx="61.9791" cy="107.032" r="1.30527" fill="#39110F"/>
<circle cx="69.3756" cy="109.643" r="1.30527" fill="#39110F"/>
<circle cx="76.7721" cy="111.818" r="1.30527" fill="#39110F"/>
<circle cx="84.1685" cy="112.688" r="1.30527" fill="#39110F"/>
<circle cx="91.566" cy="113.123" r="1.30527" fill="#39110F"/>
<circle cx="98.9615" cy="113.123" r="1.30527" fill="#39110F"/>
<circle cx="106.358" cy="112.688" r="1.30527" fill="#39110F"/>
<circle cx="113.754" cy="111.818" r="1.30527" fill="#39110F"/>
<circle cx="121.151" cy="110.948" r="1.30527" fill="#39110F"/>
<circle cx="128.547" cy="110.078" r="1.30527" fill="#39110F"/>
<circle cx="135.945" cy="108.772" r="1.30527" fill="#39110F"/>
<circle cx="62.8482" cy="87.4529" r="1.30527" fill="#39110F"/>
<circle cx="70.2457" cy="90.0634" r="1.30527" fill="#39110F"/>
<circle cx="77.6412" cy="92.2389" r="1.30527" fill="#39110F"/>
<circle cx="85.0387" cy="94.4143" r="1.30527" fill="#39110F"/>
<circle cx="92.0006" cy="94.8494" r="1.30527" fill="#39110F"/>
<circle cx="99.8307" cy="95.7196" r="1.30527" fill="#39110F"/>
<circle cx="107.227" cy="95.7196" r="1.30527" fill="#39110F"/>
<circle cx="115.059" cy="95.7196" r="1.30527" fill="#39110F"/>
<circle cx="122.456" cy="94.8494" r="1.30527" fill="#39110F"/>
<circle cx="129.853" cy="93.5441" r="1.30527" fill="#39110F"/>
<circle cx="137.249" cy="92.2389" r="1.30527" fill="#39110F"/>
<circle cx="64.5885" cy="176.646" r="1.30527" fill="#39110F"/>
<circle cx="69.3736" cy="181.432" r="1.30527" fill="#39110F"/>
<circle cx="73.7252" cy="185.348" r="1.30527" fill="#39110F"/>
<circle cx="79.3824" cy="189.264" r="1.30527" fill="#39110F"/>
<circle cx="85.9078" cy="192.744" r="1.30527" fill="#39110F"/>
<circle cx="91.9996" cy="195.355" r="1.30527" fill="#39110F"/>
<circle cx="98.9605" cy="195.355" r="1.30527" fill="#39110F"/>
<circle cx="105.922" cy="195.355" r="1.30527" fill="#39110F"/>
<circle cx="112.449" cy="192.744" r="1.30527" fill="#39110F"/>
<circle cx="117.67" cy="189.264" r="1.30527" fill="#39110F"/>
<circle cx="122.455" cy="186.653" r="1.30527" fill="#39110F"/>
<circle cx="126.806" cy="182.737" r="1.30527" fill="#39110F"/>
<circle cx="130.287" cy="178.822" r="1.30527" fill="#39110F"/>
<circle cx="133.767" cy="174.036" r="1.30527" fill="#39110F"/>
<circle cx="136.379" cy="168.815" r="1.30527" fill="#39110F"/>
<path d="M23.3558 91.0349C19.5787 87.5269 18.4615 83.0329 19.0926 76.7933C19.1311 76.4128 19.8042 76.1078 20.174 76.2051C22.1636 76.7283 26.7778 76.5781 32.0038 76.6774C35.2253 77.1049 36.4546 77.6619 36.1338 80.0209L45.9594 85.797C46.0897 85.8736 46.1678 86.0169 46.1632 86.1681C45.9991 91.5219 46.014 94.7725 42.0406 94.1817C33.0238 93.3405 25.7762 93.3593 23.3558 91.0349Z" fill="#26A9E0"/>
<path d="M36.1338 80.0209C36.4546 77.6619 35.2253 77.1049 32.0038 76.6774C26.7778 76.5781 22.1636 76.7283 20.174 76.2051C19.8042 76.1078 19.1311 76.4128 19.0926 76.7933C18.4615 83.0329 19.5787 87.5269 23.3558 91.0349C25.7762 93.3593 33.0238 93.3405 42.0406 94.1817C46.014 94.7725 45.9991 91.5219 46.1632 86.1681C46.1678 86.0169 46.0897 85.8736 45.9594 85.797L36.1338 80.0209ZM36.1338 80.0209C35.983 83.831 35.3088 84.7503 33.1836 84.5445H26.1032" stroke="#39110F" stroke-width="1.2406"/>
<path d="M15.023 58.5671C8.54613 57.0764 5.75919 57.5829 4.27282 63.8928C3.73876 66.0471 8.39135 66.1187 13.2181 66.9854C13.3958 67.0173 13.532 67.1627 13.5518 67.3422C13.806 69.6404 13.5767 70.7081 10.8464 70.5843C10.7925 70.5819 10.7375 70.5681 10.6888 70.545C5.09878 67.8899 1.19995 65.5508 1.51924 69.5968C2.2451 76.2645 5.20122 77.3705 10.7631 79.0374C14.3 79.6611 16.0758 79.1943 18.4819 76.0842C18.5734 75.966 18.7217 75.903 18.8698 75.9232L22.6396 76.4373C22.8264 76.4628 23.0068 76.3586 23.0782 76.1841L24.5778 72.5184C24.6614 72.3142 24.8905 72.2115 25.0985 72.2851L37.1647 76.5547C37.3623 76.6246 37.4763 76.8312 37.4302 77.0356L36.211 82.4346C36.1667 82.6309 36.2701 82.8306 36.456 82.9076L43.999 86.0352C44.1238 86.087 44.2157 86.1983 44.2455 86.33C45.2432 90.7446 46.4914 92.5448 50.07 94.1687C50.0887 94.1771 50.1091 94.1846 50.1288 94.1902C57.3086 96.2184 59.1118 95.3142 60.9157 92.4115C62.879 89.18 58.1467 88.7734 53.6387 87.1012C51.3025 86.5608 50.7678 85.9198 51.8497 83.9878C51.8619 83.966 51.8729 83.9418 51.8812 83.9182C52.5616 81.9779 53.3309 81.7188 55.6054 83.1676C60.2537 85.2929 63.394 86.9944 63.8659 85.1344C65.1913 79.0446 63.2007 77.8755 59.7661 75.713C59.7461 75.7004 59.7241 75.6891 59.7023 75.6801C54.7189 73.6322 52.2528 73.9595 48.5111 77.112C48.3985 77.2068 48.2429 77.2376 48.1039 77.1893L20.8616 67.722C20.7018 67.6665 20.5921 67.5155 20.5827 67.3467C20.2534 61.4652 18.3027 60.5573 15.1484 58.6184C15.1102 58.5949 15.0667 58.5771 15.023 58.5671Z" fill="#737373" stroke="#39110F" stroke-width="1.2406"/>
<path d="M22.9717 67.997C25.0565 63.9045 26.8087 62.3864 33.1848 64.0912C43.1358 67.4651 51.4118 68.4485 49.3603 75.9181C49.3313 76.0238 49.2578 76.1174 49.1618 76.17C46.9169 77.3988 45.6959 77.9171 44.7289 76.0873C43.5885 79.6291 42.7672 82.4586 41.6418 82.381C38.8395 82.178 36.6073 82.3424 36.0506 81.201L36.1348 80.0209C36.3084 79.0386 36.0834 78.3463 35.5544 77.8574C34.3182 76.7149 31.4217 76.6834 28.071 76.6587L27.9794 76.658C26.3287 76.6459 24.571 76.633 22.8495 76.4882C22.7911 76.4833 22.733 76.4655 22.6826 76.4356C20.4495 75.1136 21.4773 72.4562 22.9478 68.0542C22.9542 68.0348 22.9625 68.0152 22.9717 67.997Z" fill="#26A9E0"/>
<path d="M36.1348 80.0209C36.3084 79.0386 36.0834 78.3463 35.5544 77.8574M36.1348 80.0209C36.1119 80.4446 36.0865 80.8379 36.0506 81.2009M36.1348 80.0209L36.0506 81.2009M28.071 76.6587C26.3939 76.6463 24.6029 76.6357 22.8495 76.4882C22.7911 76.4833 22.733 76.4655 22.6826 76.4356C20.4495 75.1136 21.4773 72.4562 22.9478 68.0542C22.9542 68.0348 22.9625 68.0152 22.9717 67.997C25.0565 63.9045 26.8087 62.3864 33.1848 64.0912C43.1358 67.4651 51.4118 68.4485 49.3603 75.9181C49.3313 76.0238 49.2578 76.1174 49.1618 76.17C46.9169 77.3988 45.6959 77.9171 44.7289 76.0873M28.071 76.6587L31.4145 68.0248M28.071 76.6587C31.4217 76.6834 34.3182 76.7149 35.5544 77.8574M35.5544 77.8574L38.4949 71.1704M36.0506 81.2009C36.6073 82.3424 38.8395 82.178 41.6418 82.381C42.7672 82.4586 43.5885 79.6291 44.7289 76.0873M44.7289 76.0873C44.934 75.4505 45.1494 74.7907 45.3787 74.1205L44.7289 76.0873Z" stroke="#39110F" stroke-width="1.2406"/>
<path d="M82.4927 29.0804C78.0168 27.4646 74.7821 30.4651 68.4095 39.1199C68.3965 39.1376 68.3841 39.1572 68.3738 39.1765C65.1306 45.2527 64.0629 48.156 63.4819 52.6825C62.2789 61.6284 62.048 65.8931 65.6298 66.8338C70.8143 68.1925 70.8969 65.1013 71.205 59.8073C71.3169 52.0506 71.495 47.8716 74.5782 44.4869C82.2387 36.8148 88.2885 31.8814 82.4927 29.0804Z" fill="#93D4F0" fill-opacity="0.7"/>
<path d="M65.3035 128.798C60.9222 129.833 62.1998 138.095 62.0205 153.23C62.9666 164.276 62.2867 168.389 66.9722 167.355C66.9999 167.349 67.031 167.345 67.0593 167.344C71.5095 167.138 70.434 160.465 70.6793 152.543C70.6793 140.872 70.3599 128.75 65.395 128.786C65.3649 128.787 65.3328 128.791 65.3035 128.798Z" fill="#93D4F0" fill-opacity="0.7"/>
<circle cx="65.0236" cy="123.13" r="2.61053" fill="#72C7EB"/>
<circle cx="88.9533" cy="25.6703" r="2.61053" fill="#72C7EB"/>
<path d="M105.295 3.30969L105.835 4.04843L105.295 3.30969C105.022 3.50891 104.84 3.79916 104.77 4.11614L101.185 20.3352C101.027 21.0496 101.459 21.7525 102.149 21.9508C106.276 23.1381 109.6 24.0817 112.458 24.5084C115.341 24.9388 117.819 24.8559 120.255 23.9459C120.67 23.7908 120.972 23.4473 121.088 23.0427C121.534 21.4887 121.992 19.9694 122.43 18.512C123.499 14.9622 124.456 11.7791 124.882 9.35356C125.035 8.48519 125.126 7.68052 125.126 6.96563C125.127 6.25842 125.039 5.58121 124.788 5.00244C124.527 4.39789 124.088 3.90767 123.445 3.63637C122.853 3.38718 122.177 3.35988 121.463 3.47141C117.522 2.41747 114.448 1.69025 111.915 1.5565C109.314 1.41913 107.221 1.90336 105.295 3.30969Z" fill="#26A9E0" stroke="#39110F" stroke-width="1.82963"/>
<path d="M112.571 5.8654L107.807 6.87712C107.326 6.97941 107.323 7.66609 107.804 7.77138L112.943 8.89622C113.308 8.97609 113.427 9.43884 113.152 9.69148C108.654 13.8216 107.662 16.1076 106.826 19.6727C106.76 19.9537 106.97 20.2238 107.259 20.2305L111.751 20.3343C111.948 20.3389 112.126 20.2142 112.194 20.0286C114.202 14.473 116.05 11.6689 121.048 8.98594C121.418 8.78684 121.363 8.22756 120.958 8.11607L112.787 5.87176C112.717 5.85238 112.643 5.8502 112.571 5.8654Z" fill="#206280" stroke="#1C5670" stroke-width="0.914815"/>
<defs>
<radialGradient id="paint0_radial_830_527" cx="0" cy="0" r="1" gradientUnits="userSpaceOnUse" gradientTransform="translate(103.031 50.5838) rotate(90) scale(2.61053)">
<stop stop-color="#E51C23"/>
<stop offset="0.282986" stop-color="#E51C23"/>
<stop offset="1" stop-color="#E51C23" stop-opacity="0.07"/>
</radialGradient>
</defs>
</svg>
