<svg width="40" height="40" viewBox="0 0 40 40" fill="none" xmlns="http://www.w3.org/2000/svg">
<path fill-rule="evenodd" clip-rule="evenodd" d="M20.9375 0.00484178C18.0276 -0.0584858 15.1389 0.51408 12.4732 1.68257C9.80742 2.85105 7.42883 4.5873 5.50347 6.77008C3.5781 8.95287 2.15236 11.5296 1.32579 14.3204C0.499214 17.1111 0.291726 20.0487 0.717809 22.9279C1.14389 25.8072 2.19328 28.5587 3.7927 30.9905C5.39213 33.4222 7.50305 35.4756 9.97808 37.0072C12.4531 38.5388 15.2326 39.5117 18.1225 39.858C21.0125 40.2044 23.9432 39.9157 26.71 39.0123C27.1827 38.8579 27.5748 38.5219 27.7998 38.0784C28.0249 37.6348 28.0645 37.1201 27.91 36.6473C27.7555 36.1746 27.4196 35.7826 26.976 35.5575C26.5325 35.3325 26.0177 35.2929 25.545 35.4473C22.5383 36.4291 19.3104 36.5121 16.2572 35.6861C13.204 34.86 10.4582 33.1609 8.3566 30.7971C6.255 28.4333 4.88896 25.5075 4.42598 22.3786C3.963 19.2497 4.42323 16.0537 5.75022 13.1825C7.0772 10.3114 9.21325 7.8899 11.8964 6.21508C14.5796 4.54025 17.6932 3.68488 20.8554 3.75387C24.0176 3.82286 27.091 4.81321 29.6985 6.60347C32.3061 8.39372 34.3345 10.9061 35.535 13.8323C35.7236 14.2925 36.0873 14.6589 36.5461 14.8509C36.7733 14.9459 37.0169 14.9953 37.2632 14.9962C37.5094 14.9971 37.7534 14.9495 37.9813 14.8561C38.2091 14.7627 38.4163 14.6253 38.5911 14.4518C38.7658 14.2784 38.9047 14.0721 38.9998 13.845C39.0948 13.6178 39.1442 13.3742 39.1451 13.1279C39.146 12.8817 39.0984 12.6377 39.005 12.4098C37.5276 8.80807 35.031 5.71579 31.8217 3.51226C28.6123 1.30873 24.8296 0.0897555 20.9375 0.00484178ZM22.375 9.37484C22.375 8.87756 22.1775 8.40065 21.8258 8.04902C21.4742 7.69739 20.9973 7.49984 20.5 7.49984C20.0027 7.49984 19.5258 7.69739 19.1742 8.04902C18.8225 8.40065 18.625 8.87756 18.625 9.37484V19.2248L13.54 24.3073C13.3558 24.479 13.208 24.686 13.1055 24.916C13.0031 25.146 12.948 25.3943 12.9435 25.646C12.9391 25.8978 12.9854 26.1479 13.0797 26.3813C13.174 26.6148 13.3144 26.8269 13.4924 27.0049C13.6704 27.183 13.8825 27.3233 14.116 27.4177C14.3495 27.512 14.5995 27.5583 14.8513 27.5538C15.1031 27.5494 15.3513 27.4943 15.5813 27.3918C15.8113 27.2893 16.0183 27.1416 16.19 26.9573L21.825 21.3248L22.375 20.7748V9.37484ZM38 37.4998C38 38.1629 37.7366 38.7988 37.2678 39.2676C36.7989 39.7365 36.163 39.9998 35.5 39.9998C34.837 39.9998 34.2011 39.7365 33.7322 39.2676C33.2634 38.7988 33 38.1629 33 37.4998C33 36.8368 33.2634 36.2009 33.7322 35.7321C34.2011 35.2632 34.837 34.9998 35.5 34.9998C36.163 34.9998 36.7989 35.2632 37.2678 35.7321C37.7366 36.2009 38 36.8368 38 37.4998ZM37.375 21.8748C37.375 21.3776 37.1775 20.9007 36.8258 20.549C36.4742 20.1974 35.9973 19.9998 35.5 19.9998C35.0027 19.9998 34.5258 20.1974 34.1742 20.549C33.8225 20.9007 33.625 21.3776 33.625 21.8748V30.6248C33.625 31.1221 33.8225 31.599 34.1742 31.9507C34.5258 32.3023 35.0027 32.4998 35.5 32.4998C35.9973 32.4998 36.4742 32.3023 36.8258 31.9507C37.1775 31.599 37.375 31.1221 37.375 30.6248V21.8748Z" fill="#DC3545"/>
</svg>
